<?xml version="1.0" encoding="UTF-8" standalone="no"?>
<!DOCTYPE svg PUBLIC "-//W3C//DTD SVG 1.1//EN"
 "http://www.w3.org/Graphics/SVG/1.1/DTD/svg11.dtd">
<!-- Generated by graphviz version 2.40.1 (20161225.0304)
 -->
<!-- Title: auth_user_user_permissions Pages: 1 -->
<svg width="927pt" height="712pt"
 viewBox="0.00 0.00 927.00 712.00" xmlns="http://www.w3.org/2000/svg" xmlns:xlink="http://www.w3.org/1999/xlink">
<g id="graph0" class="graph" transform="scale(1 1) rotate(0) translate(4 708)">
<title>auth_user_user_permissions</title>
<polygon fill="#ffffff" stroke="transparent" points="-4,4 -4,-708 923,-708 923,4 -4,4"/>
<!-- auth_user_user_permissions -->
<g id="node1" class="node">
<title>auth_user_user_permissions</title>
<polygon fill="#efefef" stroke="transparent" points="260,-622.5 260,-657.5 602,-657.5 602,-622.5 260,-622.5"/>
<polygon fill="none" stroke="#000000" points="260,-622.5 260,-657.5 602,-657.5 602,-622.5 260,-622.5"/>
<text text-anchor="start" x="266.85" y="-635.3" font-family="Arial Bold" font-size="18.00" fill="#000000">auth_user_user_permissions</text>
<text text-anchor="start" x="497.8962" y="-635.3" font-family="Arial" font-size="14.00" fill="#000000"> </text>
<text text-anchor="start" x="501.7868" y="-635.3" font-family="Arial" font-size="14.00" fill="#666666">[BASE TABLE]</text>
<polygon fill="none" stroke="#000000" points="260,-592.5 260,-622.5 602,-622.5 602,-592.5 260,-592.5"/>
<text text-anchor="start" x="267" y="-603.9" font-family="Arial" font-size="14.00" fill="#000000">id </text>
<text text-anchor="start" x="281.7798" y="-603.9" font-family="Arial" font-size="14.00" fill="#666666">[int]</text>
<polygon fill="none" stroke="#000000" points="260,-562.5 260,-592.5 602,-592.5 602,-562.5 260,-562.5"/>
<text text-anchor="start" x="267" y="-573.9" font-family="Arial" font-size="14.00" fill="#000000">user_id </text>
<text text-anchor="start" x="316.7882" y="-573.9" font-family="Arial" font-size="14.00" fill="#666666">[int]</text>
<polygon fill="none" stroke="#000000" points="260,-532.5 260,-562.5 602,-562.5 602,-532.5 260,-532.5"/>
<text text-anchor="start" x="267" y="-543.9" font-family="Arial" font-size="14.00" fill="#000000">permission_id </text>
<text text-anchor="start" x="357.2272" y="-543.9" font-family="Arial" font-size="14.00" fill="#666666">[int]</text>
<polygon fill="none" stroke="#000000" stroke-width="3" points="258.5,-531.5 258.5,-659.5 603.5,-659.5 603.5,-531.5 258.5,-531.5"/>
</g>
<!-- auth_user -->
<g id="node2" class="node">
<title>auth_user</title>
<polygon fill="#efefef" stroke="transparent" points="175,-372.5 175,-407.5 366,-407.5 366,-372.5 175,-372.5"/>
<polygon fill="none" stroke="#000000" points="175,-372.5 175,-407.5 366,-407.5 366,-372.5 175,-372.5"/>
<text text-anchor="start" x="181.8573" y="-385.3" font-family="Arial Bold" font-size="18.00" fill="#000000">auth_user</text>
<text text-anchor="start" x="261.8889" y="-385.3" font-family="Arial" font-size="14.00" fill="#000000"> </text>
<text text-anchor="start" x="265.7795" y="-385.3" font-family="Arial" font-size="14.00" fill="#666666">[BASE TABLE]</text>
<polygon fill="none" stroke="#000000" points="175,-342.5 175,-372.5 366,-372.5 366,-342.5 175,-342.5"/>
<text text-anchor="start" x="182" y="-353.9" font-family="Arial" font-size="14.00" fill="#000000">id </text>
<text text-anchor="start" x="196.7798" y="-353.9" font-family="Arial" font-size="14.00" fill="#666666">[int]</text>
<polygon fill="none" stroke="#000000" points="175,-312.5 175,-342.5 366,-342.5 366,-312.5 175,-312.5"/>
<text text-anchor="start" x="182" y="-323.9" font-family="Arial" font-size="14.00" fill="#000000">password </text>
<text text-anchor="start" x="245.7882" y="-323.9" font-family="Arial" font-size="14.00" fill="#666666">[varchar(128)]</text>
<polygon fill="none" stroke="#000000" points="175,-282.5 175,-312.5 366,-312.5 366,-282.5 175,-282.5"/>
<text text-anchor="start" x="182" y="-293.9" font-family="Arial" font-size="14.00" fill="#000000">last_login </text>
<text text-anchor="start" x="245.014" y="-293.9" font-family="Arial" font-size="14.00" fill="#666666">[datetime(6)]</text>
<polygon fill="none" stroke="#000000" points="175,-252.5 175,-282.5 366,-282.5 366,-252.5 175,-252.5"/>
<text text-anchor="start" x="182" y="-263.9" font-family="Arial" font-size="14.00" fill="#000000">is_superuser </text>
<text text-anchor="start" x="266.014" y="-263.9" font-family="Arial" font-size="14.00" fill="#666666">[tinyint(1)]</text>
<polygon fill="none" stroke="#000000" points="175,-222.5 175,-252.5 366,-252.5 366,-222.5 175,-222.5"/>
<text text-anchor="start" x="182" y="-233.9" font-family="Arial" font-size="14.00" fill="#000000">username </text>
<text text-anchor="start" x="248.1248" y="-233.9" font-family="Arial" font-size="14.00" fill="#666666">[varchar(150)]</text>
<polygon fill="none" stroke="#000000" points="175,-192.5 175,-222.5 366,-222.5 366,-192.5 175,-192.5"/>
<text text-anchor="start" x="182" y="-203.9" font-family="Arial" font-size="14.00" fill="#000000">first_name </text>
<text text-anchor="start" x="251.23" y="-203.9" font-family="Arial" font-size="14.00" fill="#666666">[varchar(30)]</text>
<polygon fill="none" stroke="#000000" points="175,-162.5 175,-192.5 366,-192.5 366,-162.5 175,-162.5"/>
<text text-anchor="start" x="182" y="-173.9" font-family="Arial" font-size="14.00" fill="#000000">last_name </text>
<text text-anchor="start" x="250.4614" y="-173.9" font-family="Arial" font-size="14.00" fill="#666666">[varchar(150)]</text>
<polygon fill="none" stroke="#000000" points="175,-132.5 175,-162.5 366,-162.5 366,-132.5 175,-132.5"/>
<text text-anchor="start" x="182" y="-143.9" font-family="Arial" font-size="14.00" fill="#000000">email </text>
<text text-anchor="start" x="219.3296" y="-143.9" font-family="Arial" font-size="14.00" fill="#666666">[varchar(254)]</text>
<polygon fill="none" stroke="#000000" points="175,-102.5 175,-132.5 366,-132.5 366,-102.5 175,-102.5"/>
<text text-anchor="start" x="182" y="-113.9" font-family="Arial" font-size="14.00" fill="#000000">is_staff </text>
<text text-anchor="start" x="230.2342" y="-113.9" font-family="Arial" font-size="14.00" fill="#666666">[tinyint(1)]</text>
<polygon fill="none" stroke="#000000" points="175,-72.5 175,-102.5 366,-102.5 366,-72.5 175,-72.5"/>
<text text-anchor="start" x="182" y="-83.9" font-family="Arial" font-size="14.00" fill="#000000">is_active </text>
<text text-anchor="start" x="240.3422" y="-83.9" font-family="Arial" font-size="14.00" fill="#666666">[tinyint(1)]</text>
<polygon fill="none" stroke="#000000" points="175,-42.5 175,-72.5 366,-72.5 366,-42.5 175,-42.5"/>
<text text-anchor="start" x="182" y="-53.9" font-family="Arial" font-size="14.00" fill="#000000">date_joined </text>
<text text-anchor="start" x="258.2552" y="-53.9" font-family="Arial" font-size="14.00" fill="#666666">[datetime(6)]</text>
</g>
<!-- auth_user_user_permissions&#45;&gt;auth_user -->
<g id="edge1" class="edge">
<title>auth_user_user_permissions:user_id&#45;&gt;auth_user:id</title>
<path fill="none" stroke="#000000" d="M249.8005,-575.9234C223.1215,-566.4497 238.8616,-516.5033 260,-487 288.9775,-446.5555 337.0225,-491.4445 366,-451 390.2026,-417.2199 407.5556,-357.5 366,-357.5"/>
<polygon fill="#000000" stroke="#000000" points="250.1174,-575.9723 259.3125,-581.9472 255.0587,-576.7362 260,-577.5 260,-577.5 260,-577.5 255.0587,-576.7362 260.6875,-573.0528 250.1174,-575.9723 250.1174,-575.9723"/>
<text text-anchor="start" x="6.9375" y="-587.5" font-family="Arial" font-size="10.00" fill="#000000">FOREIGN KEY (user_id) REFERENCES auth_user (id)</text>
</g>
<!-- auth_permission -->
<g id="node3" class="node">
<title>auth_permission</title>
<polygon fill="#efefef" stroke="transparent" points="470,-267.5 470,-302.5 713,-302.5 713,-267.5 470,-267.5"/>
<polygon fill="none" stroke="#000000" points="470,-267.5 470,-302.5 713,-302.5 713,-267.5 470,-267.5"/>
<text text-anchor="start" x="476.8608" y="-280.3" font-family="Arial Bold" font-size="18.00" fill="#000000">auth_permission</text>
<text text-anchor="start" x="608.8854" y="-280.3" font-family="Arial" font-size="14.00" fill="#000000"> </text>
<text text-anchor="start" x="612.776" y="-280.3" font-family="Arial" font-size="14.00" fill="#666666">[BASE TABLE]</text>
<polygon fill="none" stroke="#000000" points="470,-237.5 470,-267.5 713,-267.5 713,-237.5 470,-237.5"/>
<text text-anchor="start" x="477" y="-248.9" font-family="Arial" font-size="14.00" fill="#000000">id </text>
<text text-anchor="start" x="491.7798" y="-248.9" font-family="Arial" font-size="14.00" fill="#666666">[int]</text>
<polygon fill="none" stroke="#000000" points="470,-207.5 470,-237.5 713,-237.5 713,-207.5 470,-207.5"/>
<text text-anchor="start" x="477" y="-218.9" font-family="Arial" font-size="14.00" fill="#000000">name </text>
<text text-anchor="start" x="515.899" y="-218.9" font-family="Arial" font-size="14.00" fill="#666666">[varchar(255)]</text>
<polygon fill="none" stroke="#000000" points="470,-177.5 470,-207.5 713,-207.5 713,-177.5 470,-177.5"/>
<text text-anchor="start" x="477" y="-188.9" font-family="Arial" font-size="14.00" fill="#000000">content_type_id </text>
<text text-anchor="start" x="579.7124" y="-188.9" font-family="Arial" font-size="14.00" fill="#666666">[int]</text>
<polygon fill="none" stroke="#000000" points="470,-147.5 470,-177.5 713,-177.5 713,-147.5 470,-147.5"/>
<text text-anchor="start" x="477" y="-158.9" font-family="Arial" font-size="14.00" fill="#000000">codename </text>
<text text-anchor="start" x="546.2468" y="-158.9" font-family="Arial" font-size="14.00" fill="#666666">[varchar(100)]</text>
</g>
<!-- auth_user_user_permissions&#45;&gt;auth_permission -->
<g id="edge2" class="edge">
<title>auth_user_user_permissions:permission_id&#45;&gt;auth_permission:id</title>
<path fill="none" stroke="#000000" d="M611.9149,-544.8371C623.4995,-536.1365 610.2584,-507.9053 602,-487 570.4608,-407.1616 501.5392,-425.8384 470,-346 454.7321,-307.3509 428.4444,-252.5 470,-252.5"/>
<polygon fill="#000000" stroke="#000000" points="611.6577,-544.9061 600.8327,-543.154 606.8289,-546.203 602,-547.5 602,-547.5 602,-547.5 606.8289,-546.203 603.1673,-551.846 611.6577,-544.9061 611.6577,-544.9061"/>
<text text-anchor="start" x="609.0525" y="-557.5" font-family="Arial" font-size="10.00" fill="#000000">FOREIGN KEY (permission_id) REFERENCES auth_permission (id)</text>
</g>
</g>
</svg>
