<?xml version="1.0" encoding="UTF-8" standalone="no"?>
<!DOCTYPE svg PUBLIC "-//W3C//DTD SVG 1.1//EN"
 "http://www.w3.org/Graphics/SVG/1.1/DTD/svg11.dtd">
<!-- Generated by graphviz version 2.40.1 (20161225.0304)
 -->
<!-- Title: auth_user_groups Pages: 1 -->
<svg width="2008pt" height="412pt"
 viewBox="0.00 0.00 2008.00 412.00" xmlns="http://www.w3.org/2000/svg" xmlns:xlink="http://www.w3.org/1999/xlink">
<g id="graph0" class="graph" transform="scale(1 1) rotate(0) translate(4 408)">
<title>auth_user_groups</title>
<polygon fill="#ffffff" stroke="transparent" points="-4,4 -4,-408 2004,-408 2004,4 -4,4"/>
<!-- auth_user_groups -->
<g id="node1" class="node">
<title>auth_user_groups</title>
<polygon fill="#efefef" stroke="transparent" points="1286,-322.5 1286,-357.5 1542,-357.5 1542,-322.5 1286,-322.5"/>
<polygon fill="none" stroke="#000000" points="1286,-322.5 1286,-357.5 1542,-357.5 1542,-322.5 1286,-322.5"/>
<text text-anchor="start" x="1292.8457" y="-335.3" font-family="Arial Bold" font-size="18.00" fill="#000000">auth_user_groups</text>
<text text-anchor="start" x="1437.9005" y="-335.3" font-family="Arial" font-size="14.00" fill="#000000"> </text>
<text text-anchor="start" x="1441.7911" y="-335.3" font-family="Arial" font-size="14.00" fill="#666666">[BASE TABLE]</text>
<polygon fill="none" stroke="#000000" points="1286,-292.5 1286,-322.5 1542,-322.5 1542,-292.5 1286,-292.5"/>
<text text-anchor="start" x="1293" y="-303.9" font-family="Arial" font-size="14.00" fill="#000000">id </text>
<text text-anchor="start" x="1307.7798" y="-303.9" font-family="Arial" font-size="14.00" fill="#666666">[int]</text>
<polygon fill="none" stroke="#000000" points="1286,-262.5 1286,-292.5 1542,-292.5 1542,-262.5 1286,-262.5"/>
<text text-anchor="start" x="1293" y="-273.9" font-family="Arial" font-size="14.00" fill="#000000">user_id </text>
<text text-anchor="start" x="1342.7882" y="-273.9" font-family="Arial" font-size="14.00" fill="#666666">[int]</text>
<polygon fill="none" stroke="#000000" points="1286,-232.5 1286,-262.5 1542,-262.5 1542,-232.5 1286,-232.5"/>
<text text-anchor="start" x="1293" y="-243.9" font-family="Arial" font-size="14.00" fill="#000000">group_id </text>
<text text-anchor="start" x="1351.3534" y="-243.9" font-family="Arial" font-size="14.00" fill="#666666">[int]</text>
<polygon fill="none" stroke="#000000" stroke-width="3" points="1284.5,-231.5 1284.5,-359.5 1543.5,-359.5 1543.5,-231.5 1284.5,-231.5"/>
</g>
<!-- auth_user -->
<g id="node2" class="node">
<title>auth_user</title>
<polygon fill="#efefef" stroke="transparent" points="721,-72.5 721,-107.5 912,-107.5 912,-72.5 721,-72.5"/>
<polygon fill="none" stroke="#000000" points="721,-72.5 721,-107.5 912,-107.5 912,-72.5 721,-72.5"/>
<text text-anchor="start" x="727.8573" y="-85.3" font-family="Arial Bold" font-size="18.00" fill="#000000">auth_user</text>
<text text-anchor="start" x="807.8889" y="-85.3" font-family="Arial" font-size="14.00" fill="#000000"> </text>
<text text-anchor="start" x="811.7795" y="-85.3" font-family="Arial" font-size="14.00" fill="#666666">[BASE TABLE]</text>
<polygon fill="none" stroke="#000000" points="721,-42.5 721,-72.5 912,-72.5 912,-42.5 721,-42.5"/>
<text text-anchor="start" x="728" y="-53.9" font-family="Arial" font-size="14.00" fill="#000000">id </text>
<text text-anchor="start" x="742.7798" y="-53.9" font-family="Arial" font-size="14.00" fill="#666666">[int]</text>
</g>
<!-- auth_user_groups&#45;&gt;auth_user -->
<g id="edge1" class="edge">
<title>auth_user_groups:user_id&#45;&gt;auth_user:id</title>
<path fill="none" stroke="#000000" d="M1275.854,-276.3383C1243.0823,-267.8559 1263.9019,-215.0049 1231,-187 1114.4789,-87.8214 1065.015,-57.5 912,-57.5"/>
<polygon fill="#000000" stroke="#000000" points="1276.0649,-276.3624 1285.4881,-281.9708 1281.0325,-276.9312 1286,-277.5 1286,-277.5 1286,-277.5 1281.0325,-276.9312 1286.5119,-273.0292 1276.0649,-276.3624 1276.0649,-276.3624"/>
<text text-anchor="start" x="1292.9375" y="-287.5" font-family="Arial" font-size="10.00" fill="#000000">FOREIGN KEY (user_id) REFERENCES auth_user (id)</text>
</g>
<!-- auth_group -->
<g id="node6" class="node">
<title>auth_group</title>
<polygon fill="#efefef" stroke="transparent" points="1507,-72.5 1507,-107.5 1709,-107.5 1709,-72.5 1507,-72.5"/>
<polygon fill="none" stroke="#000000" points="1507,-72.5 1507,-107.5 1709,-107.5 1709,-72.5 1507,-72.5"/>
<text text-anchor="start" x="1513.8511" y="-85.3" font-family="Arial Bold" font-size="18.00" fill="#000000">auth_group</text>
<text text-anchor="start" x="1604.8951" y="-85.3" font-family="Arial" font-size="14.00" fill="#000000"> </text>
<text text-anchor="start" x="1608.7857" y="-85.3" font-family="Arial" font-size="14.00" fill="#666666">[BASE TABLE]</text>
<polygon fill="none" stroke="#000000" points="1507,-42.5 1507,-72.5 1709,-72.5 1709,-42.5 1507,-42.5"/>
<text text-anchor="start" x="1514" y="-53.9" font-family="Arial" font-size="14.00" fill="#000000">id </text>
<text text-anchor="start" x="1528.7798" y="-53.9" font-family="Arial" font-size="14.00" fill="#666666">[int]</text>
</g>
<!-- auth_user_groups&#45;&gt;auth_group -->
<g id="edge5" class="edge">
<title>auth_user_groups:group_id&#45;&gt;auth_group:id</title>
<path fill="none" stroke="#000000" d="M1551.9308,-244.8307C1563.5641,-236.1106 1550.4553,-207.8265 1542,-187 1533.6057,-166.3237 1515.3943,-171.6763 1507,-151 1491.3681,-112.4966 1465.4444,-57.5 1507,-57.5"/>
<polygon fill="#000000" stroke="#000000" points="1551.6572,-244.9042 1540.8319,-243.1542 1546.8286,-246.2021 1542,-247.5 1542,-247.5 1542,-247.5 1546.8286,-246.2021 1543.1681,-251.8458 1551.6572,-244.9042 1551.6572,-244.9042"/>
<text text-anchor="start" x="1548.8195" y="-257.5" font-family="Arial" font-size="10.00" fill="#000000">FOREIGN KEY (group_id) REFERENCES auth_group (id)</text>
</g>
<!-- auth_user_user_permissions -->
<g id="node3" class="node">
<title>auth_user_user_permissions</title>
<polygon fill="#efefef" stroke="transparent" points="43,-322.5 43,-357.5 385,-357.5 385,-322.5 43,-322.5"/>
<polygon fill="none" stroke="#000000" points="43,-322.5 43,-357.5 385,-357.5 385,-322.5 43,-322.5"/>
<text text-anchor="start" x="49.85" y="-335.3" font-family="Arial Bold" font-size="18.00" fill="#000000">auth_user_user_permissions</text>
<text text-anchor="start" x="280.8962" y="-335.3" font-family="Arial" font-size="14.00" fill="#000000"> </text>
<text text-anchor="start" x="284.7868" y="-335.3" font-family="Arial" font-size="14.00" fill="#666666">[BASE TABLE]</text>
<polygon fill="none" stroke="#000000" points="43,-292.5 43,-322.5 385,-322.5 385,-292.5 43,-292.5"/>
<text text-anchor="start" x="50" y="-303.9" font-family="Arial" font-size="14.00" fill="#000000">id </text>
<text text-anchor="start" x="64.7798" y="-303.9" font-family="Arial" font-size="14.00" fill="#666666">[int]</text>
<polygon fill="none" stroke="#000000" points="43,-262.5 43,-292.5 385,-292.5 385,-262.5 43,-262.5"/>
<text text-anchor="start" x="50" y="-273.9" font-family="Arial" font-size="14.00" fill="#000000">user_id </text>
<text text-anchor="start" x="99.7882" y="-273.9" font-family="Arial" font-size="14.00" fill="#666666">[int]</text>
<polygon fill="none" stroke="#000000" points="43,-232.5 43,-262.5 385,-262.5 385,-232.5 43,-232.5"/>
<text text-anchor="start" x="50" y="-243.9" font-family="Arial" font-size="14.00" fill="#000000">permission_id </text>
<text text-anchor="start" x="140.2272" y="-243.9" font-family="Arial" font-size="14.00" fill="#666666">[int]</text>
</g>
<!-- auth_user_user_permissions&#45;&gt;auth_user -->
<g id="edge2" class="edge">
<title>auth_user_user_permissions:user_id&#45;&gt;auth_user:id</title>
<path fill="none" stroke="#000000" d="M394.9766,-276.3517C427.1058,-267.9647 405.5115,-215.668 437,-187 539.58,-93.6082 582.2748,-57.5 721,-57.5"/>
<polygon fill="#000000" stroke="#000000" points="394.9344,-276.3565 384.4854,-273.0295 389.9672,-276.9282 385,-277.5 385,-277.5 385,-277.5 389.9672,-276.9282 385.5146,-281.9705 394.9344,-276.3565 394.9344,-276.3565"/>
<text text-anchor="start" x="391.9375" y="-287.5" font-family="Arial" font-size="10.00" fill="#000000">FOREIGN KEY (user_id) REFERENCES auth_user (id)</text>
</g>
<!-- django_admin_log -->
<g id="node4" class="node">
<title>django_admin_log</title>
<polygon fill="#efefef" stroke="transparent" points="489,-322.5 489,-357.5 747,-357.5 747,-322.5 489,-322.5"/>
<polygon fill="none" stroke="#000000" points="489,-322.5 489,-357.5 747,-357.5 747,-322.5 489,-322.5"/>
<text text-anchor="start" x="495.8485" y="-335.3" font-family="Arial Bold" font-size="18.00" fill="#000000">django_admin_log</text>
<text text-anchor="start" x="642.8977" y="-335.3" font-family="Arial" font-size="14.00" fill="#000000"> </text>
<text text-anchor="start" x="646.7883" y="-335.3" font-family="Arial" font-size="14.00" fill="#666666">[BASE TABLE]</text>
<polygon fill="none" stroke="#000000" points="489,-292.5 489,-322.5 747,-322.5 747,-292.5 489,-292.5"/>
<text text-anchor="start" x="496" y="-303.9" font-family="Arial" font-size="14.00" fill="#000000">id </text>
<text text-anchor="start" x="510.7798" y="-303.9" font-family="Arial" font-size="14.00" fill="#666666">[int]</text>
<polygon fill="none" stroke="#000000" points="489,-262.5 489,-292.5 747,-292.5 747,-262.5 489,-262.5"/>
<text text-anchor="start" x="496" y="-273.9" font-family="Arial" font-size="14.00" fill="#000000">content_type_id </text>
<text text-anchor="start" x="598.7124" y="-273.9" font-family="Arial" font-size="14.00" fill="#666666">[int]</text>
<polygon fill="none" stroke="#000000" points="489,-232.5 489,-262.5 747,-262.5 747,-232.5 489,-232.5"/>
<text text-anchor="start" x="496" y="-243.9" font-family="Arial" font-size="14.00" fill="#000000">user_id </text>
<text text-anchor="start" x="545.7882" y="-243.9" font-family="Arial" font-size="14.00" fill="#666666">[int]</text>
</g>
<!-- django_admin_log&#45;&gt;auth_user -->
<g id="edge3" class="edge">
<title>django_admin_log:user_id&#45;&gt;auth_user:id</title>
<path fill="none" stroke="#000000" d="M756.8585,-244.541C766.3798,-235.903 753.0749,-210.064 747,-190 740.9632,-170.0618 727.0368,-170.9382 721,-151 708.9579,-111.2275 679.4444,-57.5 721,-57.5"/>
<polygon fill="#000000" stroke="#000000" points="756.5779,-244.6252 745.7063,-243.1899 751.7889,-246.0626 747,-247.5 747,-247.5 747,-247.5 751.7889,-246.0626 748.2937,-251.8101 756.5779,-244.6252 756.5779,-244.6252"/>
<text text-anchor="start" x="623.9375" y="-231.5" font-family="Arial" font-size="10.00" fill="#000000">FOREIGN KEY (user_id) REFERENCES auth_user (id)</text>
</g>
<!-- social_auth_usersocialauth -->
<g id="node5" class="node">
<title>social_auth_usersocialauth</title>
<polygon fill="#efefef" stroke="transparent" points="851,-307.5 851,-342.5 1179,-342.5 1179,-307.5 851,-307.5"/>
<polygon fill="none" stroke="#000000" points="851,-307.5 851,-342.5 1179,-342.5 1179,-307.5 851,-307.5"/>
<text text-anchor="start" x="857.843" y="-320.3" font-family="Arial Bold" font-size="18.00" fill="#000000">social_auth_usersocialauth</text>
<text text-anchor="start" x="1074.9032" y="-320.3" font-family="Arial" font-size="14.00" fill="#000000"> </text>
<text text-anchor="start" x="1078.7938" y="-320.3" font-family="Arial" font-size="14.00" fill="#666666">[BASE TABLE]</text>
<polygon fill="none" stroke="#000000" points="851,-277.5 851,-307.5 1179,-307.5 1179,-277.5 851,-277.5"/>
<text text-anchor="start" x="858" y="-288.9" font-family="Arial" font-size="14.00" fill="#000000">id </text>
<text text-anchor="start" x="872.7798" y="-288.9" font-family="Arial" font-size="14.00" fill="#666666">[int]</text>
<polygon fill="none" stroke="#000000" points="851,-247.5 851,-277.5 1179,-277.5 1179,-247.5 851,-247.5"/>
<text text-anchor="start" x="858" y="-258.9" font-family="Arial" font-size="14.00" fill="#000000">user_id </text>
<text text-anchor="start" x="907.7882" y="-258.9" font-family="Arial" font-size="14.00" fill="#666666">[int]</text>
</g>
<!-- social_auth_usersocialauth&#45;&gt;auth_user -->
<g id="edge4" class="edge">
<title>social_auth_usersocialauth:user_id&#45;&gt;auth_user:id</title>
<path fill="none" stroke="#000000" d="M841.1932,-259.6982C830.4873,-251.0663 842.3107,-224.2971 851,-205 865.8664,-171.9848 897.1336,-184.0152 912,-151 929.0621,-113.1087 953.5556,-57.5 912,-57.5"/>
<polygon fill="#000000" stroke="#000000" points="841.3847,-259.7529 849.7638,-266.8269 846.1924,-261.1264 851,-262.5 851,-262.5 851,-262.5 846.1924,-261.1264 852.2362,-258.1731 841.3847,-259.7529 841.3847,-259.7529"/>
<text text-anchor="start" x="857.9375" y="-272.5" font-family="Arial" font-size="10.00" fill="#000000">FOREIGN KEY (user_id) REFERENCES auth_user (id)</text>
</g>
<!-- auth_group_permissions -->
<g id="node7" class="node">
<title>auth_group_permissions</title>
<polygon fill="#efefef" stroke="transparent" points="1649,-322.5 1649,-357.5 1957,-357.5 1957,-322.5 1649,-322.5"/>
<polygon fill="none" stroke="#000000" points="1649,-322.5 1649,-357.5 1957,-357.5 1957,-322.5 1649,-322.5"/>
<text text-anchor="start" x="1655.8492" y="-335.3" font-family="Arial Bold" font-size="18.00" fill="#000000">auth_group_permissions</text>
<text text-anchor="start" x="1852.897" y="-335.3" font-family="Arial" font-size="14.00" fill="#000000"> </text>
<text text-anchor="start" x="1856.7876" y="-335.3" font-family="Arial" font-size="14.00" fill="#666666">[BASE TABLE]</text>
<polygon fill="none" stroke="#000000" points="1649,-292.5 1649,-322.5 1957,-322.5 1957,-292.5 1649,-292.5"/>
<text text-anchor="start" x="1656" y="-303.9" font-family="Arial" font-size="14.00" fill="#000000">id </text>
<text text-anchor="start" x="1670.7798" y="-303.9" font-family="Arial" font-size="14.00" fill="#666666">[int]</text>
<polygon fill="none" stroke="#000000" points="1649,-262.5 1649,-292.5 1957,-292.5 1957,-262.5 1649,-262.5"/>
<text text-anchor="start" x="1656" y="-273.9" font-family="Arial" font-size="14.00" fill="#000000">group_id </text>
<text text-anchor="start" x="1714.3534" y="-273.9" font-family="Arial" font-size="14.00" fill="#666666">[int]</text>
<polygon fill="none" stroke="#000000" points="1649,-232.5 1649,-262.5 1957,-262.5 1957,-232.5 1649,-232.5"/>
<text text-anchor="start" x="1656" y="-243.9" font-family="Arial" font-size="14.00" fill="#000000">permission_id </text>
<text text-anchor="start" x="1746.2272" y="-243.9" font-family="Arial" font-size="14.00" fill="#666666">[int]</text>
</g>
<!-- auth_group_permissions&#45;&gt;auth_group -->
<g id="edge6" class="edge">
<title>auth_group_permissions:group_id&#45;&gt;auth_group:id</title>
<path fill="none" stroke="#000000" d="M1638.9199,-275.9259C1614.2242,-266.8668 1632.3348,-220.7087 1649,-190 1664.1702,-162.0461 1693.8298,-178.9539 1709,-151 1728.821,-114.4761 1750.5556,-57.5 1709,-57.5"/>
<polygon fill="#000000" stroke="#000000" points="1639.1197,-275.9571 1648.3057,-281.9461 1644.0599,-276.7285 1649,-277.5 1649,-277.5 1649,-277.5 1644.0599,-276.7285 1649.6943,-273.0539 1639.1197,-275.9571 1639.1197,-275.9571"/>
<text text-anchor="start" x="1655.8195" y="-287.5" font-family="Arial" font-size="10.00" fill="#000000">FOREIGN KEY (group_id) REFERENCES auth_group (id)</text>
</g>
</g>
</svg>
