<?xml version="1.0" encoding="UTF-8" standalone="no"?>
<!DOCTYPE svg PUBLIC "-//W3C//DTD SVG 1.1//EN"
 "http://www.w3.org/Graphics/SVG/1.1/DTD/svg11.dtd">
<!-- Generated by graphviz version 2.40.1 (20161225.0304)
 -->
<!-- Title: auth_user_groups Pages: 1 -->
<svg width="796pt" height="712pt"
 viewBox="0.00 0.00 796.00 712.00" xmlns="http://www.w3.org/2000/svg" xmlns:xlink="http://www.w3.org/1999/xlink">
<g id="graph0" class="graph" transform="scale(1 1) rotate(0) translate(4 708)">
<title>auth_user_groups</title>
<polygon fill="#ffffff" stroke="transparent" points="-4,4 -4,-708 792,-708 792,4 -4,4"/>
<!-- auth_user_groups -->
<g id="node1" class="node">
<title>auth_user_groups</title>
<polygon fill="#efefef" stroke="transparent" points="260,-622.5 260,-657.5 516,-657.5 516,-622.5 260,-622.5"/>
<polygon fill="none" stroke="#000000" points="260,-622.5 260,-657.5 516,-657.5 516,-622.5 260,-622.5"/>
<text text-anchor="start" x="266.8457" y="-635.3" font-family="Arial Bold" font-size="18.00" fill="#000000">auth_user_groups</text>
<text text-anchor="start" x="411.9005" y="-635.3" font-family="Arial" font-size="14.00" fill="#000000"> </text>
<text text-anchor="start" x="415.7911" y="-635.3" font-family="Arial" font-size="14.00" fill="#666666">[BASE TABLE]</text>
<polygon fill="none" stroke="#000000" points="260,-592.5 260,-622.5 516,-622.5 516,-592.5 260,-592.5"/>
<text text-anchor="start" x="267" y="-603.9" font-family="Arial" font-size="14.00" fill="#000000">id </text>
<text text-anchor="start" x="281.7798" y="-603.9" font-family="Arial" font-size="14.00" fill="#666666">[int]</text>
<polygon fill="none" stroke="#000000" points="260,-562.5 260,-592.5 516,-592.5 516,-562.5 260,-562.5"/>
<text text-anchor="start" x="267" y="-573.9" font-family="Arial" font-size="14.00" fill="#000000">user_id </text>
<text text-anchor="start" x="316.7882" y="-573.9" font-family="Arial" font-size="14.00" fill="#666666">[int]</text>
<polygon fill="none" stroke="#000000" points="260,-532.5 260,-562.5 516,-562.5 516,-532.5 260,-532.5"/>
<text text-anchor="start" x="267" y="-543.9" font-family="Arial" font-size="14.00" fill="#000000">group_id </text>
<text text-anchor="start" x="325.3534" y="-543.9" font-family="Arial" font-size="14.00" fill="#666666">[int]</text>
<polygon fill="none" stroke="#000000" stroke-width="3" points="258.5,-531.5 258.5,-659.5 517.5,-659.5 517.5,-531.5 258.5,-531.5"/>
</g>
<!-- auth_user -->
<g id="node2" class="node">
<title>auth_user</title>
<polygon fill="#efefef" stroke="transparent" points="142,-372.5 142,-407.5 333,-407.5 333,-372.5 142,-372.5"/>
<polygon fill="none" stroke="#000000" points="142,-372.5 142,-407.5 333,-407.5 333,-372.5 142,-372.5"/>
<text text-anchor="start" x="148.8573" y="-385.3" font-family="Arial Bold" font-size="18.00" fill="#000000">auth_user</text>
<text text-anchor="start" x="228.8889" y="-385.3" font-family="Arial" font-size="14.00" fill="#000000"> </text>
<text text-anchor="start" x="232.7795" y="-385.3" font-family="Arial" font-size="14.00" fill="#666666">[BASE TABLE]</text>
<polygon fill="none" stroke="#000000" points="142,-342.5 142,-372.5 333,-372.5 333,-342.5 142,-342.5"/>
<text text-anchor="start" x="149" y="-353.9" font-family="Arial" font-size="14.00" fill="#000000">id </text>
<text text-anchor="start" x="163.7798" y="-353.9" font-family="Arial" font-size="14.00" fill="#666666">[int]</text>
<polygon fill="none" stroke="#000000" points="142,-312.5 142,-342.5 333,-342.5 333,-312.5 142,-312.5"/>
<text text-anchor="start" x="149" y="-323.9" font-family="Arial" font-size="14.00" fill="#000000">password </text>
<text text-anchor="start" x="212.7882" y="-323.9" font-family="Arial" font-size="14.00" fill="#666666">[varchar(128)]</text>
<polygon fill="none" stroke="#000000" points="142,-282.5 142,-312.5 333,-312.5 333,-282.5 142,-282.5"/>
<text text-anchor="start" x="149" y="-293.9" font-family="Arial" font-size="14.00" fill="#000000">last_login </text>
<text text-anchor="start" x="212.014" y="-293.9" font-family="Arial" font-size="14.00" fill="#666666">[datetime(6)]</text>
<polygon fill="none" stroke="#000000" points="142,-252.5 142,-282.5 333,-282.5 333,-252.5 142,-252.5"/>
<text text-anchor="start" x="149" y="-263.9" font-family="Arial" font-size="14.00" fill="#000000">is_superuser </text>
<text text-anchor="start" x="233.014" y="-263.9" font-family="Arial" font-size="14.00" fill="#666666">[tinyint(1)]</text>
<polygon fill="none" stroke="#000000" points="142,-222.5 142,-252.5 333,-252.5 333,-222.5 142,-222.5"/>
<text text-anchor="start" x="149" y="-233.9" font-family="Arial" font-size="14.00" fill="#000000">username </text>
<text text-anchor="start" x="215.1248" y="-233.9" font-family="Arial" font-size="14.00" fill="#666666">[varchar(150)]</text>
<polygon fill="none" stroke="#000000" points="142,-192.5 142,-222.5 333,-222.5 333,-192.5 142,-192.5"/>
<text text-anchor="start" x="149" y="-203.9" font-family="Arial" font-size="14.00" fill="#000000">first_name </text>
<text text-anchor="start" x="218.23" y="-203.9" font-family="Arial" font-size="14.00" fill="#666666">[varchar(30)]</text>
<polygon fill="none" stroke="#000000" points="142,-162.5 142,-192.5 333,-192.5 333,-162.5 142,-162.5"/>
<text text-anchor="start" x="149" y="-173.9" font-family="Arial" font-size="14.00" fill="#000000">last_name </text>
<text text-anchor="start" x="217.4614" y="-173.9" font-family="Arial" font-size="14.00" fill="#666666">[varchar(150)]</text>
<polygon fill="none" stroke="#000000" points="142,-132.5 142,-162.5 333,-162.5 333,-132.5 142,-132.5"/>
<text text-anchor="start" x="149" y="-143.9" font-family="Arial" font-size="14.00" fill="#000000">email </text>
<text text-anchor="start" x="186.3296" y="-143.9" font-family="Arial" font-size="14.00" fill="#666666">[varchar(254)]</text>
<polygon fill="none" stroke="#000000" points="142,-102.5 142,-132.5 333,-132.5 333,-102.5 142,-102.5"/>
<text text-anchor="start" x="149" y="-113.9" font-family="Arial" font-size="14.00" fill="#000000">is_staff </text>
<text text-anchor="start" x="197.2342" y="-113.9" font-family="Arial" font-size="14.00" fill="#666666">[tinyint(1)]</text>
<polygon fill="none" stroke="#000000" points="142,-72.5 142,-102.5 333,-102.5 333,-72.5 142,-72.5"/>
<text text-anchor="start" x="149" y="-83.9" font-family="Arial" font-size="14.00" fill="#000000">is_active </text>
<text text-anchor="start" x="207.3422" y="-83.9" font-family="Arial" font-size="14.00" fill="#666666">[tinyint(1)]</text>
<polygon fill="none" stroke="#000000" points="142,-42.5 142,-72.5 333,-72.5 333,-42.5 142,-42.5"/>
<text text-anchor="start" x="149" y="-53.9" font-family="Arial" font-size="14.00" fill="#000000">date_joined </text>
<text text-anchor="start" x="225.2552" y="-53.9" font-family="Arial" font-size="14.00" fill="#666666">[datetime(6)]</text>
</g>
<!-- auth_user_groups&#45;&gt;auth_user -->
<g id="edge1" class="edge">
<title>auth_user_groups:user_id&#45;&gt;auth_user:id</title>
<path fill="none" stroke="#000000" d="M249.857,-575.9611C223.5068,-566.7071 240.8342,-517.8212 260,-487 279.1029,-456.2799 313.8971,-481.7201 333,-451 354.9441,-415.7109 374.5556,-357.5 333,-357.5"/>
<polygon fill="#000000" stroke="#000000" points="250.1131,-575.9999 259.325,-581.9491 255.0566,-576.75 260,-577.5 260,-577.5 260,-577.5 255.0566,-576.75 260.675,-573.0509 250.1131,-575.9999 250.1131,-575.9999"/>
<text text-anchor="start" x="6.9375" y="-587.5" font-family="Arial" font-size="10.00" fill="#000000">FOREIGN KEY (user_id) REFERENCES auth_user (id)</text>
</g>
<!-- auth_group -->
<g id="node3" class="node">
<title>auth_group</title>
<polygon fill="#efefef" stroke="transparent" points="437,-237.5 437,-272.5 639,-272.5 639,-237.5 437,-237.5"/>
<polygon fill="none" stroke="#000000" points="437,-237.5 437,-272.5 639,-272.5 639,-237.5 437,-237.5"/>
<text text-anchor="start" x="443.8511" y="-250.3" font-family="Arial Bold" font-size="18.00" fill="#000000">auth_group</text>
<text text-anchor="start" x="534.8951" y="-250.3" font-family="Arial" font-size="14.00" fill="#000000"> </text>
<text text-anchor="start" x="538.7857" y="-250.3" font-family="Arial" font-size="14.00" fill="#666666">[BASE TABLE]</text>
<polygon fill="none" stroke="#000000" points="437,-207.5 437,-237.5 639,-237.5 639,-207.5 437,-207.5"/>
<text text-anchor="start" x="444" y="-218.9" font-family="Arial" font-size="14.00" fill="#000000">id </text>
<text text-anchor="start" x="458.7798" y="-218.9" font-family="Arial" font-size="14.00" fill="#666666">[int]</text>
<polygon fill="none" stroke="#000000" points="437,-177.5 437,-207.5 639,-207.5 639,-177.5 437,-177.5"/>
<text text-anchor="start" x="444" y="-188.9" font-family="Arial" font-size="14.00" fill="#000000">name </text>
<text text-anchor="start" x="482.899" y="-188.9" font-family="Arial" font-size="14.00" fill="#666666">[varchar(150)]</text>
</g>
<!-- auth_user_groups&#45;&gt;auth_group -->
<g id="edge2" class="edge">
<title>auth_user_groups:group_id&#45;&gt;auth_group:id</title>
<path fill="none" stroke="#000000" d="M526.3249,-546.8821C645.8799,-531.2056 292.1238,-222.5 437,-222.5"/>
<polygon fill="#000000" stroke="#000000" points="525.9821,-546.9025 515.7311,-543.008 520.9911,-547.2012 516,-547.5 516,-547.5 516,-547.5 520.9911,-547.2012 516.2689,-551.992 525.9821,-546.9025 525.9821,-546.9025"/>
<text text-anchor="start" x="522.8195" y="-557.5" font-family="Arial" font-size="10.00" fill="#000000">FOREIGN KEY (group_id) REFERENCES auth_group (id)</text>
</g>
</g>
</svg>
