<?xml version="1.0" encoding="UTF-8" standalone="no"?>
<!DOCTYPE svg PUBLIC "-//W3C//DTD SVG 1.1//EN"
 "http://www.w3.org/Graphics/SVG/1.1/DTD/svg11.dtd">
<!-- Generated by graphviz version 2.40.1 (20161225.0304)
 -->
<!-- Title: auth_permission Pages: 1 -->
<svg width="886pt" height="749pt"
 viewBox="0.00 0.00 886.00 749.00" xmlns="http://www.w3.org/2000/svg" xmlns:xlink="http://www.w3.org/1999/xlink">
<g id="graph0" class="graph" transform="scale(1 1) rotate(0) translate(4 745)">
<title>auth_permission</title>
<polygon fill="#ffffff" stroke="transparent" points="-4,4 -4,-745 882,-745 882,4 -4,4"/>
<!-- auth_permission -->
<g id="node1" class="node">
<title>auth_permission</title>
<polygon fill="#efefef" stroke="transparent" points="289,-412.5 289,-447.5 532,-447.5 532,-412.5 289,-412.5"/>
<polygon fill="none" stroke="#000000" points="289,-412.5 289,-447.5 532,-447.5 532,-412.5 289,-412.5"/>
<text text-anchor="start" x="295.8608" y="-425.3" font-family="Arial Bold" font-size="18.00" fill="#000000">auth_permission</text>
<text text-anchor="start" x="427.8854" y="-425.3" font-family="Arial" font-size="14.00" fill="#000000"> </text>
<text text-anchor="start" x="431.776" y="-425.3" font-family="Arial" font-size="14.00" fill="#666666">[BASE TABLE]</text>
<polygon fill="none" stroke="#000000" points="289,-382.5 289,-412.5 532,-412.5 532,-382.5 289,-382.5"/>
<text text-anchor="start" x="296" y="-393.9" font-family="Arial" font-size="14.00" fill="#000000">id </text>
<text text-anchor="start" x="310.7798" y="-393.9" font-family="Arial" font-size="14.00" fill="#666666">[int]</text>
<polygon fill="none" stroke="#000000" points="289,-352.5 289,-382.5 532,-382.5 532,-352.5 289,-352.5"/>
<text text-anchor="start" x="296" y="-363.9" font-family="Arial" font-size="14.00" fill="#000000">name </text>
<text text-anchor="start" x="334.899" y="-363.9" font-family="Arial" font-size="14.00" fill="#666666">[varchar(255)]</text>
<polygon fill="none" stroke="#000000" points="289,-322.5 289,-352.5 532,-352.5 532,-322.5 289,-322.5"/>
<text text-anchor="start" x="296" y="-333.9" font-family="Arial" font-size="14.00" fill="#000000">content_type_id </text>
<text text-anchor="start" x="398.7124" y="-333.9" font-family="Arial" font-size="14.00" fill="#666666">[int]</text>
<polygon fill="none" stroke="#000000" points="289,-292.5 289,-322.5 532,-322.5 532,-292.5 289,-292.5"/>
<text text-anchor="start" x="296" y="-303.9" font-family="Arial" font-size="14.00" fill="#000000">codename </text>
<text text-anchor="start" x="365.2468" y="-303.9" font-family="Arial" font-size="14.00" fill="#666666">[varchar(100)]</text>
<polygon fill="none" stroke="#000000" stroke-width="3" points="287,-291.5 287,-449.5 533,-449.5 533,-291.5 287,-291.5"/>
</g>
<!-- django_content_type -->
<g id="node4" class="node">
<title>django_content_type</title>
<polygon fill="#efefef" stroke="transparent" points="272,-132.5 272,-167.5 550,-167.5 550,-132.5 272,-132.5"/>
<polygon fill="none" stroke="#000000" points="272,-132.5 272,-167.5 550,-167.5 550,-132.5 272,-132.5"/>
<text text-anchor="start" x="278.8324" y="-145.3" font-family="Arial Bold" font-size="18.00" fill="#000000">django_content_type</text>
<text text-anchor="start" x="445.9138" y="-145.3" font-family="Arial" font-size="14.00" fill="#000000"> </text>
<text text-anchor="start" x="449.8044" y="-145.3" font-family="Arial" font-size="14.00" fill="#666666">[BASE TABLE]</text>
<polygon fill="none" stroke="#000000" points="272,-102.5 272,-132.5 550,-132.5 550,-102.5 272,-102.5"/>
<text text-anchor="start" x="279" y="-113.9" font-family="Arial" font-size="14.00" fill="#000000">id </text>
<text text-anchor="start" x="293.7798" y="-113.9" font-family="Arial" font-size="14.00" fill="#666666">[int]</text>
<polygon fill="none" stroke="#000000" points="272,-72.5 272,-102.5 550,-102.5 550,-72.5 272,-72.5"/>
<text text-anchor="start" x="279" y="-83.9" font-family="Arial" font-size="14.00" fill="#000000">app_label </text>
<text text-anchor="start" x="343.582" y="-83.9" font-family="Arial" font-size="14.00" fill="#666666">[varchar(100)]</text>
<polygon fill="none" stroke="#000000" points="272,-42.5 272,-72.5 550,-72.5 550,-42.5 272,-42.5"/>
<text text-anchor="start" x="279" y="-53.9" font-family="Arial" font-size="14.00" fill="#000000">model </text>
<text text-anchor="start" x="321.0056" y="-53.9" font-family="Arial" font-size="14.00" fill="#666666">[varchar(100)]</text>
</g>
<!-- auth_permission&#45;&gt;django_content_type -->
<g id="edge3" class="edge">
<title>auth_permission:content_type_id&#45;&gt;django_content_type:id</title>
<path fill="none" stroke="#000000" d="M541.9221,-335.9876C569.5233,-326.4802 555.9423,-274.4858 532,-247 455.3757,-159.0352 348.6243,-298.9648 272,-211 244.7051,-179.6654 230.4444,-117.5 272,-117.5"/>
<polygon fill="#000000" stroke="#000000" points="541.8858,-335.9931 531.3219,-333.0514 536.9429,-336.7465 532,-337.5 532,-337.5 532,-337.5 536.9429,-336.7465 532.6781,-341.9486 541.8858,-335.9931 541.8858,-335.9931"/>
<text text-anchor="start" x="538.8555" y="-347.5" font-family="Arial" font-size="10.00" fill="#000000">FOREIGN KEY (content_type_id) REFERENCES django_content_type (id)</text>
</g>
<!-- auth_group_permissions -->
<g id="node2" class="node">
<title>auth_group_permissions</title>
<polygon fill="#efefef" stroke="transparent" points="43,-662.5 43,-697.5 351,-697.5 351,-662.5 43,-662.5"/>
<polygon fill="none" stroke="#000000" points="43,-662.5 43,-697.5 351,-697.5 351,-662.5 43,-662.5"/>
<text text-anchor="start" x="49.8492" y="-675.3" font-family="Arial Bold" font-size="18.00" fill="#000000">auth_group_permissions</text>
<text text-anchor="start" x="246.897" y="-675.3" font-family="Arial" font-size="14.00" fill="#000000"> </text>
<text text-anchor="start" x="250.7876" y="-675.3" font-family="Arial" font-size="14.00" fill="#666666">[BASE TABLE]</text>
<polygon fill="none" stroke="#000000" points="43,-632.5 43,-662.5 351,-662.5 351,-632.5 43,-632.5"/>
<text text-anchor="start" x="50" y="-643.9" font-family="Arial" font-size="14.00" fill="#000000">id </text>
<text text-anchor="start" x="64.7798" y="-643.9" font-family="Arial" font-size="14.00" fill="#666666">[int]</text>
<polygon fill="none" stroke="#000000" points="43,-602.5 43,-632.5 351,-632.5 351,-602.5 43,-602.5"/>
<text text-anchor="start" x="50" y="-613.9" font-family="Arial" font-size="14.00" fill="#000000">group_id </text>
<text text-anchor="start" x="108.3534" y="-613.9" font-family="Arial" font-size="14.00" fill="#666666">[int]</text>
<polygon fill="none" stroke="#000000" points="43,-572.5 43,-602.5 351,-602.5 351,-572.5 43,-572.5"/>
<text text-anchor="start" x="50" y="-583.9" font-family="Arial" font-size="14.00" fill="#000000">permission_id </text>
<text text-anchor="start" x="140.2272" y="-583.9" font-family="Arial" font-size="14.00" fill="#666666">[int]</text>
</g>
<!-- auth_group_permissions&#45;&gt;auth_permission -->
<g id="edge1" class="edge">
<title>auth_group_permissions:permission_id&#45;&gt;auth_permission:id</title>
<path fill="none" stroke="#000000" d="M360.6502,-584.8597C372.3554,-576.2554 361.6586,-548.5139 351,-530 335.1021,-502.3854 304.8979,-521.6146 289,-494 267.6014,-456.8307 246.1111,-397.5 289,-397.5"/>
<polygon fill="#000000" stroke="#000000" points="360.6455,-584.8609 349.8124,-583.1595 355.8228,-586.1805 351,-587.5 351,-587.5 351,-587.5 355.8228,-586.1805 352.1876,-591.8405 360.6455,-584.8609 360.6455,-584.8609"/>
<text text-anchor="start" x="358.0525" y="-597.5" font-family="Arial" font-size="10.00" fill="#000000">FOREIGN KEY (permission_id) REFERENCES auth_permission (id)</text>
</g>
<!-- auth_user_user_permissions -->
<g id="node3" class="node">
<title>auth_user_user_permissions</title>
<polygon fill="#efefef" stroke="transparent" points="455,-662.5 455,-697.5 797,-697.5 797,-662.5 455,-662.5"/>
<polygon fill="none" stroke="#000000" points="455,-662.5 455,-697.5 797,-697.5 797,-662.5 455,-662.5"/>
<text text-anchor="start" x="461.85" y="-675.3" font-family="Arial Bold" font-size="18.00" fill="#000000">auth_user_user_permissions</text>
<text text-anchor="start" x="692.8962" y="-675.3" font-family="Arial" font-size="14.00" fill="#000000"> </text>
<text text-anchor="start" x="696.7868" y="-675.3" font-family="Arial" font-size="14.00" fill="#666666">[BASE TABLE]</text>
<polygon fill="none" stroke="#000000" points="455,-632.5 455,-662.5 797,-662.5 797,-632.5 455,-632.5"/>
<text text-anchor="start" x="462" y="-643.9" font-family="Arial" font-size="14.00" fill="#000000">id </text>
<text text-anchor="start" x="476.7798" y="-643.9" font-family="Arial" font-size="14.00" fill="#666666">[int]</text>
<polygon fill="none" stroke="#000000" points="455,-602.5 455,-632.5 797,-632.5 797,-602.5 455,-602.5"/>
<text text-anchor="start" x="462" y="-613.9" font-family="Arial" font-size="14.00" fill="#000000">user_id </text>
<text text-anchor="start" x="511.7882" y="-613.9" font-family="Arial" font-size="14.00" fill="#666666">[int]</text>
<polygon fill="none" stroke="#000000" points="455,-572.5 455,-602.5 797,-602.5 797,-572.5 455,-572.5"/>
<text text-anchor="start" x="462" y="-583.9" font-family="Arial" font-size="14.00" fill="#000000">permission_id </text>
<text text-anchor="start" x="552.2272" y="-583.9" font-family="Arial" font-size="14.00" fill="#666666">[int]</text>
</g>
<!-- auth_user_user_permissions&#45;&gt;auth_permission -->
<g id="edge2" class="edge">
<title>auth_user_user_permissions:permission_id&#45;&gt;auth_permission:id</title>
<path fill="none" stroke="#000000" d="M445.2844,-584.8201C433.3787,-576.0943 443.5308,-548.023 455,-530 475.282,-498.1283 511.718,-525.8717 532,-494 555.026,-457.8163 574.8889,-397.5 532,-397.5"/>
<polygon fill="#000000" stroke="#000000" points="445.36,-584.8409 453.8034,-591.838 450.18,-586.1704 455,-587.5 455,-587.5 455,-587.5 450.18,-586.1704 456.1966,-583.162 445.36,-584.8409 445.36,-584.8409"/>
<text text-anchor="start" x="462.0525" y="-571.5" font-family="Arial" font-size="10.00" fill="#000000">FOREIGN KEY (permission_id) REFERENCES auth_permission (id)</text>
</g>
</g>
</svg>
