<?xml version="1.0" encoding="UTF-8" standalone="no"?>
<!DOCTYPE svg PUBLIC "-//W3C//DTD SVG 1.1//EN"
 "http://www.w3.org/Graphics/SVG/1.1/DTD/svg11.dtd">
<!-- Generated by graphviz version 2.40.1 (20161225.0304)
 -->
<!-- Title: auth_group_permissions Pages: 1 -->
<svg width="1214pt" height="639pt"
 viewBox="0.00 0.00 1214.00 639.02" xmlns="http://www.w3.org/2000/svg" xmlns:xlink="http://www.w3.org/1999/xlink">
<g id="graph0" class="graph" transform="scale(1 1) rotate(0) translate(4 635.0226)">
<title>auth_group_permissions</title>
<polygon fill="#ffffff" stroke="transparent" points="-4,4 -4,-635.0226 1210,-635.0226 1210,4 -4,4"/>
<!-- auth_group_permissions -->
<g id="node1" class="node">
<title>auth_group_permissions</title>
<polygon fill="#efefef" stroke="transparent" points="406,-549.5226 406,-584.5226 714,-584.5226 714,-549.5226 406,-549.5226"/>
<polygon fill="none" stroke="#000000" points="406,-549.5226 406,-584.5226 714,-584.5226 714,-549.5226 406,-549.5226"/>
<text text-anchor="start" x="412.8492" y="-562.3226" font-family="Arial Bold" font-size="18.00" fill="#000000">auth_group_permissions</text>
<text text-anchor="start" x="609.897" y="-562.3226" font-family="Arial" font-size="14.00" fill="#000000"> </text>
<text text-anchor="start" x="613.7876" y="-562.3226" font-family="Arial" font-size="14.00" fill="#666666">[BASE TABLE]</text>
<polygon fill="none" stroke="#000000" points="406,-519.5226 406,-549.5226 714,-549.5226 714,-519.5226 406,-519.5226"/>
<text text-anchor="start" x="413" y="-530.9226" font-family="Arial" font-size="14.00" fill="#000000">id </text>
<text text-anchor="start" x="427.7798" y="-530.9226" font-family="Arial" font-size="14.00" fill="#666666">[int]</text>
<polygon fill="none" stroke="#000000" points="406,-489.5226 406,-519.5226 714,-519.5226 714,-489.5226 406,-489.5226"/>
<text text-anchor="start" x="413" y="-500.9226" font-family="Arial" font-size="14.00" fill="#000000">group_id </text>
<text text-anchor="start" x="471.3534" y="-500.9226" font-family="Arial" font-size="14.00" fill="#666666">[int]</text>
<polygon fill="none" stroke="#000000" points="406,-459.5226 406,-489.5226 714,-489.5226 714,-459.5226 406,-459.5226"/>
<text text-anchor="start" x="413" y="-470.9226" font-family="Arial" font-size="14.00" fill="#000000">permission_id </text>
<text text-anchor="start" x="503.2272" y="-470.9226" font-family="Arial" font-size="14.00" fill="#666666">[int]</text>
<polygon fill="none" stroke="#000000" stroke-width="3" points="404.5,-458.5226 404.5,-586.5226 715.5,-586.5226 715.5,-458.5226 404.5,-458.5226"/>
</g>
<!-- auth_group -->
<g id="node2" class="node">
<title>auth_group</title>
<polygon fill="#efefef" stroke="transparent" points="280,-284.5226 280,-319.5226 482,-319.5226 482,-284.5226 280,-284.5226"/>
<polygon fill="none" stroke="#000000" points="280,-284.5226 280,-319.5226 482,-319.5226 482,-284.5226 280,-284.5226"/>
<text text-anchor="start" x="286.8511" y="-297.3226" font-family="Arial Bold" font-size="18.00" fill="#000000">auth_group</text>
<text text-anchor="start" x="377.8951" y="-297.3226" font-family="Arial" font-size="14.00" fill="#000000"> </text>
<text text-anchor="start" x="381.7857" y="-297.3226" font-family="Arial" font-size="14.00" fill="#666666">[BASE TABLE]</text>
<polygon fill="none" stroke="#000000" points="280,-254.5226 280,-284.5226 482,-284.5226 482,-254.5226 280,-254.5226"/>
<text text-anchor="start" x="287" y="-265.9226" font-family="Arial" font-size="14.00" fill="#000000">id </text>
<text text-anchor="start" x="301.7798" y="-265.9226" font-family="Arial" font-size="14.00" fill="#666666">[int]</text>
</g>
<!-- auth_group_permissions&#45;&gt;auth_group -->
<g id="edge1" class="edge">
<title>auth_group_permissions:group_id&#45;&gt;auth_group:id</title>
<path fill="none" stroke="#000000" d="M395.9167,-503.0182C369.9147,-493.9649 388.9228,-446.0483 406,-414.0226 425.14,-378.1286 462.86,-398.9166 482,-363.0226 501.5528,-326.3545 523.5556,-269.5226 482,-269.5226"/>
<polygon fill="#000000" stroke="#000000" points="396.1095,-503.0469 405.3359,-508.9733 401.0547,-503.7847 406,-504.5226 406,-504.5226 406,-504.5226 401.0547,-503.7847 406.6641,-500.0719 396.1095,-503.0469 396.1095,-503.0469"/>
<text text-anchor="start" x="140.8195" y="-514.5226" font-family="Arial" font-size="10.00" fill="#000000">FOREIGN KEY (group_id) REFERENCES auth_group (id)</text>
</g>
<!-- auth_permission -->
<g id="node4" class="node">
<title>auth_permission</title>
<polygon fill="#efefef" stroke="transparent" points="617,-299.5226 617,-334.5226 860,-334.5226 860,-299.5226 617,-299.5226"/>
<polygon fill="none" stroke="#000000" points="617,-299.5226 617,-334.5226 860,-334.5226 860,-299.5226 617,-299.5226"/>
<text text-anchor="start" x="623.8608" y="-312.3226" font-family="Arial Bold" font-size="18.00" fill="#000000">auth_permission</text>
<text text-anchor="start" x="755.8854" y="-312.3226" font-family="Arial" font-size="14.00" fill="#000000"> </text>
<text text-anchor="start" x="759.776" y="-312.3226" font-family="Arial" font-size="14.00" fill="#666666">[BASE TABLE]</text>
<polygon fill="none" stroke="#000000" points="617,-269.5226 617,-299.5226 860,-299.5226 860,-269.5226 617,-269.5226"/>
<text text-anchor="start" x="624" y="-280.9226" font-family="Arial" font-size="14.00" fill="#000000">id </text>
<text text-anchor="start" x="638.7798" y="-280.9226" font-family="Arial" font-size="14.00" fill="#666666">[int]</text>
<polygon fill="none" stroke="#000000" points="617,-239.5226 617,-269.5226 860,-269.5226 860,-239.5226 617,-239.5226"/>
<text text-anchor="start" x="624" y="-250.9226" font-family="Arial" font-size="14.00" fill="#000000">content_type_id </text>
<text text-anchor="start" x="726.7124" y="-250.9226" font-family="Arial" font-size="14.00" fill="#666666">[int]</text>
</g>
<!-- auth_group_permissions&#45;&gt;auth_permission -->
<g id="edge3" class="edge">
<title>auth_group_permissions:permission_id&#45;&gt;auth_permission:id</title>
<path fill="none" stroke="#000000" d="M723.9219,-471.9172C737.1908,-462.9139 726.9543,-432.6481 714,-414.0226 687.7434,-376.2713 643.2566,-415.7739 617,-378.0226 593.2722,-343.9072 575.4444,-284.5226 617,-284.5226"/>
<polygon fill="#000000" stroke="#000000" points="723.6721,-471.9827 712.8571,-470.1702 718.836,-473.2527 714,-474.5226 714,-474.5226 714,-474.5226 718.836,-473.2527 715.1429,-478.8751 723.6721,-471.9827 723.6721,-471.9827"/>
<text text-anchor="start" x="721.0525" y="-484.5226" font-family="Arial" font-size="10.00" fill="#000000">FOREIGN KEY (permission_id) REFERENCES auth_permission (id)</text>
</g>
<!-- auth_user_groups -->
<g id="node3" class="node">
<title>auth_user_groups</title>
<polygon fill="#efefef" stroke="transparent" points="43,-549.5226 43,-584.5226 299,-584.5226 299,-549.5226 43,-549.5226"/>
<polygon fill="none" stroke="#000000" points="43,-549.5226 43,-584.5226 299,-584.5226 299,-549.5226 43,-549.5226"/>
<text text-anchor="start" x="49.8457" y="-562.3226" font-family="Arial Bold" font-size="18.00" fill="#000000">auth_user_groups</text>
<text text-anchor="start" x="194.9005" y="-562.3226" font-family="Arial" font-size="14.00" fill="#000000"> </text>
<text text-anchor="start" x="198.7911" y="-562.3226" font-family="Arial" font-size="14.00" fill="#666666">[BASE TABLE]</text>
<polygon fill="none" stroke="#000000" points="43,-519.5226 43,-549.5226 299,-549.5226 299,-519.5226 43,-519.5226"/>
<text text-anchor="start" x="50" y="-530.9226" font-family="Arial" font-size="14.00" fill="#000000">id </text>
<text text-anchor="start" x="64.7798" y="-530.9226" font-family="Arial" font-size="14.00" fill="#666666">[int]</text>
<polygon fill="none" stroke="#000000" points="43,-489.5226 43,-519.5226 299,-519.5226 299,-489.5226 43,-489.5226"/>
<text text-anchor="start" x="50" y="-500.9226" font-family="Arial" font-size="14.00" fill="#000000">user_id </text>
<text text-anchor="start" x="99.7882" y="-500.9226" font-family="Arial" font-size="14.00" fill="#666666">[int]</text>
<polygon fill="none" stroke="#000000" points="43,-459.5226 43,-489.5226 299,-489.5226 299,-459.5226 43,-459.5226"/>
<text text-anchor="start" x="50" y="-470.9226" font-family="Arial" font-size="14.00" fill="#000000">group_id </text>
<text text-anchor="start" x="108.3534" y="-470.9226" font-family="Arial" font-size="14.00" fill="#666666">[int]</text>
</g>
<!-- auth_user_groups&#45;&gt;auth_group -->
<g id="edge2" class="edge">
<title>auth_user_groups:group_id&#45;&gt;auth_group:id</title>
<path fill="none" stroke="#000000" d="M308.6119,-471.6218C317.465,-463.1413 302.5293,-437.6869 299,-417.0226 294.7166,-391.9435 284.2834,-388.1017 280,-363.0226 273.0039,-322.0602 238.4444,-269.5226 280,-269.5226"/>
<polygon fill="#000000" stroke="#000000" points="308.5735,-471.6333 297.6998,-470.2145 303.7868,-473.078 299,-474.5226 299,-474.5226 299,-474.5226 303.7868,-473.078 300.3002,-478.8307 308.5735,-471.6333 308.5735,-471.6333"/>
<text text-anchor="start" x="169.8195" y="-458.5226" font-family="Arial" font-size="10.00" fill="#000000">FOREIGN KEY (group_id) REFERENCES auth_group (id)</text>
</g>
<!-- django_content_type -->
<g id="node6" class="node">
<title>django_content_type</title>
<polygon fill="#efefef" stroke="transparent" points="600,-82.5226 600,-117.5226 878,-117.5226 878,-82.5226 600,-82.5226"/>
<polygon fill="none" stroke="#000000" points="600,-82.5226 600,-117.5226 878,-117.5226 878,-82.5226 600,-82.5226"/>
<text text-anchor="start" x="606.8324" y="-95.3226" font-family="Arial Bold" font-size="18.00" fill="#000000">django_content_type</text>
<text text-anchor="start" x="773.9138" y="-95.3226" font-family="Arial" font-size="14.00" fill="#000000"> </text>
<text text-anchor="start" x="777.8044" y="-95.3226" font-family="Arial" font-size="14.00" fill="#666666">[BASE TABLE]</text>
<polygon fill="none" stroke="#000000" points="600,-52.5226 600,-82.5226 878,-82.5226 878,-52.5226 600,-52.5226"/>
<text text-anchor="start" x="607" y="-63.9226" font-family="Arial" font-size="14.00" fill="#000000">id </text>
<text text-anchor="start" x="621.7798" y="-63.9226" font-family="Arial" font-size="14.00" fill="#666666">[int]</text>
</g>
<!-- auth_permission&#45;&gt;django_content_type -->
<g id="edge5" class="edge">
<title>auth_permission:content_type_id&#45;&gt;django_content_type:id</title>
<path fill="none" stroke="#000000" d="M739.6591,-229.5249C749.8154,-157.9909 874.5768,-231.6031 921,-161.0226 947.4992,-120.734 955.0983,-86.6209 921,-52.5226 863.8029,4.6745 739,28.3663 739,-52.5226"/>
<polygon fill="#000000" stroke="#000000" points="739.6579,-229.5443 734.5097,-239.2265 739.329,-234.5334 739,-239.5226 739,-239.5226 739,-239.5226 739.329,-234.5334 743.4903,-239.8187 739.6579,-229.5443 739.6579,-229.5443"/>
<text text-anchor="start" x="745.8555" y="-249.5226" font-family="Arial" font-size="10.00" fill="#000000">FOREIGN KEY (content_type_id) REFERENCES django_content_type (id)</text>
</g>
<!-- auth_user_user_permissions -->
<g id="node5" class="node">
<title>auth_user_user_permissions</title>
<polygon fill="#efefef" stroke="transparent" points="821,-549.5226 821,-584.5226 1163,-584.5226 1163,-549.5226 821,-549.5226"/>
<polygon fill="none" stroke="#000000" points="821,-549.5226 821,-584.5226 1163,-584.5226 1163,-549.5226 821,-549.5226"/>
<text text-anchor="start" x="827.85" y="-562.3226" font-family="Arial Bold" font-size="18.00" fill="#000000">auth_user_user_permissions</text>
<text text-anchor="start" x="1058.8962" y="-562.3226" font-family="Arial" font-size="14.00" fill="#000000"> </text>
<text text-anchor="start" x="1062.7868" y="-562.3226" font-family="Arial" font-size="14.00" fill="#666666">[BASE TABLE]</text>
<polygon fill="none" stroke="#000000" points="821,-519.5226 821,-549.5226 1163,-549.5226 1163,-519.5226 821,-519.5226"/>
<text text-anchor="start" x="828" y="-530.9226" font-family="Arial" font-size="14.00" fill="#000000">id </text>
<text text-anchor="start" x="842.7798" y="-530.9226" font-family="Arial" font-size="14.00" fill="#666666">[int]</text>
<polygon fill="none" stroke="#000000" points="821,-489.5226 821,-519.5226 1163,-519.5226 1163,-489.5226 821,-489.5226"/>
<text text-anchor="start" x="828" y="-500.9226" font-family="Arial" font-size="14.00" fill="#000000">user_id </text>
<text text-anchor="start" x="877.7882" y="-500.9226" font-family="Arial" font-size="14.00" fill="#666666">[int]</text>
<polygon fill="none" stroke="#000000" points="821,-459.5226 821,-489.5226 1163,-489.5226 1163,-459.5226 821,-459.5226"/>
<text text-anchor="start" x="828" y="-470.9226" font-family="Arial" font-size="14.00" fill="#000000">permission_id </text>
<text text-anchor="start" x="918.2272" y="-470.9226" font-family="Arial" font-size="14.00" fill="#666666">[int]</text>
</g>
<!-- auth_user_user_permissions&#45;&gt;auth_permission -->
<g id="edge4" class="edge">
<title>auth_user_user_permissions:permission_id&#45;&gt;auth_permission:id</title>
<path fill="none" stroke="#000000" d="M811.2455,-471.7435C800.6903,-463.1767 812.9012,-436.5749 821,-417.0226 830.3807,-394.3755 850.6193,-400.6697 860,-378.0226 875.9026,-339.6303 901.5556,-284.5226 860,-284.5226"/>
<polygon fill="#000000" stroke="#000000" points="811.3827,-471.7825 819.7669,-478.8504 816.1914,-473.1525 821,-474.5226 821,-474.5226 821,-474.5226 816.1914,-473.1525 822.2331,-470.1948 811.3827,-471.7825 811.3827,-471.7825"/>
<text text-anchor="start" x="828.0525" y="-458.5226" font-family="Arial" font-size="10.00" fill="#000000">FOREIGN KEY (permission_id) REFERENCES auth_permission (id)</text>
</g>
</g>
</svg>
