<?xml version="1.0" encoding="UTF-8" standalone="no"?>
<!DOCTYPE svg PUBLIC "-//W3C//DTD SVG 1.1//EN"
 "http://www.w3.org/Graphics/SVG/1.1/DTD/svg11.dtd">
<!-- Generated by graphviz version 2.40.1 (20161225.0304)
 -->
<!-- Title: auth_group Pages: 1 -->
<svg width="762pt" height="442pt"
 viewBox="0.00 0.00 762.00 442.00" xmlns="http://www.w3.org/2000/svg" xmlns:xlink="http://www.w3.org/1999/xlink">
<g id="graph0" class="graph" transform="scale(1 1) rotate(0) translate(4 438)">
<title>auth_group</title>
<polygon fill="#ffffff" stroke="transparent" points="-4,4 -4,-438 758,-438 758,4 -4,4"/>
<!-- auth_group -->
<g id="node1" class="node">
<title>auth_group</title>
<polygon fill="#efefef" stroke="transparent" points="289,-105.5 289,-140.5 491,-140.5 491,-105.5 289,-105.5"/>
<polygon fill="none" stroke="#000000" points="289,-105.5 289,-140.5 491,-140.5 491,-105.5 289,-105.5"/>
<text text-anchor="start" x="295.8511" y="-118.3" font-family="Arial Bold" font-size="18.00" fill="#000000">auth_group</text>
<text text-anchor="start" x="386.8951" y="-118.3" font-family="Arial" font-size="14.00" fill="#000000"> </text>
<text text-anchor="start" x="390.7857" y="-118.3" font-family="Arial" font-size="14.00" fill="#666666">[BASE TABLE]</text>
<polygon fill="none" stroke="#000000" points="289,-75.5 289,-105.5 491,-105.5 491,-75.5 289,-75.5"/>
<text text-anchor="start" x="296" y="-86.9" font-family="Arial" font-size="14.00" fill="#000000">id </text>
<text text-anchor="start" x="310.7798" y="-86.9" font-family="Arial" font-size="14.00" fill="#666666">[int]</text>
<polygon fill="none" stroke="#000000" points="289,-45.5 289,-75.5 491,-75.5 491,-45.5 289,-45.5"/>
<text text-anchor="start" x="296" y="-56.9" font-family="Arial" font-size="14.00" fill="#000000">name </text>
<text text-anchor="start" x="334.899" y="-56.9" font-family="Arial" font-size="14.00" fill="#666666">[varchar(150)]</text>
<polygon fill="none" stroke="#000000" stroke-width="3" points="287.5,-44.5 287.5,-142.5 492.5,-142.5 492.5,-44.5 287.5,-44.5"/>
</g>
<!-- auth_group_permissions -->
<g id="node2" class="node">
<title>auth_group_permissions</title>
<polygon fill="#efefef" stroke="transparent" points="43,-355.5 43,-390.5 351,-390.5 351,-355.5 43,-355.5"/>
<polygon fill="none" stroke="#000000" points="43,-355.5 43,-390.5 351,-390.5 351,-355.5 43,-355.5"/>
<text text-anchor="start" x="49.8492" y="-368.3" font-family="Arial Bold" font-size="18.00" fill="#000000">auth_group_permissions</text>
<text text-anchor="start" x="246.897" y="-368.3" font-family="Arial" font-size="14.00" fill="#000000"> </text>
<text text-anchor="start" x="250.7876" y="-368.3" font-family="Arial" font-size="14.00" fill="#666666">[BASE TABLE]</text>
<polygon fill="none" stroke="#000000" points="43,-325.5 43,-355.5 351,-355.5 351,-325.5 43,-325.5"/>
<text text-anchor="start" x="50" y="-336.9" font-family="Arial" font-size="14.00" fill="#000000">id </text>
<text text-anchor="start" x="64.7798" y="-336.9" font-family="Arial" font-size="14.00" fill="#666666">[int]</text>
<polygon fill="none" stroke="#000000" points="43,-295.5 43,-325.5 351,-325.5 351,-295.5 43,-295.5"/>
<text text-anchor="start" x="50" y="-306.9" font-family="Arial" font-size="14.00" fill="#000000">group_id </text>
<text text-anchor="start" x="108.3534" y="-306.9" font-family="Arial" font-size="14.00" fill="#666666">[int]</text>
<polygon fill="none" stroke="#000000" points="43,-265.5 43,-295.5 351,-295.5 351,-265.5 43,-265.5"/>
<text text-anchor="start" x="50" y="-276.9" font-family="Arial" font-size="14.00" fill="#000000">permission_id </text>
<text text-anchor="start" x="140.2272" y="-276.9" font-family="Arial" font-size="14.00" fill="#666666">[int]</text>
</g>
<!-- auth_group_permissions&#45;&gt;auth_group -->
<g id="edge1" class="edge">
<title>auth_group_permissions:group_id&#45;&gt;auth_group:id</title>
<path fill="none" stroke="#000000" d="M361.1038,-308.9127C385.9317,-299.7797 368.4323,-253.2798 351,-223 335.1021,-195.3854 304.8979,-214.6146 289,-187 267.6014,-149.8307 246.1111,-90.5 289,-90.5"/>
<polygon fill="#000000" stroke="#000000" points="360.8788,-308.9479 350.3016,-306.0545 355.9394,-309.724 351,-310.5 351,-310.5 351,-310.5 355.9394,-309.724 351.6984,-314.9455 360.8788,-308.9479 360.8788,-308.9479"/>
<text text-anchor="start" x="357.8195" y="-320.5" font-family="Arial" font-size="10.00" fill="#000000">FOREIGN KEY (group_id) REFERENCES auth_group (id)</text>
</g>
<!-- auth_user_groups -->
<g id="node3" class="node">
<title>auth_user_groups</title>
<polygon fill="#efefef" stroke="transparent" points="455,-355.5 455,-390.5 711,-390.5 711,-355.5 455,-355.5"/>
<polygon fill="none" stroke="#000000" points="455,-355.5 455,-390.5 711,-390.5 711,-355.5 455,-355.5"/>
<text text-anchor="start" x="461.8457" y="-368.3" font-family="Arial Bold" font-size="18.00" fill="#000000">auth_user_groups</text>
<text text-anchor="start" x="606.9005" y="-368.3" font-family="Arial" font-size="14.00" fill="#000000"> </text>
<text text-anchor="start" x="610.7911" y="-368.3" font-family="Arial" font-size="14.00" fill="#666666">[BASE TABLE]</text>
<polygon fill="none" stroke="#000000" points="455,-325.5 455,-355.5 711,-355.5 711,-325.5 455,-325.5"/>
<text text-anchor="start" x="462" y="-336.9" font-family="Arial" font-size="14.00" fill="#000000">id </text>
<text text-anchor="start" x="476.7798" y="-336.9" font-family="Arial" font-size="14.00" fill="#666666">[int]</text>
<polygon fill="none" stroke="#000000" points="455,-295.5 455,-325.5 711,-325.5 711,-295.5 455,-295.5"/>
<text text-anchor="start" x="462" y="-306.9" font-family="Arial" font-size="14.00" fill="#000000">user_id </text>
<text text-anchor="start" x="511.7882" y="-306.9" font-family="Arial" font-size="14.00" fill="#666666">[int]</text>
<polygon fill="none" stroke="#000000" points="455,-265.5 455,-295.5 711,-295.5 711,-265.5 455,-265.5"/>
<text text-anchor="start" x="462" y="-276.9" font-family="Arial" font-size="14.00" fill="#000000">group_id </text>
<text text-anchor="start" x="520.3534" y="-276.9" font-family="Arial" font-size="14.00" fill="#666666">[int]</text>
</g>
<!-- auth_user_groups&#45;&gt;auth_group -->
<g id="edge2" class="edge">
<title>auth_user_groups:group_id&#45;&gt;auth_group:id</title>
<path fill="none" stroke="#000000" d="M445.2455,-277.7209C434.6903,-269.1541 446.9012,-242.5522 455,-223 463.6591,-202.095 482.3409,-207.905 491,-187 507.4129,-147.3758 533.8889,-90.5 491,-90.5"/>
<polygon fill="#000000" stroke="#000000" points="445.3827,-277.7599 453.7669,-284.8278 450.1914,-279.1299 455,-280.5 455,-280.5 455,-280.5 450.1914,-279.1299 456.2331,-276.1722 445.3827,-277.7599 445.3827,-277.7599"/>
<text text-anchor="start" x="461.8195" y="-290.5" font-family="Arial" font-size="10.00" fill="#000000">FOREIGN KEY (group_id) REFERENCES auth_group (id)</text>
</g>
</g>
</svg>
