<?xml version="1.0" encoding="UTF-8" standalone="no"?>
<!DOCTYPE svg PUBLIC "-//W3C//DTD SVG 1.1//EN"
 "http://www.w3.org/Graphics/SVG/1.1/DTD/svg11.dtd">
<!-- Generated by graphviz version 2.40.1 (20161225.0304)
 -->
<!-- Title: auth_group Pages: 1 -->
<svg width="1315pt" height="436pt"
 viewBox="0.00 0.00 1315.00 436.00" xmlns="http://www.w3.org/2000/svg" xmlns:xlink="http://www.w3.org/1999/xlink">
<g id="graph0" class="graph" transform="scale(1 1) rotate(0) translate(4 432)">
<title>auth_group</title>
<polygon fill="#ffffff" stroke="transparent" points="-4,4 -4,-432 1311,-432 1311,4 -4,4"/>
<!-- auth_group -->
<g id="node1" class="node">
<title>auth_group</title>
<polygon fill="#efefef" stroke="transparent" points="575,-87.5 575,-122.5 777,-122.5 777,-87.5 575,-87.5"/>
<polygon fill="none" stroke="#000000" points="575,-87.5 575,-122.5 777,-122.5 777,-87.5 575,-87.5"/>
<text text-anchor="start" x="581.8511" y="-100.3" font-family="Arial Bold" font-size="18.00" fill="#000000">auth_group</text>
<text text-anchor="start" x="672.8951" y="-100.3" font-family="Arial" font-size="14.00" fill="#000000"> </text>
<text text-anchor="start" x="676.7857" y="-100.3" font-family="Arial" font-size="14.00" fill="#666666">[BASE TABLE]</text>
<polygon fill="none" stroke="#000000" points="575,-57.5 575,-87.5 777,-87.5 777,-57.5 575,-57.5"/>
<text text-anchor="start" x="582" y="-68.9" font-family="Arial" font-size="14.00" fill="#000000">id </text>
<text text-anchor="start" x="596.7798" y="-68.9" font-family="Arial" font-size="14.00" fill="#666666">[int]</text>
<polygon fill="none" stroke="#000000" stroke-width="3" points="573.5,-56.5 573.5,-124.5 778.5,-124.5 778.5,-56.5 573.5,-56.5"/>
</g>
<!-- auth_group_permissions -->
<g id="node2" class="node">
<title>auth_group_permissions</title>
<polygon fill="#efefef" stroke="transparent" points="317,-349.5 317,-384.5 625,-384.5 625,-349.5 317,-349.5"/>
<polygon fill="none" stroke="#000000" points="317,-349.5 317,-384.5 625,-384.5 625,-349.5 317,-349.5"/>
<text text-anchor="start" x="323.8492" y="-362.3" font-family="Arial Bold" font-size="18.00" fill="#000000">auth_group_permissions</text>
<text text-anchor="start" x="520.897" y="-362.3" font-family="Arial" font-size="14.00" fill="#000000"> </text>
<text text-anchor="start" x="524.7876" y="-362.3" font-family="Arial" font-size="14.00" fill="#666666">[BASE TABLE]</text>
<polygon fill="none" stroke="#000000" points="317,-319.5 317,-349.5 625,-349.5 625,-319.5 317,-319.5"/>
<text text-anchor="start" x="324" y="-330.9" font-family="Arial" font-size="14.00" fill="#000000">id </text>
<text text-anchor="start" x="338.7798" y="-330.9" font-family="Arial" font-size="14.00" fill="#666666">[int]</text>
<polygon fill="none" stroke="#000000" points="317,-289.5 317,-319.5 625,-319.5 625,-289.5 317,-289.5"/>
<text text-anchor="start" x="324" y="-300.9" font-family="Arial" font-size="14.00" fill="#000000">group_id </text>
<text text-anchor="start" x="382.3534" y="-300.9" font-family="Arial" font-size="14.00" fill="#666666">[int]</text>
<polygon fill="none" stroke="#000000" points="317,-259.5 317,-289.5 625,-289.5 625,-259.5 317,-259.5"/>
<text text-anchor="start" x="324" y="-270.9" font-family="Arial" font-size="14.00" fill="#000000">permission_id </text>
<text text-anchor="start" x="414.2272" y="-270.9" font-family="Arial" font-size="14.00" fill="#666666">[int]</text>
</g>
<!-- auth_group_permissions&#45;&gt;auth_group -->
<g id="edge1" class="edge">
<title>auth_group_permissions:group_id&#45;&gt;auth_group:id</title>
<path fill="none" stroke="#000000" d="M634.9883,-302.9703C659.1734,-294.1579 638.6993,-249.1416 625,-217 612.9217,-188.6618 587.0783,-197.3382 575,-169 558.1837,-129.5453 532.1111,-72.5 575,-72.5"/>
<polygon fill="#000000" stroke="#000000" points="634.8847,-302.986 624.3187,-300.0519 629.9424,-303.743 625,-304.5 625,-304.5 625,-304.5 629.9424,-303.743 625.6813,-308.9481 634.8847,-302.986 634.8847,-302.986"/>
<text text-anchor="start" x="563.8195" y="-288.5" font-family="Arial" font-size="10.00" fill="#000000">FOREIGN KEY (group_id) REFERENCES auth_group (id)</text>
</g>
<!-- auth_permission -->
<g id="node3" class="node">
<title>auth_permission</title>
<polygon fill="#efefef" stroke="transparent" points="225,-102.5 225,-137.5 468,-137.5 468,-102.5 225,-102.5"/>
<polygon fill="none" stroke="#000000" points="225,-102.5 225,-137.5 468,-137.5 468,-102.5 225,-102.5"/>
<text text-anchor="start" x="231.8608" y="-115.3" font-family="Arial Bold" font-size="18.00" fill="#000000">auth_permission</text>
<text text-anchor="start" x="363.8854" y="-115.3" font-family="Arial" font-size="14.00" fill="#000000"> </text>
<text text-anchor="start" x="367.776" y="-115.3" font-family="Arial" font-size="14.00" fill="#666666">[BASE TABLE]</text>
<polygon fill="none" stroke="#000000" points="225,-72.5 225,-102.5 468,-102.5 468,-72.5 225,-72.5"/>
<text text-anchor="start" x="232" y="-83.9" font-family="Arial" font-size="14.00" fill="#000000">id </text>
<text text-anchor="start" x="246.7798" y="-83.9" font-family="Arial" font-size="14.00" fill="#666666">[int]</text>
<polygon fill="none" stroke="#000000" points="225,-42.5 225,-72.5 468,-72.5 468,-42.5 225,-42.5"/>
<text text-anchor="start" x="232" y="-53.9" font-family="Arial" font-size="14.00" fill="#000000">content_type_id </text>
<text text-anchor="start" x="334.7124" y="-53.9" font-family="Arial" font-size="14.00" fill="#666666">[int]</text>
</g>
<!-- auth_group_permissions&#45;&gt;auth_permission -->
<g id="edge2" class="edge">
<title>auth_group_permissions:permission_id&#45;&gt;auth_permission:id</title>
<path fill="none" stroke="#000000" d="M307.1415,-271.7186C294.798,-262.6819 303.7612,-233.7662 317,-217 359.7553,-162.8531 425.2447,-235.1469 468,-181 493.7525,-148.386 509.5556,-87.5 468,-87.5"/>
<polygon fill="#000000" stroke="#000000" points="307.3757,-271.7846 315.7781,-278.8309 312.1879,-273.1423 317,-274.5 317,-274.5 317,-274.5 312.1879,-273.1423 318.2219,-270.1691 307.3757,-271.7846 307.3757,-271.7846"/>
<text text-anchor="start" x="7.0525" y="-284.5" font-family="Arial" font-size="10.00" fill="#000000">FOREIGN KEY (permission_id) REFERENCES auth_permission (id)</text>
</g>
<!-- auth_user_groups -->
<g id="node4" class="node">
<title>auth_user_groups</title>
<polygon fill="#efefef" stroke="transparent" points="791,-349.5 791,-384.5 1047,-384.5 1047,-349.5 791,-349.5"/>
<polygon fill="none" stroke="#000000" points="791,-349.5 791,-384.5 1047,-384.5 1047,-349.5 791,-349.5"/>
<text text-anchor="start" x="797.8457" y="-362.3" font-family="Arial Bold" font-size="18.00" fill="#000000">auth_user_groups</text>
<text text-anchor="start" x="942.9005" y="-362.3" font-family="Arial" font-size="14.00" fill="#000000"> </text>
<text text-anchor="start" x="946.7911" y="-362.3" font-family="Arial" font-size="14.00" fill="#666666">[BASE TABLE]</text>
<polygon fill="none" stroke="#000000" points="791,-319.5 791,-349.5 1047,-349.5 1047,-319.5 791,-319.5"/>
<text text-anchor="start" x="798" y="-330.9" font-family="Arial" font-size="14.00" fill="#000000">id </text>
<text text-anchor="start" x="812.7798" y="-330.9" font-family="Arial" font-size="14.00" fill="#666666">[int]</text>
<polygon fill="none" stroke="#000000" points="791,-289.5 791,-319.5 1047,-319.5 1047,-289.5 791,-289.5"/>
<text text-anchor="start" x="798" y="-300.9" font-family="Arial" font-size="14.00" fill="#000000">user_id </text>
<text text-anchor="start" x="847.7882" y="-300.9" font-family="Arial" font-size="14.00" fill="#666666">[int]</text>
<polygon fill="none" stroke="#000000" points="791,-259.5 791,-289.5 1047,-289.5 1047,-259.5 791,-259.5"/>
<text text-anchor="start" x="798" y="-270.9" font-family="Arial" font-size="14.00" fill="#000000">group_id </text>
<text text-anchor="start" x="856.3534" y="-270.9" font-family="Arial" font-size="14.00" fill="#666666">[int]</text>
</g>
<!-- auth_user_groups&#45;&gt;auth_group -->
<g id="edge3" class="edge">
<title>auth_user_groups:group_id&#45;&gt;auth_group:id</title>
<path fill="none" stroke="#000000" d="M780.7766,-273.4132C714.7987,-257.5136 863.1262,-72.5 777,-72.5"/>
<polygon fill="#000000" stroke="#000000" points="781.056,-273.4428 790.5243,-278.9748 786.028,-273.9714 791,-274.5 791,-274.5 791,-274.5 786.028,-273.9714 791.4757,-270.0252 781.056,-273.4428 781.056,-273.4428"/>
<text text-anchor="start" x="525.8195" y="-258.5" font-family="Arial" font-size="10.00" fill="#000000">FOREIGN KEY (group_id) REFERENCES auth_group (id)</text>
</g>
<!-- auth_user -->
<g id="node5" class="node">
<title>auth_user</title>
<polygon fill="#efefef" stroke="transparent" points="885,-87.5 885,-122.5 1076,-122.5 1076,-87.5 885,-87.5"/>
<polygon fill="none" stroke="#000000" points="885,-87.5 885,-122.5 1076,-122.5 1076,-87.5 885,-87.5"/>
<text text-anchor="start" x="891.8573" y="-100.3" font-family="Arial Bold" font-size="18.00" fill="#000000">auth_user</text>
<text text-anchor="start" x="971.8889" y="-100.3" font-family="Arial" font-size="14.00" fill="#000000"> </text>
<text text-anchor="start" x="975.7795" y="-100.3" font-family="Arial" font-size="14.00" fill="#666666">[BASE TABLE]</text>
<polygon fill="none" stroke="#000000" points="885,-57.5 885,-87.5 1076,-87.5 1076,-57.5 885,-57.5"/>
<text text-anchor="start" x="892" y="-68.9" font-family="Arial" font-size="14.00" fill="#000000">id </text>
<text text-anchor="start" x="906.7798" y="-68.9" font-family="Arial" font-size="14.00" fill="#666666">[int]</text>
</g>
<!-- auth_user_groups&#45;&gt;auth_user -->
<g id="edge4" class="edge">
<title>auth_user_groups:user_id&#45;&gt;auth_user:id</title>
<path fill="none" stroke="#000000" d="M1057.2039,-302.8474C1082.5885,-293.3516 1067.6661,-245.172 1047,-217 1002.3524,-156.1365 929.6476,-226.8635 885,-166 860.4204,-132.4932 843.4444,-72.5 885,-72.5"/>
<polygon fill="#000000" stroke="#000000" points="1056.8714,-302.9012 1046.2805,-300.0579 1051.9357,-303.7006 1047,-304.5 1047,-304.5 1047,-304.5 1051.9357,-303.7006 1047.7195,-308.9421 1056.8714,-302.9012 1056.8714,-302.9012"/>
<text text-anchor="start" x="1053.9375" y="-314.5" font-family="Arial" font-size="10.00" fill="#000000">FOREIGN KEY (user_id) REFERENCES auth_user (id)</text>
</g>
</g>
</svg>
