<?xml version="1.0" encoding="UTF-8" standalone="no"?>
<!DOCTYPE svg PUBLIC "-//W3C//DTD SVG 1.1//EN"
 "http://www.w3.org/Graphics/SVG/1.1/DTD/svg11.dtd">
<!-- Generated by graphviz version 2.40.1 (20161225.0304)
 -->
<!-- Title: auth_group_permissions Pages: 1 -->
<svg width="905pt" height="502pt"
 viewBox="0.00 0.00 905.00 502.00" xmlns="http://www.w3.org/2000/svg" xmlns:xlink="http://www.w3.org/1999/xlink">
<g id="graph0" class="graph" transform="scale(1 1) rotate(0) translate(4 498)">
<title>auth_group_permissions</title>
<polygon fill="#ffffff" stroke="transparent" points="-4,4 -4,-498 901,-498 901,4 -4,4"/>
<!-- auth_group_permissions -->
<g id="node1" class="node">
<title>auth_group_permissions</title>
<polygon fill="#efefef" stroke="transparent" points="272,-412.5 272,-447.5 580,-447.5 580,-412.5 272,-412.5"/>
<polygon fill="none" stroke="#000000" points="272,-412.5 272,-447.5 580,-447.5 580,-412.5 272,-412.5"/>
<text text-anchor="start" x="278.8492" y="-425.3" font-family="Arial Bold" font-size="18.00" fill="#000000">auth_group_permissions</text>
<text text-anchor="start" x="475.897" y="-425.3" font-family="Arial" font-size="14.00" fill="#000000"> </text>
<text text-anchor="start" x="479.7876" y="-425.3" font-family="Arial" font-size="14.00" fill="#666666">[BASE TABLE]</text>
<polygon fill="none" stroke="#000000" points="272,-382.5 272,-412.5 580,-412.5 580,-382.5 272,-382.5"/>
<text text-anchor="start" x="279" y="-393.9" font-family="Arial" font-size="14.00" fill="#000000">id </text>
<text text-anchor="start" x="293.7798" y="-393.9" font-family="Arial" font-size="14.00" fill="#666666">[int]</text>
<polygon fill="none" stroke="#000000" points="272,-352.5 272,-382.5 580,-382.5 580,-352.5 272,-352.5"/>
<text text-anchor="start" x="279" y="-363.9" font-family="Arial" font-size="14.00" fill="#000000">group_id </text>
<text text-anchor="start" x="337.3534" y="-363.9" font-family="Arial" font-size="14.00" fill="#666666">[int]</text>
<polygon fill="none" stroke="#000000" points="272,-322.5 272,-352.5 580,-352.5 580,-322.5 272,-322.5"/>
<text text-anchor="start" x="279" y="-333.9" font-family="Arial" font-size="14.00" fill="#000000">permission_id </text>
<text text-anchor="start" x="369.2272" y="-333.9" font-family="Arial" font-size="14.00" fill="#666666">[int]</text>
<polygon fill="none" stroke="#000000" stroke-width="3" points="270.5,-321.5 270.5,-449.5 581.5,-449.5 581.5,-321.5 270.5,-321.5"/>
</g>
<!-- auth_group -->
<g id="node2" class="node">
<title>auth_group</title>
<polygon fill="#efefef" stroke="transparent" points="161,-132.5 161,-167.5 363,-167.5 363,-132.5 161,-132.5"/>
<polygon fill="none" stroke="#000000" points="161,-132.5 161,-167.5 363,-167.5 363,-132.5 161,-132.5"/>
<text text-anchor="start" x="167.8511" y="-145.3" font-family="Arial Bold" font-size="18.00" fill="#000000">auth_group</text>
<text text-anchor="start" x="258.8951" y="-145.3" font-family="Arial" font-size="14.00" fill="#000000"> </text>
<text text-anchor="start" x="262.7857" y="-145.3" font-family="Arial" font-size="14.00" fill="#666666">[BASE TABLE]</text>
<polygon fill="none" stroke="#000000" points="161,-102.5 161,-132.5 363,-132.5 363,-102.5 161,-102.5"/>
<text text-anchor="start" x="168" y="-113.9" font-family="Arial" font-size="14.00" fill="#000000">id </text>
<text text-anchor="start" x="182.7798" y="-113.9" font-family="Arial" font-size="14.00" fill="#666666">[int]</text>
<polygon fill="none" stroke="#000000" points="161,-72.5 161,-102.5 363,-102.5 363,-72.5 161,-72.5"/>
<text text-anchor="start" x="168" y="-83.9" font-family="Arial" font-size="14.00" fill="#000000">name </text>
<text text-anchor="start" x="206.899" y="-83.9" font-family="Arial" font-size="14.00" fill="#666666">[varchar(150)]</text>
</g>
<!-- auth_group_permissions&#45;&gt;auth_group -->
<g id="edge1" class="edge">
<title>auth_group_permissions:group_id&#45;&gt;auth_group:id</title>
<path fill="none" stroke="#000000" d="M261.9335,-366.0044C236.0293,-357.0021 255.5093,-309.3316 272,-277 294.7007,-232.493 340.2993,-255.507 363,-211 381.8812,-173.9816 404.5556,-117.5 363,-117.5"/>
<polygon fill="#000000" stroke="#000000" points="262.1086,-366.0303 271.3386,-371.9511 267.0543,-366.7651 272,-367.5 272,-367.5 272,-367.5 267.0543,-366.7651 272.6614,-363.0489 262.1086,-366.0303 262.1086,-366.0303"/>
<text text-anchor="start" x="6.8195" y="-377.5" font-family="Arial" font-size="10.00" fill="#000000">FOREIGN KEY (group_id) REFERENCES auth_group (id)</text>
</g>
<!-- auth_permission -->
<g id="node3" class="node">
<title>auth_permission</title>
<polygon fill="#efefef" stroke="transparent" points="468,-162.5 468,-197.5 711,-197.5 711,-162.5 468,-162.5"/>
<polygon fill="none" stroke="#000000" points="468,-162.5 468,-197.5 711,-197.5 711,-162.5 468,-162.5"/>
<text text-anchor="start" x="474.8608" y="-175.3" font-family="Arial Bold" font-size="18.00" fill="#000000">auth_permission</text>
<text text-anchor="start" x="606.8854" y="-175.3" font-family="Arial" font-size="14.00" fill="#000000"> </text>
<text text-anchor="start" x="610.776" y="-175.3" font-family="Arial" font-size="14.00" fill="#666666">[BASE TABLE]</text>
<polygon fill="none" stroke="#000000" points="468,-132.5 468,-162.5 711,-162.5 711,-132.5 468,-132.5"/>
<text text-anchor="start" x="475" y="-143.9" font-family="Arial" font-size="14.00" fill="#000000">id </text>
<text text-anchor="start" x="489.7798" y="-143.9" font-family="Arial" font-size="14.00" fill="#666666">[int]</text>
<polygon fill="none" stroke="#000000" points="468,-102.5 468,-132.5 711,-132.5 711,-102.5 468,-102.5"/>
<text text-anchor="start" x="475" y="-113.9" font-family="Arial" font-size="14.00" fill="#000000">name </text>
<text text-anchor="start" x="513.899" y="-113.9" font-family="Arial" font-size="14.00" fill="#666666">[varchar(255)]</text>
<polygon fill="none" stroke="#000000" points="468,-72.5 468,-102.5 711,-102.5 711,-72.5 468,-72.5"/>
<text text-anchor="start" x="475" y="-83.9" font-family="Arial" font-size="14.00" fill="#000000">content_type_id </text>
<text text-anchor="start" x="577.7124" y="-83.9" font-family="Arial" font-size="14.00" fill="#666666">[int]</text>
<polygon fill="none" stroke="#000000" points="468,-42.5 468,-72.5 711,-72.5 711,-42.5 468,-42.5"/>
<text text-anchor="start" x="475" y="-53.9" font-family="Arial" font-size="14.00" fill="#000000">codename </text>
<text text-anchor="start" x="544.2468" y="-53.9" font-family="Arial" font-size="14.00" fill="#666666">[varchar(100)]</text>
</g>
<!-- auth_group_permissions&#45;&gt;auth_permission -->
<g id="edge2" class="edge">
<title>auth_group_permissions:permission_id&#45;&gt;auth_permission:id</title>
<path fill="none" stroke="#000000" d="M589.9519,-334.8732C603.3189,-325.8 593.3644,-295.3335 580,-277 549.2002,-234.7484 498.7998,-283.2516 468,-241 443.5212,-207.4195 426.4444,-147.5 468,-147.5"/>
<polygon fill="#000000" stroke="#000000" points="589.6689,-334.9478 578.8515,-333.149 584.8344,-336.2239 580,-337.5 580,-337.5 580,-337.5 584.8344,-336.2239 581.1485,-341.851 589.6689,-334.9478 589.6689,-334.9478"/>
<text text-anchor="start" x="587.0525" y="-347.5" font-family="Arial" font-size="10.00" fill="#000000">FOREIGN KEY (permission_id) REFERENCES auth_permission (id)</text>
</g>
</g>
</svg>
