<?xml version="1.0" encoding="UTF-8" standalone="no"?>
<!DOCTYPE svg PUBLIC "-//W3C//DTD SVG 1.1//EN"
 "http://www.w3.org/Graphics/SVG/1.1/DTD/svg11.dtd">
<!-- Generated by graphviz version 2.40.1 (20161225.0304)
 -->
<!-- Title: auth_user Pages: 1 -->
<svg width="1994pt" height="436pt"
 viewBox="0.00 0.00 1994.00 436.00" xmlns="http://www.w3.org/2000/svg" xmlns:xlink="http://www.w3.org/1999/xlink">
<g id="graph0" class="graph" transform="scale(1 1) rotate(0) translate(4 432)">
<title>auth_user</title>
<polygon fill="#ffffff" stroke="transparent" points="-4,4 -4,-432 1990,-432 1990,4 -4,4"/>
<!-- auth_user -->
<g id="node1" class="node">
<title>auth_user</title>
<polygon fill="#efefef" stroke="transparent" points="961,-87.5 961,-122.5 1152,-122.5 1152,-87.5 961,-87.5"/>
<polygon fill="none" stroke="#000000" points="961,-87.5 961,-122.5 1152,-122.5 1152,-87.5 961,-87.5"/>
<text text-anchor="start" x="967.8573" y="-100.3" font-family="Arial Bold" font-size="18.00" fill="#000000">auth_user</text>
<text text-anchor="start" x="1047.8889" y="-100.3" font-family="Arial" font-size="14.00" fill="#000000"> </text>
<text text-anchor="start" x="1051.7795" y="-100.3" font-family="Arial" font-size="14.00" fill="#666666">[BASE TABLE]</text>
<polygon fill="none" stroke="#000000" points="961,-57.5 961,-87.5 1152,-87.5 1152,-57.5 961,-57.5"/>
<text text-anchor="start" x="968" y="-68.9" font-family="Arial" font-size="14.00" fill="#000000">id </text>
<text text-anchor="start" x="982.7798" y="-68.9" font-family="Arial" font-size="14.00" fill="#666666">[int]</text>
<polygon fill="none" stroke="#000000" stroke-width="3" points="959,-56.5 959,-124.5 1153,-124.5 1153,-56.5 959,-56.5"/>
</g>
<!-- auth_user_groups -->
<g id="node2" class="node">
<title>auth_user_groups</title>
<polygon fill="#efefef" stroke="transparent" points="144,-349.5 144,-384.5 400,-384.5 400,-349.5 144,-349.5"/>
<polygon fill="none" stroke="#000000" points="144,-349.5 144,-384.5 400,-384.5 400,-349.5 144,-349.5"/>
<text text-anchor="start" x="150.8457" y="-362.3" font-family="Arial Bold" font-size="18.00" fill="#000000">auth_user_groups</text>
<text text-anchor="start" x="295.9005" y="-362.3" font-family="Arial" font-size="14.00" fill="#000000"> </text>
<text text-anchor="start" x="299.7911" y="-362.3" font-family="Arial" font-size="14.00" fill="#666666">[BASE TABLE]</text>
<polygon fill="none" stroke="#000000" points="144,-319.5 144,-349.5 400,-349.5 400,-319.5 144,-319.5"/>
<text text-anchor="start" x="151" y="-330.9" font-family="Arial" font-size="14.00" fill="#000000">id </text>
<text text-anchor="start" x="165.7798" y="-330.9" font-family="Arial" font-size="14.00" fill="#666666">[int]</text>
<polygon fill="none" stroke="#000000" points="144,-289.5 144,-319.5 400,-319.5 400,-289.5 144,-289.5"/>
<text text-anchor="start" x="151" y="-300.9" font-family="Arial" font-size="14.00" fill="#000000">user_id </text>
<text text-anchor="start" x="200.7882" y="-300.9" font-family="Arial" font-size="14.00" fill="#666666">[int]</text>
<polygon fill="none" stroke="#000000" points="144,-259.5 144,-289.5 400,-289.5 400,-259.5 144,-259.5"/>
<text text-anchor="start" x="151" y="-270.9" font-family="Arial" font-size="14.00" fill="#000000">group_id </text>
<text text-anchor="start" x="209.3534" y="-270.9" font-family="Arial" font-size="14.00" fill="#666666">[int]</text>
</g>
<!-- auth_user_groups&#45;&gt;auth_user -->
<g id="edge1" class="edge">
<title>auth_user_groups:user_id&#45;&gt;auth_user:id</title>
<path fill="none" stroke="#000000" d="M410.0557,-303.1612C440.3391,-293.8988 417.026,-239.0606 452,-217 601.0998,-122.9521 686.4564,-253.8114 847,-181 910.7012,-152.1096 891.0536,-72.5 961,-72.5"/>
<polygon fill="#000000" stroke="#000000" points="409.9125,-303.1802 399.4061,-300.0394 404.9563,-303.8401 400,-304.5 400,-304.5 400,-304.5 404.9563,-303.8401 400.5939,-308.9606 409.9125,-303.1802 409.9125,-303.1802"/>
<text text-anchor="start" x="406.9375" y="-314.5" font-family="Arial" font-size="10.00" fill="#000000">FOREIGN KEY (user_id) REFERENCES auth_user (id)</text>
</g>
<!-- auth_group -->
<g id="node3" class="node">
<title>auth_group</title>
<polygon fill="#efefef" stroke="transparent" points="171,-87.5 171,-122.5 373,-122.5 373,-87.5 171,-87.5"/>
<polygon fill="none" stroke="#000000" points="171,-87.5 171,-122.5 373,-122.5 373,-87.5 171,-87.5"/>
<text text-anchor="start" x="177.8511" y="-100.3" font-family="Arial Bold" font-size="18.00" fill="#000000">auth_group</text>
<text text-anchor="start" x="268.8951" y="-100.3" font-family="Arial" font-size="14.00" fill="#000000"> </text>
<text text-anchor="start" x="272.7857" y="-100.3" font-family="Arial" font-size="14.00" fill="#666666">[BASE TABLE]</text>
<polygon fill="none" stroke="#000000" points="171,-57.5 171,-87.5 373,-87.5 373,-57.5 171,-57.5"/>
<text text-anchor="start" x="178" y="-68.9" font-family="Arial" font-size="14.00" fill="#000000">id </text>
<text text-anchor="start" x="192.7798" y="-68.9" font-family="Arial" font-size="14.00" fill="#666666">[int]</text>
</g>
<!-- auth_user_groups&#45;&gt;auth_group -->
<g id="edge2" class="edge">
<title>auth_user_groups:group_id&#45;&gt;auth_group:id</title>
<path fill="none" stroke="#000000" d="M272.7487,-249.1963C282.3368,-187.7833 381.3647,-229.7848 416,-166 439.0112,-123.6223 450.0983,-91.5983 416,-57.5 370.7452,-12.2452 272,6.5 272,-57.5"/>
<polygon fill="#000000" stroke="#000000" points="272.7248,-249.5263 267.5118,-259.1738 272.3624,-254.5131 272,-259.5 272,-259.5 272,-259.5 272.3624,-254.5131 276.4882,-259.8262 272.7248,-249.5263 272.7248,-249.5263"/>
<text text-anchor="start" x="6.8195" y="-269.5" font-family="Arial" font-size="10.00" fill="#000000">FOREIGN KEY (group_id) REFERENCES auth_group (id)</text>
</g>
<!-- auth_user_user_permissions -->
<g id="node4" class="node">
<title>auth_user_user_permissions</title>
<polygon fill="#efefef" stroke="transparent" points="504,-349.5 504,-384.5 846,-384.5 846,-349.5 504,-349.5"/>
<polygon fill="none" stroke="#000000" points="504,-349.5 504,-384.5 846,-384.5 846,-349.5 504,-349.5"/>
<text text-anchor="start" x="510.85" y="-362.3" font-family="Arial Bold" font-size="18.00" fill="#000000">auth_user_user_permissions</text>
<text text-anchor="start" x="741.8962" y="-362.3" font-family="Arial" font-size="14.00" fill="#000000"> </text>
<text text-anchor="start" x="745.7868" y="-362.3" font-family="Arial" font-size="14.00" fill="#666666">[BASE TABLE]</text>
<polygon fill="none" stroke="#000000" points="504,-319.5 504,-349.5 846,-349.5 846,-319.5 504,-319.5"/>
<text text-anchor="start" x="511" y="-330.9" font-family="Arial" font-size="14.00" fill="#000000">id </text>
<text text-anchor="start" x="525.7798" y="-330.9" font-family="Arial" font-size="14.00" fill="#666666">[int]</text>
<polygon fill="none" stroke="#000000" points="504,-289.5 504,-319.5 846,-319.5 846,-289.5 504,-289.5"/>
<text text-anchor="start" x="511" y="-300.9" font-family="Arial" font-size="14.00" fill="#000000">user_id </text>
<text text-anchor="start" x="560.7882" y="-300.9" font-family="Arial" font-size="14.00" fill="#666666">[int]</text>
<polygon fill="none" stroke="#000000" points="504,-259.5 504,-289.5 846,-289.5 846,-259.5 504,-259.5"/>
<text text-anchor="start" x="511" y="-270.9" font-family="Arial" font-size="14.00" fill="#000000">permission_id </text>
<text text-anchor="start" x="601.2272" y="-270.9" font-family="Arial" font-size="14.00" fill="#666666">[int]</text>
</g>
<!-- auth_user_user_permissions&#45;&gt;auth_user -->
<g id="edge3" class="edge">
<title>auth_user_user_permissions:user_id&#45;&gt;auth_user:id</title>
<path fill="none" stroke="#000000" d="M855.8438,-302.0515C903.7429,-277.2567 906.9422,-72.5 961,-72.5"/>
<polygon fill="#000000" stroke="#000000" points="855.7043,-302.0861 844.9138,-300.1331 850.8522,-303.2931 846,-304.5 846,-304.5 846,-304.5 850.8522,-303.2931 847.0862,-308.8669 855.7043,-302.0861 855.7043,-302.0861"/>
<text text-anchor="start" x="852.9375" y="-314.5" font-family="Arial" font-size="10.00" fill="#000000">FOREIGN KEY (user_id) REFERENCES auth_user (id)</text>
</g>
<!-- auth_permission -->
<g id="node5" class="node">
<title>auth_permission</title>
<polygon fill="#efefef" stroke="transparent" points="553,-102.5 553,-137.5 796,-137.5 796,-102.5 553,-102.5"/>
<polygon fill="none" stroke="#000000" points="553,-102.5 553,-137.5 796,-137.5 796,-102.5 553,-102.5"/>
<text text-anchor="start" x="559.8608" y="-115.3" font-family="Arial Bold" font-size="18.00" fill="#000000">auth_permission</text>
<text text-anchor="start" x="691.8854" y="-115.3" font-family="Arial" font-size="14.00" fill="#000000"> </text>
<text text-anchor="start" x="695.776" y="-115.3" font-family="Arial" font-size="14.00" fill="#666666">[BASE TABLE]</text>
<polygon fill="none" stroke="#000000" points="553,-72.5 553,-102.5 796,-102.5 796,-72.5 553,-72.5"/>
<text text-anchor="start" x="560" y="-83.9" font-family="Arial" font-size="14.00" fill="#000000">id </text>
<text text-anchor="start" x="574.7798" y="-83.9" font-family="Arial" font-size="14.00" fill="#666666">[int]</text>
<polygon fill="none" stroke="#000000" points="553,-42.5 553,-72.5 796,-72.5 796,-42.5 553,-42.5"/>
<text text-anchor="start" x="560" y="-53.9" font-family="Arial" font-size="14.00" fill="#000000">content_type_id </text>
<text text-anchor="start" x="662.7124" y="-53.9" font-family="Arial" font-size="14.00" fill="#666666">[int]</text>
</g>
<!-- auth_user_user_permissions&#45;&gt;auth_permission -->
<g id="edge4" class="edge">
<title>auth_user_user_permissions:permission_id&#45;&gt;auth_permission:id</title>
<path fill="none" stroke="#000000" d="M675.9009,-249.2828C685.3884,-199.9729 767.1925,-234.028 796,-181 815.8369,-144.4848 837.5556,-87.5 796,-87.5"/>
<polygon fill="#000000" stroke="#000000" points="675.8784,-249.5386 670.5174,-259.1047 675.4392,-254.5193 675,-259.5 675,-259.5 675,-259.5 675.4392,-254.5193 679.4826,-259.8953 675.8784,-249.5386 675.8784,-249.5386"/>
<text text-anchor="start" x="365.0525" y="-269.5" font-family="Arial" font-size="10.00" fill="#000000">FOREIGN KEY (permission_id) REFERENCES auth_permission (id)</text>
</g>
<!-- django_admin_log -->
<g id="node6" class="node">
<title>django_admin_log</title>
<polygon fill="#efefef" stroke="transparent" points="1382,-349.5 1382,-384.5 1640,-384.5 1640,-349.5 1382,-349.5"/>
<polygon fill="none" stroke="#000000" points="1382,-349.5 1382,-384.5 1640,-384.5 1640,-349.5 1382,-349.5"/>
<text text-anchor="start" x="1388.8485" y="-362.3" font-family="Arial Bold" font-size="18.00" fill="#000000">django_admin_log</text>
<text text-anchor="start" x="1535.8977" y="-362.3" font-family="Arial" font-size="14.00" fill="#000000"> </text>
<text text-anchor="start" x="1539.7883" y="-362.3" font-family="Arial" font-size="14.00" fill="#666666">[BASE TABLE]</text>
<polygon fill="none" stroke="#000000" points="1382,-319.5 1382,-349.5 1640,-349.5 1640,-319.5 1382,-319.5"/>
<text text-anchor="start" x="1389" y="-330.9" font-family="Arial" font-size="14.00" fill="#000000">id </text>
<text text-anchor="start" x="1403.7798" y="-330.9" font-family="Arial" font-size="14.00" fill="#666666">[int]</text>
<polygon fill="none" stroke="#000000" points="1382,-289.5 1382,-319.5 1640,-319.5 1640,-289.5 1382,-289.5"/>
<text text-anchor="start" x="1389" y="-300.9" font-family="Arial" font-size="14.00" fill="#000000">content_type_id </text>
<text text-anchor="start" x="1491.7124" y="-300.9" font-family="Arial" font-size="14.00" fill="#666666">[int]</text>
<polygon fill="none" stroke="#000000" points="1382,-259.5 1382,-289.5 1640,-289.5 1640,-259.5 1382,-259.5"/>
<text text-anchor="start" x="1389" y="-270.9" font-family="Arial" font-size="14.00" fill="#000000">user_id </text>
<text text-anchor="start" x="1438.7882" y="-270.9" font-family="Arial" font-size="14.00" fill="#666666">[int]</text>
</g>
<!-- django_admin_log&#45;&gt;auth_user -->
<g id="edge5" class="edge">
<title>django_admin_log:user_id&#45;&gt;auth_user:id</title>
<path fill="none" stroke="#000000" d="M1371.7959,-273.2628C1348.8178,-266.973 1352.1722,-238.0205 1330,-217 1256.0527,-146.894 1253.8973,-72.5 1152,-72.5"/>
<polygon fill="#000000" stroke="#000000" points="1372.0727,-273.2963 1381.4583,-278.9673 1377.0364,-273.8981 1382,-274.5 1382,-274.5 1382,-274.5 1377.0364,-273.8981 1382.5417,-270.0327 1372.0727,-273.2963 1372.0727,-273.2963"/>
<text text-anchor="start" x="1388.9375" y="-284.5" font-family="Arial" font-size="10.00" fill="#000000">FOREIGN KEY (user_id) REFERENCES auth_user (id)</text>
</g>
<!-- django_content_type -->
<g id="node7" class="node">
<title>django_content_type</title>
<polygon fill="#efefef" stroke="transparent" points="1372,-87.5 1372,-122.5 1650,-122.5 1650,-87.5 1372,-87.5"/>
<polygon fill="none" stroke="#000000" points="1372,-87.5 1372,-122.5 1650,-122.5 1650,-87.5 1372,-87.5"/>
<text text-anchor="start" x="1378.8324" y="-100.3" font-family="Arial Bold" font-size="18.00" fill="#000000">django_content_type</text>
<text text-anchor="start" x="1545.9138" y="-100.3" font-family="Arial" font-size="14.00" fill="#000000"> </text>
<text text-anchor="start" x="1549.8044" y="-100.3" font-family="Arial" font-size="14.00" fill="#666666">[BASE TABLE]</text>
<polygon fill="none" stroke="#000000" points="1372,-57.5 1372,-87.5 1650,-87.5 1650,-57.5 1372,-57.5"/>
<text text-anchor="start" x="1379" y="-68.9" font-family="Arial" font-size="14.00" fill="#000000">id </text>
<text text-anchor="start" x="1393.7798" y="-68.9" font-family="Arial" font-size="14.00" fill="#666666">[int]</text>
</g>
<!-- django_admin_log&#45;&gt;django_content_type -->
<g id="edge6" class="edge">
<title>django_admin_log:content_type_id&#45;&gt;django_content_type:id</title>
<path fill="none" stroke="#000000" d="M1649.9691,-302.3033C1700.2856,-280.0112 1730.2923,-94.7923 1693,-57.5 1635.8029,-.3029 1511,23.3889 1511,-57.5"/>
<polygon fill="#000000" stroke="#000000" points="1649.7657,-302.3481 1639.0316,-300.1054 1644.8829,-303.424 1640,-304.5 1640,-304.5 1640,-304.5 1644.8829,-303.424 1640.9684,-308.8946 1649.7657,-302.3481 1649.7657,-302.3481"/>
<text text-anchor="start" x="1646.8555" y="-314.5" font-family="Arial" font-size="10.00" fill="#000000">FOREIGN KEY (content_type_id) REFERENCES django_content_type (id)</text>
</g>
<!-- social_auth_usersocialauth -->
<g id="node8" class="node">
<title>social_auth_usersocialauth</title>
<polygon fill="#efefef" stroke="transparent" points="950,-334.5 950,-369.5 1278,-369.5 1278,-334.5 950,-334.5"/>
<polygon fill="none" stroke="#000000" points="950,-334.5 950,-369.5 1278,-369.5 1278,-334.5 950,-334.5"/>
<text text-anchor="start" x="956.843" y="-347.3" font-family="Arial Bold" font-size="18.00" fill="#000000">social_auth_usersocialauth</text>
<text text-anchor="start" x="1173.9032" y="-347.3" font-family="Arial" font-size="14.00" fill="#000000"> </text>
<text text-anchor="start" x="1177.7938" y="-347.3" font-family="Arial" font-size="14.00" fill="#666666">[BASE TABLE]</text>
<polygon fill="none" stroke="#000000" points="950,-304.5 950,-334.5 1278,-334.5 1278,-304.5 950,-304.5"/>
<text text-anchor="start" x="957" y="-315.9" font-family="Arial" font-size="14.00" fill="#000000">id </text>
<text text-anchor="start" x="971.7798" y="-315.9" font-family="Arial" font-size="14.00" fill="#666666">[int]</text>
<polygon fill="none" stroke="#000000" points="950,-274.5 950,-304.5 1278,-304.5 1278,-274.5 950,-274.5"/>
<text text-anchor="start" x="957" y="-285.9" font-family="Arial" font-size="14.00" fill="#000000">user_id </text>
<text text-anchor="start" x="1006.7882" y="-285.9" font-family="Arial" font-size="14.00" fill="#666666">[int]</text>
</g>
<!-- social_auth_usersocialauth&#45;&gt;auth_user -->
<g id="edge7" class="edge">
<title>social_auth_usersocialauth:user_id&#45;&gt;auth_user:id</title>
<path fill="none" stroke="#000000" d="M1114.4421,-264.3409C1118.1443,-223.491 1144.0473,-214.5471 1152,-169 1159.377,-126.7503 1194.8889,-72.5 1152,-72.5"/>
<polygon fill="#000000" stroke="#000000" points="1114.4348,-264.5095 1109.5043,-274.3043 1114.2174,-269.5047 1114,-274.5 1114,-274.5 1114,-274.5 1114.2174,-269.5047 1118.4957,-274.6957 1114.4348,-264.5095 1114.4348,-264.5095"/>
<text text-anchor="start" x="860.9375" y="-284.5" font-family="Arial" font-size="10.00" fill="#000000">FOREIGN KEY (user_id) REFERENCES auth_user (id)</text>
</g>
</g>
</svg>
