<?xml version="1.0" encoding="UTF-8" standalone="no"?>
<!DOCTYPE svg PUBLIC "-//W3C//DTD SVG 1.1//EN"
 "http://www.w3.org/Graphics/SVG/1.1/DTD/svg11.dtd">
<!-- Generated by graphviz version 2.40.1 (20161225.0304)
 -->
<!-- Title: auth_user_user_permissions Pages: 1 -->
<svg width="2008pt" height="639pt"
 viewBox="0.00 0.00 2008.00 639.02" xmlns="http://www.w3.org/2000/svg" xmlns:xlink="http://www.w3.org/1999/xlink">
<g id="graph0" class="graph" transform="scale(1 1) rotate(0) translate(4 635.0226)">
<title>auth_user_user_permissions</title>
<polygon fill="#ffffff" stroke="transparent" points="-4,4 -4,-635.0226 2004,-635.0226 2004,4 -4,4"/>
<!-- auth_user_user_permissions -->
<g id="node1" class="node">
<title>auth_user_user_permissions</title>
<polygon fill="#efefef" stroke="transparent" points="1200,-549.5226 1200,-584.5226 1542,-584.5226 1542,-549.5226 1200,-549.5226"/>
<polygon fill="none" stroke="#000000" points="1200,-549.5226 1200,-584.5226 1542,-584.5226 1542,-549.5226 1200,-549.5226"/>
<text text-anchor="start" x="1206.85" y="-562.3226" font-family="Arial Bold" font-size="18.00" fill="#000000">auth_user_user_permissions</text>
<text text-anchor="start" x="1437.8962" y="-562.3226" font-family="Arial" font-size="14.00" fill="#000000"> </text>
<text text-anchor="start" x="1441.7868" y="-562.3226" font-family="Arial" font-size="14.00" fill="#666666">[BASE TABLE]</text>
<polygon fill="none" stroke="#000000" points="1200,-519.5226 1200,-549.5226 1542,-549.5226 1542,-519.5226 1200,-519.5226"/>
<text text-anchor="start" x="1207" y="-530.9226" font-family="Arial" font-size="14.00" fill="#000000">id </text>
<text text-anchor="start" x="1221.7798" y="-530.9226" font-family="Arial" font-size="14.00" fill="#666666">[int]</text>
<polygon fill="none" stroke="#000000" points="1200,-489.5226 1200,-519.5226 1542,-519.5226 1542,-489.5226 1200,-489.5226"/>
<text text-anchor="start" x="1207" y="-500.9226" font-family="Arial" font-size="14.00" fill="#000000">user_id </text>
<text text-anchor="start" x="1256.7882" y="-500.9226" font-family="Arial" font-size="14.00" fill="#666666">[int]</text>
<polygon fill="none" stroke="#000000" points="1200,-459.5226 1200,-489.5226 1542,-489.5226 1542,-459.5226 1200,-459.5226"/>
<text text-anchor="start" x="1207" y="-470.9226" font-family="Arial" font-size="14.00" fill="#000000">permission_id </text>
<text text-anchor="start" x="1297.2272" y="-470.9226" font-family="Arial" font-size="14.00" fill="#666666">[int]</text>
<polygon fill="none" stroke="#000000" stroke-width="3" points="1198.5,-458.5226 1198.5,-586.5226 1543.5,-586.5226 1543.5,-458.5226 1198.5,-458.5226"/>
</g>
<!-- auth_user -->
<g id="node2" class="node">
<title>auth_user</title>
<polygon fill="#efefef" stroke="transparent" points="634,-284.5226 634,-319.5226 825,-319.5226 825,-284.5226 634,-284.5226"/>
<polygon fill="none" stroke="#000000" points="634,-284.5226 634,-319.5226 825,-319.5226 825,-284.5226 634,-284.5226"/>
<text text-anchor="start" x="640.8573" y="-297.3226" font-family="Arial Bold" font-size="18.00" fill="#000000">auth_user</text>
<text text-anchor="start" x="720.8889" y="-297.3226" font-family="Arial" font-size="14.00" fill="#000000"> </text>
<text text-anchor="start" x="724.7795" y="-297.3226" font-family="Arial" font-size="14.00" fill="#666666">[BASE TABLE]</text>
<polygon fill="none" stroke="#000000" points="634,-254.5226 634,-284.5226 825,-284.5226 825,-254.5226 634,-254.5226"/>
<text text-anchor="start" x="641" y="-265.9226" font-family="Arial" font-size="14.00" fill="#000000">id </text>
<text text-anchor="start" x="655.7798" y="-265.9226" font-family="Arial" font-size="14.00" fill="#666666">[int]</text>
</g>
<!-- auth_user_user_permissions&#45;&gt;auth_user -->
<g id="edge1" class="edge">
<title>auth_user_user_permissions:user_id&#45;&gt;auth_user:id</title>
<path fill="none" stroke="#000000" d="M1189.843,-503.3736C1156.9928,-494.9816 1177.3564,-442.656 1145,-414.0226 1028.1376,-310.6067 981.0502,-269.5226 825,-269.5226"/>
<polygon fill="#000000" stroke="#000000" points="1190.0634,-503.3984 1199.4941,-508.9941 1195.0317,-503.9605 1200,-504.5226 1200,-504.5226 1200,-504.5226 1195.0317,-503.9605 1200.5059,-500.0511 1190.0634,-503.3984 1190.0634,-503.3984"/>
<text text-anchor="start" x="946.9375" y="-514.5226" font-family="Arial" font-size="10.00" fill="#000000">FOREIGN KEY (user_id) REFERENCES auth_user (id)</text>
</g>
<!-- auth_permission -->
<g id="node6" class="node">
<title>auth_permission</title>
<polygon fill="#efefef" stroke="transparent" points="1465,-299.5226 1465,-334.5226 1708,-334.5226 1708,-299.5226 1465,-299.5226"/>
<polygon fill="none" stroke="#000000" points="1465,-299.5226 1465,-334.5226 1708,-334.5226 1708,-299.5226 1465,-299.5226"/>
<text text-anchor="start" x="1471.8608" y="-312.3226" font-family="Arial Bold" font-size="18.00" fill="#000000">auth_permission</text>
<text text-anchor="start" x="1603.8854" y="-312.3226" font-family="Arial" font-size="14.00" fill="#000000"> </text>
<text text-anchor="start" x="1607.776" y="-312.3226" font-family="Arial" font-size="14.00" fill="#666666">[BASE TABLE]</text>
<polygon fill="none" stroke="#000000" points="1465,-269.5226 1465,-299.5226 1708,-299.5226 1708,-269.5226 1465,-269.5226"/>
<text text-anchor="start" x="1472" y="-280.9226" font-family="Arial" font-size="14.00" fill="#000000">id </text>
<text text-anchor="start" x="1486.7798" y="-280.9226" font-family="Arial" font-size="14.00" fill="#666666">[int]</text>
<polygon fill="none" stroke="#000000" points="1465,-239.5226 1465,-269.5226 1708,-269.5226 1708,-239.5226 1465,-239.5226"/>
<text text-anchor="start" x="1472" y="-250.9226" font-family="Arial" font-size="14.00" fill="#000000">content_type_id </text>
<text text-anchor="start" x="1574.7124" y="-250.9226" font-family="Arial" font-size="14.00" fill="#666666">[int]</text>
</g>
<!-- auth_user_user_permissions&#45;&gt;auth_permission -->
<g id="edge5" class="edge">
<title>auth_user_user_permissions:permission_id&#45;&gt;auth_permission:id</title>
<path fill="none" stroke="#000000" d="M1551.8652,-471.9549C1564.9489,-463.0748 1554.1804,-433.1632 1542,-414.0226 1521.718,-382.151 1485.282,-409.8943 1465,-378.0226 1442.6898,-342.9638 1423.4444,-284.5226 1465,-284.5226"/>
<polygon fill="#000000" stroke="#000000" points="1551.6776,-472.0037 1540.8665,-470.1677 1546.8388,-473.2632 1542,-474.5226 1542,-474.5226 1542,-474.5226 1546.8388,-473.2632 1543.1335,-478.8775 1551.6776,-472.0037 1551.6776,-472.0037"/>
<text text-anchor="start" x="1549.0525" y="-484.5226" font-family="Arial" font-size="10.00" fill="#000000">FOREIGN KEY (permission_id) REFERENCES auth_permission (id)</text>
</g>
<!-- auth_user_groups -->
<g id="node3" class="node">
<title>auth_user_groups</title>
<polygon fill="#efefef" stroke="transparent" points="43,-549.5226 43,-584.5226 299,-584.5226 299,-549.5226 43,-549.5226"/>
<polygon fill="none" stroke="#000000" points="43,-549.5226 43,-584.5226 299,-584.5226 299,-549.5226 43,-549.5226"/>
<text text-anchor="start" x="49.8457" y="-562.3226" font-family="Arial Bold" font-size="18.00" fill="#000000">auth_user_groups</text>
<text text-anchor="start" x="194.9005" y="-562.3226" font-family="Arial" font-size="14.00" fill="#000000"> </text>
<text text-anchor="start" x="198.7911" y="-562.3226" font-family="Arial" font-size="14.00" fill="#666666">[BASE TABLE]</text>
<polygon fill="none" stroke="#000000" points="43,-519.5226 43,-549.5226 299,-549.5226 299,-519.5226 43,-519.5226"/>
<text text-anchor="start" x="50" y="-530.9226" font-family="Arial" font-size="14.00" fill="#000000">id </text>
<text text-anchor="start" x="64.7798" y="-530.9226" font-family="Arial" font-size="14.00" fill="#666666">[int]</text>
<polygon fill="none" stroke="#000000" points="43,-489.5226 43,-519.5226 299,-519.5226 299,-489.5226 43,-489.5226"/>
<text text-anchor="start" x="50" y="-500.9226" font-family="Arial" font-size="14.00" fill="#000000">user_id </text>
<text text-anchor="start" x="99.7882" y="-500.9226" font-family="Arial" font-size="14.00" fill="#666666">[int]</text>
<polygon fill="none" stroke="#000000" points="43,-459.5226 43,-489.5226 299,-489.5226 299,-459.5226 43,-459.5226"/>
<text text-anchor="start" x="50" y="-470.9226" font-family="Arial" font-size="14.00" fill="#000000">group_id </text>
<text text-anchor="start" x="108.3534" y="-470.9226" font-family="Arial" font-size="14.00" fill="#666666">[int]</text>
</g>
<!-- auth_user_groups&#45;&gt;auth_user -->
<g id="edge2" class="edge">
<title>auth_user_groups:user_id&#45;&gt;auth_user:id</title>
<path fill="none" stroke="#000000" d="M308.9896,-503.3882C341.2112,-495.1005 320.1538,-443.3805 351,-414.0226 453.2986,-316.6597 492.7748,-269.5226 634,-269.5226"/>
<polygon fill="#000000" stroke="#000000" points="308.9361,-503.3942 298.4922,-500.0513 303.9681,-503.9584 299,-504.5226 299,-504.5226 299,-504.5226 303.9681,-503.9584 299.5078,-508.9939 308.9361,-503.3942 308.9361,-503.3942"/>
<text text-anchor="start" x="175.9375" y="-488.5226" font-family="Arial" font-size="10.00" fill="#000000">FOREIGN KEY (user_id) REFERENCES auth_user (id)</text>
</g>
<!-- django_admin_log -->
<g id="node4" class="node">
<title>django_admin_log</title>
<polygon fill="#efefef" stroke="transparent" points="403,-549.5226 403,-584.5226 661,-584.5226 661,-549.5226 403,-549.5226"/>
<polygon fill="none" stroke="#000000" points="403,-549.5226 403,-584.5226 661,-584.5226 661,-549.5226 403,-549.5226"/>
<text text-anchor="start" x="409.8485" y="-562.3226" font-family="Arial Bold" font-size="18.00" fill="#000000">django_admin_log</text>
<text text-anchor="start" x="556.8977" y="-562.3226" font-family="Arial" font-size="14.00" fill="#000000"> </text>
<text text-anchor="start" x="560.7883" y="-562.3226" font-family="Arial" font-size="14.00" fill="#666666">[BASE TABLE]</text>
<polygon fill="none" stroke="#000000" points="403,-519.5226 403,-549.5226 661,-549.5226 661,-519.5226 403,-519.5226"/>
<text text-anchor="start" x="410" y="-530.9226" font-family="Arial" font-size="14.00" fill="#000000">id </text>
<text text-anchor="start" x="424.7798" y="-530.9226" font-family="Arial" font-size="14.00" fill="#666666">[int]</text>
<polygon fill="none" stroke="#000000" points="403,-489.5226 403,-519.5226 661,-519.5226 661,-489.5226 403,-489.5226"/>
<text text-anchor="start" x="410" y="-500.9226" font-family="Arial" font-size="14.00" fill="#000000">content_type_id </text>
<text text-anchor="start" x="512.7124" y="-500.9226" font-family="Arial" font-size="14.00" fill="#666666">[int]</text>
<polygon fill="none" stroke="#000000" points="403,-459.5226 403,-489.5226 661,-489.5226 661,-459.5226 403,-459.5226"/>
<text text-anchor="start" x="410" y="-470.9226" font-family="Arial" font-size="14.00" fill="#000000">user_id </text>
<text text-anchor="start" x="459.7882" y="-470.9226" font-family="Arial" font-size="14.00" fill="#666666">[int]</text>
</g>
<!-- django_admin_log&#45;&gt;auth_user -->
<g id="edge3" class="edge">
<title>django_admin_log:user_id&#45;&gt;auth_user:id</title>
<path fill="none" stroke="#000000" d="M670.7366,-471.5965C679.9276,-463.0473 665.8164,-437.4254 661,-417.0226 654.8351,-390.9076 640.1649,-389.1376 634,-363.0226 624.4525,-322.5787 592.4444,-269.5226 634,-269.5226"/>
<polygon fill="#000000" stroke="#000000" points="670.5769,-471.6444 659.7048,-470.213 665.7884,-473.0835 661,-474.5226 661,-474.5226 661,-474.5226 665.7884,-473.0835 662.2952,-478.8322 670.5769,-471.6444 670.5769,-471.6444"/>
<text text-anchor="start" x="667.9375" y="-484.5226" font-family="Arial" font-size="10.00" fill="#000000">FOREIGN KEY (user_id) REFERENCES auth_user (id)</text>
</g>
<!-- social_auth_usersocialauth -->
<g id="node5" class="node">
<title>social_auth_usersocialauth</title>
<polygon fill="#efefef" stroke="transparent" points="765,-534.5226 765,-569.5226 1093,-569.5226 1093,-534.5226 765,-534.5226"/>
<polygon fill="none" stroke="#000000" points="765,-534.5226 765,-569.5226 1093,-569.5226 1093,-534.5226 765,-534.5226"/>
<text text-anchor="start" x="771.843" y="-547.3226" font-family="Arial Bold" font-size="18.00" fill="#000000">social_auth_usersocialauth</text>
<text text-anchor="start" x="988.9032" y="-547.3226" font-family="Arial" font-size="14.00" fill="#000000"> </text>
<text text-anchor="start" x="992.7938" y="-547.3226" font-family="Arial" font-size="14.00" fill="#666666">[BASE TABLE]</text>
<polygon fill="none" stroke="#000000" points="765,-504.5226 765,-534.5226 1093,-534.5226 1093,-504.5226 765,-504.5226"/>
<text text-anchor="start" x="772" y="-515.9226" font-family="Arial" font-size="14.00" fill="#000000">id </text>
<text text-anchor="start" x="786.7798" y="-515.9226" font-family="Arial" font-size="14.00" fill="#666666">[int]</text>
<polygon fill="none" stroke="#000000" points="765,-474.5226 765,-504.5226 1093,-504.5226 1093,-474.5226 765,-474.5226"/>
<text text-anchor="start" x="772" y="-485.9226" font-family="Arial" font-size="14.00" fill="#000000">user_id </text>
<text text-anchor="start" x="821.7882" y="-485.9226" font-family="Arial" font-size="14.00" fill="#666666">[int]</text>
</g>
<!-- social_auth_usersocialauth&#45;&gt;auth_user -->
<g id="edge4" class="edge">
<title>social_auth_usersocialauth:user_id&#45;&gt;auth_user:id</title>
<path fill="none" stroke="#000000" d="M755.3063,-486.7674C744.926,-478.2695 757.5869,-451.845 765,-432.0226 779.2352,-393.958 810.7648,-401.0872 825,-363.0226 839.5561,-324.0998 866.5556,-269.5226 825,-269.5226"/>
<polygon fill="#000000" stroke="#000000" points="755.381,-486.7886 763.7697,-493.8512 760.1905,-488.1556 765,-489.5226 765,-489.5226 765,-489.5226 760.1905,-488.1556 766.2303,-485.1941 755.381,-486.7886 755.381,-486.7886"/>
<text text-anchor="start" x="576.9375" y="-473.5226" font-family="Arial" font-size="10.00" fill="#000000">FOREIGN KEY (user_id) REFERENCES auth_user (id)</text>
</g>
<!-- django_content_type -->
<g id="node8" class="node">
<title>django_content_type</title>
<polygon fill="#efefef" stroke="transparent" points="1448,-82.5226 1448,-117.5226 1726,-117.5226 1726,-82.5226 1448,-82.5226"/>
<polygon fill="none" stroke="#000000" points="1448,-82.5226 1448,-117.5226 1726,-117.5226 1726,-82.5226 1448,-82.5226"/>
<text text-anchor="start" x="1454.8324" y="-95.3226" font-family="Arial Bold" font-size="18.00" fill="#000000">django_content_type</text>
<text text-anchor="start" x="1621.9138" y="-95.3226" font-family="Arial" font-size="14.00" fill="#000000"> </text>
<text text-anchor="start" x="1625.8044" y="-95.3226" font-family="Arial" font-size="14.00" fill="#666666">[BASE TABLE]</text>
<polygon fill="none" stroke="#000000" points="1448,-52.5226 1448,-82.5226 1726,-82.5226 1726,-52.5226 1448,-52.5226"/>
<text text-anchor="start" x="1455" y="-63.9226" font-family="Arial" font-size="14.00" fill="#000000">id </text>
<text text-anchor="start" x="1469.7798" y="-63.9226" font-family="Arial" font-size="14.00" fill="#666666">[int]</text>
</g>
<!-- auth_permission&#45;&gt;django_content_type -->
<g id="edge7" class="edge">
<title>auth_permission:content_type_id&#45;&gt;django_content_type:id</title>
<path fill="none" stroke="#000000" d="M1587.6591,-229.5249C1597.8154,-157.9909 1722.5768,-231.6031 1769,-161.0226 1795.4992,-120.734 1803.0983,-86.6209 1769,-52.5226 1711.8029,4.6745 1587,28.3663 1587,-52.5226"/>
<polygon fill="#000000" stroke="#000000" points="1587.6579,-229.5443 1582.5097,-239.2265 1587.329,-234.5334 1587,-239.5226 1587,-239.5226 1587,-239.5226 1587.329,-234.5334 1591.4903,-239.8187 1587.6579,-229.5443 1587.6579,-229.5443"/>
<text text-anchor="start" x="1593.8555" y="-249.5226" font-family="Arial" font-size="10.00" fill="#000000">FOREIGN KEY (content_type_id) REFERENCES django_content_type (id)</text>
</g>
<!-- auth_group_permissions -->
<g id="node7" class="node">
<title>auth_group_permissions</title>
<polygon fill="#efefef" stroke="transparent" points="1649,-549.5226 1649,-584.5226 1957,-584.5226 1957,-549.5226 1649,-549.5226"/>
<polygon fill="none" stroke="#000000" points="1649,-549.5226 1649,-584.5226 1957,-584.5226 1957,-549.5226 1649,-549.5226"/>
<text text-anchor="start" x="1655.8492" y="-562.3226" font-family="Arial Bold" font-size="18.00" fill="#000000">auth_group_permissions</text>
<text text-anchor="start" x="1852.897" y="-562.3226" font-family="Arial" font-size="14.00" fill="#000000"> </text>
<text text-anchor="start" x="1856.7876" y="-562.3226" font-family="Arial" font-size="14.00" fill="#666666">[BASE TABLE]</text>
<polygon fill="none" stroke="#000000" points="1649,-519.5226 1649,-549.5226 1957,-549.5226 1957,-519.5226 1649,-519.5226"/>
<text text-anchor="start" x="1656" y="-530.9226" font-family="Arial" font-size="14.00" fill="#000000">id </text>
<text text-anchor="start" x="1670.7798" y="-530.9226" font-family="Arial" font-size="14.00" fill="#666666">[int]</text>
<polygon fill="none" stroke="#000000" points="1649,-489.5226 1649,-519.5226 1957,-519.5226 1957,-489.5226 1649,-489.5226"/>
<text text-anchor="start" x="1656" y="-500.9226" font-family="Arial" font-size="14.00" fill="#000000">group_id </text>
<text text-anchor="start" x="1714.3534" y="-500.9226" font-family="Arial" font-size="14.00" fill="#666666">[int]</text>
<polygon fill="none" stroke="#000000" points="1649,-459.5226 1649,-489.5226 1957,-489.5226 1957,-459.5226 1649,-459.5226"/>
<text text-anchor="start" x="1656" y="-470.9226" font-family="Arial" font-size="14.00" fill="#000000">permission_id </text>
<text text-anchor="start" x="1746.2272" y="-470.9226" font-family="Arial" font-size="14.00" fill="#666666">[int]</text>
</g>
<!-- auth_group_permissions&#45;&gt;auth_permission -->
<g id="edge6" class="edge">
<title>auth_group_permissions:permission_id&#45;&gt;auth_permission:id</title>
<path fill="none" stroke="#000000" d="M1639.075,-471.6626C1628.029,-462.8629 1638.9774,-435.662 1649,-417.0226 1663.8863,-389.3378 1693.1137,-405.7074 1708,-378.0226 1727.6801,-341.4226 1749.5556,-284.5226 1708,-284.5226"/>
<polygon fill="#000000" stroke="#000000" points="1639.391,-471.7535 1647.7539,-478.8467 1644.1955,-473.1381 1649,-474.5226 1649,-474.5226 1649,-474.5226 1644.1955,-473.1381 1650.2461,-470.1986 1639.391,-471.7535 1639.391,-471.7535"/>
<text text-anchor="start" x="1656.0525" y="-458.5226" font-family="Arial" font-size="10.00" fill="#000000">FOREIGN KEY (permission_id) REFERENCES auth_permission (id)</text>
</g>
</g>
</svg>
