<?xml version="1.0" encoding="UTF-8" standalone="no"?>
<!DOCTYPE svg PUBLIC "-//W3C//DTD SVG 1.1//EN"
 "http://www.w3.org/Graphics/SVG/1.1/DTD/svg11.dtd">
<!-- Generated by graphviz version 2.40.1 (20161225.0304)
 -->
<!-- Title: auth_permission Pages: 1 -->
<svg width="1588pt" height="653pt"
 viewBox="0.00 0.00 1588.00 653.00" xmlns="http://www.w3.org/2000/svg" xmlns:xlink="http://www.w3.org/1999/xlink">
<g id="graph0" class="graph" transform="scale(1 1) rotate(0) translate(4 649)">
<title>auth_permission</title>
<polygon fill="#ffffff" stroke="transparent" points="-4,4 -4,-649 1584,-649 1584,4 -4,4"/>
<!-- auth_permission -->
<g id="node1" class="node">
<title>auth_permission</title>
<polygon fill="#efefef" stroke="transparent" points="760,-304.5 760,-339.5 1003,-339.5 1003,-304.5 760,-304.5"/>
<polygon fill="none" stroke="#000000" points="760,-304.5 760,-339.5 1003,-339.5 1003,-304.5 760,-304.5"/>
<text text-anchor="start" x="766.8608" y="-317.3" font-family="Arial Bold" font-size="18.00" fill="#000000">auth_permission</text>
<text text-anchor="start" x="898.8854" y="-317.3" font-family="Arial" font-size="14.00" fill="#000000"> </text>
<text text-anchor="start" x="902.776" y="-317.3" font-family="Arial" font-size="14.00" fill="#666666">[BASE TABLE]</text>
<polygon fill="none" stroke="#000000" points="760,-274.5 760,-304.5 1003,-304.5 1003,-274.5 760,-274.5"/>
<text text-anchor="start" x="767" y="-285.9" font-family="Arial" font-size="14.00" fill="#000000">id </text>
<text text-anchor="start" x="781.7798" y="-285.9" font-family="Arial" font-size="14.00" fill="#666666">[int]</text>
<polygon fill="none" stroke="#000000" points="760,-244.5 760,-274.5 1003,-274.5 1003,-244.5 760,-244.5"/>
<text text-anchor="start" x="767" y="-255.9" font-family="Arial" font-size="14.00" fill="#000000">content_type_id </text>
<text text-anchor="start" x="869.7124" y="-255.9" font-family="Arial" font-size="14.00" fill="#666666">[int]</text>
<polygon fill="none" stroke="#000000" stroke-width="3" points="758,-243.5 758,-341.5 1004,-341.5 1004,-243.5 758,-243.5"/>
</g>
<!-- django_content_type -->
<g id="node6" class="node">
<title>django_content_type</title>
<polygon fill="#efefef" stroke="transparent" points="410,-72.5 410,-107.5 688,-107.5 688,-72.5 410,-72.5"/>
<polygon fill="none" stroke="#000000" points="410,-72.5 410,-107.5 688,-107.5 688,-72.5 410,-72.5"/>
<text text-anchor="start" x="416.8324" y="-85.3" font-family="Arial Bold" font-size="18.00" fill="#000000">django_content_type</text>
<text text-anchor="start" x="583.9138" y="-85.3" font-family="Arial" font-size="14.00" fill="#000000"> </text>
<text text-anchor="start" x="587.8044" y="-85.3" font-family="Arial" font-size="14.00" fill="#666666">[BASE TABLE]</text>
<polygon fill="none" stroke="#000000" points="410,-42.5 410,-72.5 688,-72.5 688,-42.5 410,-42.5"/>
<text text-anchor="start" x="417" y="-53.9" font-family="Arial" font-size="14.00" fill="#000000">id </text>
<text text-anchor="start" x="431.7798" y="-53.9" font-family="Arial" font-size="14.00" fill="#666666">[int]</text>
</g>
<!-- auth_permission&#45;&gt;django_content_type -->
<g id="edge5" class="edge">
<title>auth_permission:content_type_id&#45;&gt;django_content_type:id</title>
<path fill="none" stroke="#000000" d="M749.7846,-258.5994C673.6305,-244.027 779.5872,-57.5 688,-57.5"/>
<polygon fill="#000000" stroke="#000000" points="750.0386,-258.6217 759.6048,-263.9826 755.0193,-259.0609 760,-259.5 760,-259.5 760,-259.5 755.0193,-259.0609 760.3952,-255.0174 750.0386,-258.6217 750.0386,-258.6217"/>
<text text-anchor="start" x="507.3555" y="-243.5" font-family="Arial" font-size="10.00" fill="#000000">FOREIGN KEY (content_type_id) REFERENCES django_content_type (id)</text>
</g>
<!-- auth_group_permissions -->
<g id="node2" class="node">
<title>auth_group_permissions</title>
<polygon fill="#efefef" stroke="transparent" points="453,-566.5 453,-601.5 761,-601.5 761,-566.5 453,-566.5"/>
<polygon fill="none" stroke="#000000" points="453,-566.5 453,-601.5 761,-601.5 761,-566.5 453,-566.5"/>
<text text-anchor="start" x="459.8492" y="-579.3" font-family="Arial Bold" font-size="18.00" fill="#000000">auth_group_permissions</text>
<text text-anchor="start" x="656.897" y="-579.3" font-family="Arial" font-size="14.00" fill="#000000"> </text>
<text text-anchor="start" x="660.7876" y="-579.3" font-family="Arial" font-size="14.00" fill="#666666">[BASE TABLE]</text>
<polygon fill="none" stroke="#000000" points="453,-536.5 453,-566.5 761,-566.5 761,-536.5 453,-536.5"/>
<text text-anchor="start" x="460" y="-547.9" font-family="Arial" font-size="14.00" fill="#000000">id </text>
<text text-anchor="start" x="474.7798" y="-547.9" font-family="Arial" font-size="14.00" fill="#666666">[int]</text>
<polygon fill="none" stroke="#000000" points="453,-506.5 453,-536.5 761,-536.5 761,-506.5 453,-506.5"/>
<text text-anchor="start" x="460" y="-517.9" font-family="Arial" font-size="14.00" fill="#000000">group_id </text>
<text text-anchor="start" x="518.3534" y="-517.9" font-family="Arial" font-size="14.00" fill="#666666">[int]</text>
<polygon fill="none" stroke="#000000" points="453,-476.5 453,-506.5 761,-506.5 761,-476.5 453,-476.5"/>
<text text-anchor="start" x="460" y="-487.9" font-family="Arial" font-size="14.00" fill="#000000">permission_id </text>
<text text-anchor="start" x="550.2272" y="-487.9" font-family="Arial" font-size="14.00" fill="#666666">[int]</text>
</g>
<!-- auth_group_permissions&#45;&gt;auth_permission -->
<g id="edge1" class="edge">
<title>auth_group_permissions:permission_id&#45;&gt;auth_permission:id</title>
<path fill="none" stroke="#000000" d="M771.1186,-490.4132C835.7613,-474.5136 674.0788,-289.5 760,-289.5"/>
<polygon fill="#000000" stroke="#000000" points="770.9428,-490.432 760.5194,-487.0257 765.9714,-490.966 761,-491.5 761,-491.5 761,-491.5 765.9714,-490.966 761.4806,-495.9743 770.9428,-490.432 770.9428,-490.432"/>
<text text-anchor="start" x="768.0525" y="-501.5" font-family="Arial" font-size="10.00" fill="#000000">FOREIGN KEY (permission_id) REFERENCES auth_permission (id)</text>
</g>
<!-- auth_group -->
<g id="node3" class="node">
<title>auth_group</title>
<polygon fill="#efefef" stroke="transparent" points="450,-289.5 450,-324.5 652,-324.5 652,-289.5 450,-289.5"/>
<polygon fill="none" stroke="#000000" points="450,-289.5 450,-324.5 652,-324.5 652,-289.5 450,-289.5"/>
<text text-anchor="start" x="456.8511" y="-302.3" font-family="Arial Bold" font-size="18.00" fill="#000000">auth_group</text>
<text text-anchor="start" x="547.8951" y="-302.3" font-family="Arial" font-size="14.00" fill="#000000"> </text>
<text text-anchor="start" x="551.7857" y="-302.3" font-family="Arial" font-size="14.00" fill="#666666">[BASE TABLE]</text>
<polygon fill="none" stroke="#000000" points="450,-259.5 450,-289.5 652,-289.5 652,-259.5 450,-259.5"/>
<text text-anchor="start" x="457" y="-270.9" font-family="Arial" font-size="14.00" fill="#000000">id </text>
<text text-anchor="start" x="471.7798" y="-270.9" font-family="Arial" font-size="14.00" fill="#666666">[int]</text>
</g>
<!-- auth_group_permissions&#45;&gt;auth_group -->
<g id="edge2" class="edge">
<title>auth_group_permissions:group_id&#45;&gt;auth_group:id</title>
<path fill="none" stroke="#000000" d="M442.8028,-519.8523C417.4552,-510.3834 432.5493,-462.3288 453,-434 507.5414,-358.448 597.4586,-443.552 652,-368 676.3234,-334.3067 693.5556,-274.5 652,-274.5"/>
<polygon fill="#000000" stroke="#000000" points="443.128,-519.9048 452.2821,-525.9424 448.064,-520.7024 453,-521.5 453,-521.5 453,-521.5 448.064,-520.7024 453.7179,-517.0576 443.128,-519.9048 443.128,-519.9048"/>
<text text-anchor="start" x="187.8195" y="-531.5" font-family="Arial" font-size="10.00" fill="#000000">FOREIGN KEY (group_id) REFERENCES auth_group (id)</text>
</g>
<!-- auth_user_user_permissions -->
<g id="node4" class="node">
<title>auth_user_user_permissions</title>
<polygon fill="#efefef" stroke="transparent" points="978,-566.5 978,-601.5 1320,-601.5 1320,-566.5 978,-566.5"/>
<polygon fill="none" stroke="#000000" points="978,-566.5 978,-601.5 1320,-601.5 1320,-566.5 978,-566.5"/>
<text text-anchor="start" x="984.85" y="-579.3" font-family="Arial Bold" font-size="18.00" fill="#000000">auth_user_user_permissions</text>
<text text-anchor="start" x="1215.8962" y="-579.3" font-family="Arial" font-size="14.00" fill="#000000"> </text>
<text text-anchor="start" x="1219.7868" y="-579.3" font-family="Arial" font-size="14.00" fill="#666666">[BASE TABLE]</text>
<polygon fill="none" stroke="#000000" points="978,-536.5 978,-566.5 1320,-566.5 1320,-536.5 978,-536.5"/>
<text text-anchor="start" x="985" y="-547.9" font-family="Arial" font-size="14.00" fill="#000000">id </text>
<text text-anchor="start" x="999.7798" y="-547.9" font-family="Arial" font-size="14.00" fill="#666666">[int]</text>
<polygon fill="none" stroke="#000000" points="978,-506.5 978,-536.5 1320,-536.5 1320,-506.5 978,-506.5"/>
<text text-anchor="start" x="985" y="-517.9" font-family="Arial" font-size="14.00" fill="#000000">user_id </text>
<text text-anchor="start" x="1034.7882" y="-517.9" font-family="Arial" font-size="14.00" fill="#666666">[int]</text>
<polygon fill="none" stroke="#000000" points="978,-476.5 978,-506.5 1320,-506.5 1320,-476.5 978,-476.5"/>
<text text-anchor="start" x="985" y="-487.9" font-family="Arial" font-size="14.00" fill="#000000">permission_id </text>
<text text-anchor="start" x="1075.2272" y="-487.9" font-family="Arial" font-size="14.00" fill="#666666">[int]</text>
</g>
<!-- auth_user_user_permissions&#45;&gt;auth_permission -->
<g id="edge3" class="edge">
<title>auth_user_user_permissions:permission_id&#45;&gt;auth_permission:id</title>
<path fill="none" stroke="#000000" d="M968.2471,-488.5699C959.0119,-480.0102 973.0151,-454.3622 978,-434 983.7196,-410.6365 997.2804,-409.3635 1003,-386 1013.1984,-344.3413 1045.8889,-289.5 1003,-289.5"/>
<polygon fill="#000000" stroke="#000000" points="968.4229,-488.6227 976.7052,-495.8097 973.2114,-490.0613 978,-491.5 978,-491.5 978,-491.5 973.2114,-490.0613 979.2948,-487.1903 968.4229,-488.6227 968.4229,-488.6227"/>
<text text-anchor="start" x="826.5525" y="-475.5" font-family="Arial" font-size="10.00" fill="#000000">FOREIGN KEY (permission_id) REFERENCES auth_permission (id)</text>
</g>
<!-- auth_user -->
<g id="node5" class="node">
<title>auth_user</title>
<polygon fill="#efefef" stroke="transparent" points="1110,-289.5 1110,-324.5 1301,-324.5 1301,-289.5 1110,-289.5"/>
<polygon fill="none" stroke="#000000" points="1110,-289.5 1110,-324.5 1301,-324.5 1301,-289.5 1110,-289.5"/>
<text text-anchor="start" x="1116.8573" y="-302.3" font-family="Arial Bold" font-size="18.00" fill="#000000">auth_user</text>
<text text-anchor="start" x="1196.8889" y="-302.3" font-family="Arial" font-size="14.00" fill="#000000"> </text>
<text text-anchor="start" x="1200.7795" y="-302.3" font-family="Arial" font-size="14.00" fill="#666666">[BASE TABLE]</text>
<polygon fill="none" stroke="#000000" points="1110,-259.5 1110,-289.5 1301,-289.5 1301,-259.5 1110,-259.5"/>
<text text-anchor="start" x="1117" y="-270.9" font-family="Arial" font-size="14.00" fill="#000000">id </text>
<text text-anchor="start" x="1131.7798" y="-270.9" font-family="Arial" font-size="14.00" fill="#666666">[int]</text>
</g>
<!-- auth_user_user_permissions&#45;&gt;auth_user -->
<g id="edge4" class="edge">
<title>auth_user_user_permissions:user_id&#45;&gt;auth_user:id</title>
<path fill="none" stroke="#000000" d="M1330.2041,-519.8473C1355.5899,-510.3505 1340.6729,-462.167 1320,-434 1262.1133,-355.1287 1167.8867,-446.8713 1110,-368 1085.4124,-334.4991 1068.4444,-274.5 1110,-274.5"/>
<polygon fill="#000000" stroke="#000000" points="1329.8714,-519.9011 1319.2805,-517.0579 1324.9357,-520.7005 1320,-521.5 1320,-521.5 1320,-521.5 1324.9357,-520.7005 1320.7195,-525.9421 1329.8714,-519.9011 1329.8714,-519.9011"/>
<text text-anchor="start" x="1326.9375" y="-531.5" font-family="Arial" font-size="10.00" fill="#000000">FOREIGN KEY (user_id) REFERENCES auth_user (id)</text>
</g>
<!-- django_admin_log -->
<g id="node7" class="node">
<title>django_admin_log</title>
<polygon fill="#efefef" stroke="transparent" points="88,-319.5 88,-354.5 346,-354.5 346,-319.5 88,-319.5"/>
<polygon fill="none" stroke="#000000" points="88,-319.5 88,-354.5 346,-354.5 346,-319.5 88,-319.5"/>
<text text-anchor="start" x="94.8485" y="-332.3" font-family="Arial Bold" font-size="18.00" fill="#000000">django_admin_log</text>
<text text-anchor="start" x="241.8977" y="-332.3" font-family="Arial" font-size="14.00" fill="#000000"> </text>
<text text-anchor="start" x="245.7883" y="-332.3" font-family="Arial" font-size="14.00" fill="#666666">[BASE TABLE]</text>
<polygon fill="none" stroke="#000000" points="88,-289.5 88,-319.5 346,-319.5 346,-289.5 88,-289.5"/>
<text text-anchor="start" x="95" y="-300.9" font-family="Arial" font-size="14.00" fill="#000000">id </text>
<text text-anchor="start" x="109.7798" y="-300.9" font-family="Arial" font-size="14.00" fill="#666666">[int]</text>
<polygon fill="none" stroke="#000000" points="88,-259.5 88,-289.5 346,-289.5 346,-259.5 88,-259.5"/>
<text text-anchor="start" x="95" y="-270.9" font-family="Arial" font-size="14.00" fill="#000000">content_type_id </text>
<text text-anchor="start" x="197.7124" y="-270.9" font-family="Arial" font-size="14.00" fill="#666666">[int]</text>
<polygon fill="none" stroke="#000000" points="88,-229.5 88,-259.5 346,-259.5 346,-229.5 88,-229.5"/>
<text text-anchor="start" x="95" y="-240.9" font-family="Arial" font-size="14.00" fill="#000000">user_id </text>
<text text-anchor="start" x="144.7882" y="-240.9" font-family="Arial" font-size="14.00" fill="#666666">[int]</text>
</g>
<!-- django_admin_log&#45;&gt;django_content_type -->
<g id="edge6" class="edge">
<title>django_admin_log:content_type_id&#45;&gt;django_content_type:id</title>
<path fill="none" stroke="#000000" d="M356.2367,-273.6257C436.7032,-258.6934 313.1798,-57.5 410,-57.5"/>
<polygon fill="#000000" stroke="#000000" points="355.9637,-273.6489 345.617,-270.0163 350.9819,-274.0745 346,-274.5 346,-274.5 346,-274.5 350.9819,-274.0745 346.383,-278.9837 355.9637,-273.6489 355.9637,-273.6489"/>
<text text-anchor="start" x="6.8555" y="-284.5" font-family="Arial" font-size="10.00" fill="#000000">FOREIGN KEY (content_type_id) REFERENCES django_content_type (id)</text>
</g>
</g>
</svg>
