<?xml version="1.0" encoding="UTF-8" standalone="no"?>
<!DOCTYPE svg PUBLIC "-//W3C//DTD SVG 1.1//EN"
 "http://www.w3.org/Graphics/SVG/1.1/DTD/svg11.dtd">
<!-- Generated by graphviz version 2.40.1 (20161225.0304)
 -->
<!-- Title: auth_user Pages: 1 -->
<svg width="1590pt" height="862pt"
 viewBox="0.00 0.00 1590.00 862.00" xmlns="http://www.w3.org/2000/svg" xmlns:xlink="http://www.w3.org/1999/xlink">
<g id="graph0" class="graph" transform="scale(1 1) rotate(0) translate(4 858)">
<title>auth_user</title>
<polygon fill="#ffffff" stroke="transparent" points="-4,4 -4,-858 1586,-858 1586,4 -4,4"/>
<!-- auth_user -->
<g id="node1" class="node">
<title>auth_user</title>
<polygon fill="#efefef" stroke="transparent" points="680,-375.5 680,-410.5 871,-410.5 871,-375.5 680,-375.5"/>
<polygon fill="none" stroke="#000000" points="680,-375.5 680,-410.5 871,-410.5 871,-375.5 680,-375.5"/>
<text text-anchor="start" x="686.8573" y="-388.3" font-family="Arial Bold" font-size="18.00" fill="#000000">auth_user</text>
<text text-anchor="start" x="766.8889" y="-388.3" font-family="Arial" font-size="14.00" fill="#000000"> </text>
<text text-anchor="start" x="770.7795" y="-388.3" font-family="Arial" font-size="14.00" fill="#666666">[BASE TABLE]</text>
<polygon fill="none" stroke="#000000" points="680,-345.5 680,-375.5 871,-375.5 871,-345.5 680,-345.5"/>
<text text-anchor="start" x="687" y="-356.9" font-family="Arial" font-size="14.00" fill="#000000">id </text>
<text text-anchor="start" x="701.7798" y="-356.9" font-family="Arial" font-size="14.00" fill="#666666">[int]</text>
<polygon fill="none" stroke="#000000" points="680,-315.5 680,-345.5 871,-345.5 871,-315.5 680,-315.5"/>
<text text-anchor="start" x="687" y="-326.9" font-family="Arial" font-size="14.00" fill="#000000">password </text>
<text text-anchor="start" x="750.7882" y="-326.9" font-family="Arial" font-size="14.00" fill="#666666">[varchar(128)]</text>
<polygon fill="none" stroke="#000000" points="680,-285.5 680,-315.5 871,-315.5 871,-285.5 680,-285.5"/>
<text text-anchor="start" x="687" y="-296.9" font-family="Arial" font-size="14.00" fill="#000000">last_login </text>
<text text-anchor="start" x="750.014" y="-296.9" font-family="Arial" font-size="14.00" fill="#666666">[datetime(6)]</text>
<polygon fill="none" stroke="#000000" points="680,-255.5 680,-285.5 871,-285.5 871,-255.5 680,-255.5"/>
<text text-anchor="start" x="687" y="-266.9" font-family="Arial" font-size="14.00" fill="#000000">is_superuser </text>
<text text-anchor="start" x="771.014" y="-266.9" font-family="Arial" font-size="14.00" fill="#666666">[tinyint(1)]</text>
<polygon fill="none" stroke="#000000" points="680,-225.5 680,-255.5 871,-255.5 871,-225.5 680,-225.5"/>
<text text-anchor="start" x="687" y="-236.9" font-family="Arial" font-size="14.00" fill="#000000">username </text>
<text text-anchor="start" x="753.1248" y="-236.9" font-family="Arial" font-size="14.00" fill="#666666">[varchar(150)]</text>
<polygon fill="none" stroke="#000000" points="680,-195.5 680,-225.5 871,-225.5 871,-195.5 680,-195.5"/>
<text text-anchor="start" x="687" y="-206.9" font-family="Arial" font-size="14.00" fill="#000000">first_name </text>
<text text-anchor="start" x="756.23" y="-206.9" font-family="Arial" font-size="14.00" fill="#666666">[varchar(30)]</text>
<polygon fill="none" stroke="#000000" points="680,-165.5 680,-195.5 871,-195.5 871,-165.5 680,-165.5"/>
<text text-anchor="start" x="687" y="-176.9" font-family="Arial" font-size="14.00" fill="#000000">last_name </text>
<text text-anchor="start" x="755.4614" y="-176.9" font-family="Arial" font-size="14.00" fill="#666666">[varchar(150)]</text>
<polygon fill="none" stroke="#000000" points="680,-135.5 680,-165.5 871,-165.5 871,-135.5 680,-135.5"/>
<text text-anchor="start" x="687" y="-146.9" font-family="Arial" font-size="14.00" fill="#000000">email </text>
<text text-anchor="start" x="724.3296" y="-146.9" font-family="Arial" font-size="14.00" fill="#666666">[varchar(254)]</text>
<polygon fill="none" stroke="#000000" points="680,-105.5 680,-135.5 871,-135.5 871,-105.5 680,-105.5"/>
<text text-anchor="start" x="687" y="-116.9" font-family="Arial" font-size="14.00" fill="#000000">is_staff </text>
<text text-anchor="start" x="735.2342" y="-116.9" font-family="Arial" font-size="14.00" fill="#666666">[tinyint(1)]</text>
<polygon fill="none" stroke="#000000" points="680,-75.5 680,-105.5 871,-105.5 871,-75.5 680,-75.5"/>
<text text-anchor="start" x="687" y="-86.9" font-family="Arial" font-size="14.00" fill="#000000">is_active </text>
<text text-anchor="start" x="745.3422" y="-86.9" font-family="Arial" font-size="14.00" fill="#666666">[tinyint(1)]</text>
<polygon fill="none" stroke="#000000" points="680,-45.5 680,-75.5 871,-75.5 871,-45.5 680,-45.5"/>
<text text-anchor="start" x="687" y="-56.9" font-family="Arial" font-size="14.00" fill="#000000">date_joined </text>
<text text-anchor="start" x="763.2552" y="-56.9" font-family="Arial" font-size="14.00" fill="#666666">[datetime(6)]</text>
<polygon fill="none" stroke="#000000" stroke-width="3" points="678,-44.5 678,-412.5 872,-412.5 872,-44.5 678,-44.5"/>
</g>
<!-- auth_user_groups -->
<g id="node2" class="node">
<title>auth_user_groups</title>
<polygon fill="#efefef" stroke="transparent" points="43,-700.5 43,-735.5 299,-735.5 299,-700.5 43,-700.5"/>
<polygon fill="none" stroke="#000000" points="43,-700.5 43,-735.5 299,-735.5 299,-700.5 43,-700.5"/>
<text text-anchor="start" x="49.8457" y="-713.3" font-family="Arial Bold" font-size="18.00" fill="#000000">auth_user_groups</text>
<text text-anchor="start" x="194.9005" y="-713.3" font-family="Arial" font-size="14.00" fill="#000000"> </text>
<text text-anchor="start" x="198.7911" y="-713.3" font-family="Arial" font-size="14.00" fill="#666666">[BASE TABLE]</text>
<polygon fill="none" stroke="#000000" points="43,-670.5 43,-700.5 299,-700.5 299,-670.5 43,-670.5"/>
<text text-anchor="start" x="50" y="-681.9" font-family="Arial" font-size="14.00" fill="#000000">id </text>
<text text-anchor="start" x="64.7798" y="-681.9" font-family="Arial" font-size="14.00" fill="#666666">[int]</text>
<polygon fill="none" stroke="#000000" points="43,-640.5 43,-670.5 299,-670.5 299,-640.5 43,-640.5"/>
<text text-anchor="start" x="50" y="-651.9" font-family="Arial" font-size="14.00" fill="#000000">user_id </text>
<text text-anchor="start" x="99.7882" y="-651.9" font-family="Arial" font-size="14.00" fill="#666666">[int]</text>
<polygon fill="none" stroke="#000000" points="43,-610.5 43,-640.5 299,-640.5 299,-610.5 43,-610.5"/>
<text text-anchor="start" x="50" y="-621.9" font-family="Arial" font-size="14.00" fill="#000000">group_id </text>
<text text-anchor="start" x="108.3534" y="-621.9" font-family="Arial" font-size="14.00" fill="#666666">[int]</text>
</g>
<!-- auth_user_groups&#45;&gt;auth_user -->
<g id="edge1" class="edge">
<title>auth_user_groups:user_id&#45;&gt;auth_user:id</title>
<path fill="none" stroke="#000000" d="M309.0582,-654.7534C367.7644,-645.1777 301.8977,-545.8328 351,-493 458.3139,-377.5332 522.3649,-360.5 680,-360.5"/>
<polygon fill="#000000" stroke="#000000" points="308.9726,-654.7597 298.6669,-651.0123 303.9863,-655.1299 299,-655.5 299,-655.5 299,-655.5 303.9863,-655.1299 299.3331,-659.9877 308.9726,-654.7597 308.9726,-654.7597"/>
<text text-anchor="start" x="175.9375" y="-639.5" font-family="Arial" font-size="10.00" fill="#000000">FOREIGN KEY (user_id) REFERENCES auth_user (id)</text>
</g>
<!-- auth_user_user_permissions -->
<g id="node3" class="node">
<title>auth_user_user_permissions</title>
<polygon fill="#efefef" stroke="transparent" points="403,-700.5 403,-735.5 745,-735.5 745,-700.5 403,-700.5"/>
<polygon fill="none" stroke="#000000" points="403,-700.5 403,-735.5 745,-735.5 745,-700.5 403,-700.5"/>
<text text-anchor="start" x="409.85" y="-713.3" font-family="Arial Bold" font-size="18.00" fill="#000000">auth_user_user_permissions</text>
<text text-anchor="start" x="640.8962" y="-713.3" font-family="Arial" font-size="14.00" fill="#000000"> </text>
<text text-anchor="start" x="644.7868" y="-713.3" font-family="Arial" font-size="14.00" fill="#666666">[BASE TABLE]</text>
<polygon fill="none" stroke="#000000" points="403,-670.5 403,-700.5 745,-700.5 745,-670.5 403,-670.5"/>
<text text-anchor="start" x="410" y="-681.9" font-family="Arial" font-size="14.00" fill="#000000">id </text>
<text text-anchor="start" x="424.7798" y="-681.9" font-family="Arial" font-size="14.00" fill="#666666">[int]</text>
<polygon fill="none" stroke="#000000" points="403,-640.5 403,-670.5 745,-670.5 745,-640.5 403,-640.5"/>
<text text-anchor="start" x="410" y="-651.9" font-family="Arial" font-size="14.00" fill="#000000">user_id </text>
<text text-anchor="start" x="459.7882" y="-651.9" font-family="Arial" font-size="14.00" fill="#666666">[int]</text>
<polygon fill="none" stroke="#000000" points="403,-610.5 403,-640.5 745,-640.5 745,-610.5 403,-610.5"/>
<text text-anchor="start" x="410" y="-621.9" font-family="Arial" font-size="14.00" fill="#000000">permission_id </text>
<text text-anchor="start" x="500.2272" y="-621.9" font-family="Arial" font-size="14.00" fill="#666666">[int]</text>
</g>
<!-- auth_user_user_permissions&#45;&gt;auth_user -->
<g id="edge2" class="edge">
<title>auth_user_user_permissions:user_id&#45;&gt;auth_user:id</title>
<path fill="none" stroke="#000000" d="M754.9831,-654.8504C861.3669,-639.5878 549.415,-360.5 680,-360.5"/>
<polygon fill="#000000" stroke="#000000" points="754.9789,-654.8505 744.7077,-651.0095 749.9894,-655.1753 745,-655.5 745,-655.5 745,-655.5 749.9894,-655.1753 745.2923,-659.9905 754.9789,-654.8505 754.9789,-654.8505"/>
<text text-anchor="start" x="751.9375" y="-665.5" font-family="Arial" font-size="10.00" fill="#000000">FOREIGN KEY (user_id) REFERENCES auth_user (id)</text>
</g>
<!-- django_admin_log -->
<g id="node4" class="node">
<title>django_admin_log</title>
<polygon fill="#efefef" stroke="transparent" points="849,-775.5 849,-810.5 1107,-810.5 1107,-775.5 849,-775.5"/>
<polygon fill="none" stroke="#000000" points="849,-775.5 849,-810.5 1107,-810.5 1107,-775.5 849,-775.5"/>
<text text-anchor="start" x="855.8485" y="-788.3" font-family="Arial Bold" font-size="18.00" fill="#000000">django_admin_log</text>
<text text-anchor="start" x="1002.8977" y="-788.3" font-family="Arial" font-size="14.00" fill="#000000"> </text>
<text text-anchor="start" x="1006.7883" y="-788.3" font-family="Arial" font-size="14.00" fill="#666666">[BASE TABLE]</text>
<polygon fill="none" stroke="#000000" points="849,-745.5 849,-775.5 1107,-775.5 1107,-745.5 849,-745.5"/>
<text text-anchor="start" x="856" y="-756.9" font-family="Arial" font-size="14.00" fill="#000000">id </text>
<text text-anchor="start" x="870.7798" y="-756.9" font-family="Arial" font-size="14.00" fill="#666666">[int]</text>
<polygon fill="none" stroke="#000000" points="849,-715.5 849,-745.5 1107,-745.5 1107,-715.5 849,-715.5"/>
<text text-anchor="start" x="856" y="-726.9" font-family="Arial" font-size="14.00" fill="#000000">action_time </text>
<text text-anchor="start" x="931.4586" y="-726.9" font-family="Arial" font-size="14.00" fill="#666666">[datetime(6)]</text>
<polygon fill="none" stroke="#000000" points="849,-685.5 849,-715.5 1107,-715.5 1107,-685.5 849,-685.5"/>
<text text-anchor="start" x="856" y="-696.9" font-family="Arial" font-size="14.00" fill="#000000">object_id </text>
<text text-anchor="start" x="915.9074" y="-696.9" font-family="Arial" font-size="14.00" fill="#666666">[longtext]</text>
<polygon fill="none" stroke="#000000" points="849,-655.5 849,-685.5 1107,-685.5 1107,-655.5 849,-655.5"/>
<text text-anchor="start" x="856" y="-666.9" font-family="Arial" font-size="14.00" fill="#000000">object_repr </text>
<text text-anchor="start" x="929.9046" y="-666.9" font-family="Arial" font-size="14.00" fill="#666666">[varchar(200)]</text>
<polygon fill="none" stroke="#000000" points="849,-625.5 849,-655.5 1107,-655.5 1107,-625.5 849,-625.5"/>
<text text-anchor="start" x="856" y="-636.9" font-family="Arial" font-size="14.00" fill="#000000">action_flag </text>
<text text-anchor="start" x="927.5806" y="-636.9" font-family="Arial" font-size="14.00" fill="#666666">[smallint unsigned]</text>
<polygon fill="none" stroke="#000000" points="849,-595.5 849,-625.5 1107,-625.5 1107,-595.5 849,-595.5"/>
<text text-anchor="start" x="856" y="-606.9" font-family="Arial" font-size="14.00" fill="#000000">change_message </text>
<text text-anchor="start" x="970.3772" y="-606.9" font-family="Arial" font-size="14.00" fill="#666666">[longtext]</text>
<polygon fill="none" stroke="#000000" points="849,-565.5 849,-595.5 1107,-595.5 1107,-565.5 849,-565.5"/>
<text text-anchor="start" x="856" y="-576.9" font-family="Arial" font-size="14.00" fill="#000000">content_type_id </text>
<text text-anchor="start" x="958.7124" y="-576.9" font-family="Arial" font-size="14.00" fill="#666666">[int]</text>
<polygon fill="none" stroke="#000000" points="849,-535.5 849,-565.5 1107,-565.5 1107,-535.5 849,-535.5"/>
<text text-anchor="start" x="856" y="-546.9" font-family="Arial" font-size="14.00" fill="#000000">user_id </text>
<text text-anchor="start" x="905.7882" y="-546.9" font-family="Arial" font-size="14.00" fill="#666666">[int]</text>
</g>
<!-- django_admin_log&#45;&gt;auth_user -->
<g id="edge3" class="edge">
<title>django_admin_log:user_id&#45;&gt;auth_user:id</title>
<path fill="none" stroke="#000000" d="M839.1799,-547.5523C829.7628,-538.9446 843.322,-513.18 849,-493 854.0787,-474.9498 865.9213,-475.0502 871,-457 882.6164,-415.7142 913.8889,-360.5 871,-360.5"/>
<polygon fill="#000000" stroke="#000000" points="839.4222,-547.6249 847.7062,-554.81 844.2111,-549.0625 849,-550.5 849,-550.5 849,-550.5 844.2111,-549.0625 850.2938,-546.19 839.4222,-547.6249 839.4222,-547.6249"/>
<text text-anchor="start" x="595.9375" y="-534.5" font-family="Arial" font-size="10.00" fill="#000000">FOREIGN KEY (user_id) REFERENCES auth_user (id)</text>
</g>
<!-- social_auth_usersocialauth -->
<g id="node5" class="node">
<title>social_auth_usersocialauth</title>
<polygon fill="#efefef" stroke="transparent" points="1211,-730.5 1211,-765.5 1539,-765.5 1539,-730.5 1211,-730.5"/>
<polygon fill="none" stroke="#000000" points="1211,-730.5 1211,-765.5 1539,-765.5 1539,-730.5 1211,-730.5"/>
<text text-anchor="start" x="1217.843" y="-743.3" font-family="Arial Bold" font-size="18.00" fill="#000000">social_auth_usersocialauth</text>
<text text-anchor="start" x="1434.9032" y="-743.3" font-family="Arial" font-size="14.00" fill="#000000"> </text>
<text text-anchor="start" x="1438.7938" y="-743.3" font-family="Arial" font-size="14.00" fill="#666666">[BASE TABLE]</text>
<polygon fill="none" stroke="#000000" points="1211,-700.5 1211,-730.5 1539,-730.5 1539,-700.5 1211,-700.5"/>
<text text-anchor="start" x="1218" y="-711.9" font-family="Arial" font-size="14.00" fill="#000000">id </text>
<text text-anchor="start" x="1232.7798" y="-711.9" font-family="Arial" font-size="14.00" fill="#666666">[int]</text>
<polygon fill="none" stroke="#000000" points="1211,-670.5 1211,-700.5 1539,-700.5 1539,-670.5 1211,-670.5"/>
<text text-anchor="start" x="1218" y="-681.9" font-family="Arial" font-size="14.00" fill="#000000">provider </text>
<text text-anchor="start" x="1272.4488" y="-681.9" font-family="Arial" font-size="14.00" fill="#666666">[varchar(32)]</text>
<polygon fill="none" stroke="#000000" points="1211,-640.5 1211,-670.5 1539,-670.5 1539,-640.5 1211,-640.5"/>
<text text-anchor="start" x="1218" y="-651.9" font-family="Arial" font-size="14.00" fill="#000000">uid </text>
<text text-anchor="start" x="1240.5624" y="-651.9" font-family="Arial" font-size="14.00" fill="#666666">[varchar(255)]</text>
<polygon fill="none" stroke="#000000" points="1211,-610.5 1211,-640.5 1539,-640.5 1539,-610.5 1211,-610.5"/>
<text text-anchor="start" x="1218" y="-621.9" font-family="Arial" font-size="14.00" fill="#000000">extra_data </text>
<text text-anchor="start" x="1288.028" y="-621.9" font-family="Arial" font-size="14.00" fill="#666666">[longtext]</text>
<polygon fill="none" stroke="#000000" points="1211,-580.5 1211,-610.5 1539,-610.5 1539,-580.5 1211,-580.5"/>
<text text-anchor="start" x="1218" y="-591.9" font-family="Arial" font-size="14.00" fill="#000000">user_id </text>
<text text-anchor="start" x="1267.7882" y="-591.9" font-family="Arial" font-size="14.00" fill="#666666">[int]</text>
</g>
<!-- social_auth_usersocialauth&#45;&gt;auth_user -->
<g id="edge4" class="edge">
<title>social_auth_usersocialauth:user_id&#45;&gt;auth_user:id</title>
<path fill="none" stroke="#000000" d="M1200.9981,-594.4319C1164.8441,-585.7176 1193.074,-525.7937 1159,-493 1057.482,-395.2964 1011.8968,-360.5 871,-360.5"/>
<polygon fill="#000000" stroke="#000000" points="1201.0565,-594.438 1210.5221,-599.9746 1206.0283,-594.969 1211,-595.5 1211,-595.5 1211,-595.5 1206.0283,-594.969 1211.4779,-591.0254 1201.0565,-594.438 1201.0565,-594.438"/>
<text text-anchor="start" x="957.9375" y="-605.5" font-family="Arial" font-size="10.00" fill="#000000">FOREIGN KEY (user_id) REFERENCES auth_user (id)</text>
</g>
</g>
</svg>
