<?xml version="1.0" encoding="UTF-8" standalone="no"?>
<!DOCTYPE svg PUBLIC "-//W3C//DTD SVG 1.1//EN"
 "http://www.w3.org/Graphics/SVG/1.1/DTD/svg11.dtd">
<!-- Generated by graphviz version 2.40.1 (20161225.0304)
 -->
<!-- Title: django_content_type Pages: 1 -->
<svg width="1033pt" height="667pt"
 viewBox="0.00 0.00 1033.00 666.89" xmlns="http://www.w3.org/2000/svg" xmlns:xlink="http://www.w3.org/1999/xlink">
<g id="graph0" class="graph" transform="scale(1 1) rotate(0) translate(4 662.8884)">
<title>django_content_type</title>
<polygon fill="#ffffff" stroke="transparent" points="-4,4 -4,-662.8884 1029,-662.8884 1029,4 -4,4"/>
<!-- django_content_type -->
<g id="node1" class="node">
<title>django_content_type</title>
<polygon fill="#efefef" stroke="transparent" points="278,-83.3884 278,-118.3884 556,-118.3884 556,-83.3884 278,-83.3884"/>
<polygon fill="none" stroke="#000000" points="278,-83.3884 278,-118.3884 556,-118.3884 556,-83.3884 278,-83.3884"/>
<text text-anchor="start" x="284.8324" y="-96.1884" font-family="Arial Bold" font-size="18.00" fill="#000000">django_content_type</text>
<text text-anchor="start" x="451.9138" y="-96.1884" font-family="Arial" font-size="14.00" fill="#000000"> </text>
<text text-anchor="start" x="455.8044" y="-96.1884" font-family="Arial" font-size="14.00" fill="#666666">[BASE TABLE]</text>
<polygon fill="none" stroke="#000000" points="278,-53.3884 278,-83.3884 556,-83.3884 556,-53.3884 278,-53.3884"/>
<text text-anchor="start" x="285" y="-64.7884" font-family="Arial" font-size="14.00" fill="#000000">id </text>
<text text-anchor="start" x="299.7798" y="-64.7884" font-family="Arial" font-size="14.00" fill="#666666">[int]</text>
<polygon fill="none" stroke="#000000" stroke-width="3" points="276.5,-52.3884 276.5,-120.3884 557.5,-120.3884 557.5,-52.3884 276.5,-52.3884"/>
</g>
<!-- auth_permission -->
<g id="node2" class="node">
<title>auth_permission</title>
<polygon fill="#efefef" stroke="transparent" points="289,-318.3884 289,-353.3884 532,-353.3884 532,-318.3884 289,-318.3884"/>
<polygon fill="none" stroke="#000000" points="289,-318.3884 289,-353.3884 532,-353.3884 532,-318.3884 289,-318.3884"/>
<text text-anchor="start" x="295.8608" y="-331.1884" font-family="Arial Bold" font-size="18.00" fill="#000000">auth_permission</text>
<text text-anchor="start" x="427.8854" y="-331.1884" font-family="Arial" font-size="14.00" fill="#000000"> </text>
<text text-anchor="start" x="431.776" y="-331.1884" font-family="Arial" font-size="14.00" fill="#666666">[BASE TABLE]</text>
<polygon fill="none" stroke="#000000" points="289,-288.3884 289,-318.3884 532,-318.3884 532,-288.3884 289,-288.3884"/>
<text text-anchor="start" x="296" y="-299.7884" font-family="Arial" font-size="14.00" fill="#000000">id </text>
<text text-anchor="start" x="310.7798" y="-299.7884" font-family="Arial" font-size="14.00" fill="#666666">[int]</text>
<polygon fill="none" stroke="#000000" points="289,-258.3884 289,-288.3884 532,-288.3884 532,-258.3884 289,-258.3884"/>
<text text-anchor="start" x="296" y="-269.7884" font-family="Arial" font-size="14.00" fill="#000000">content_type_id </text>
<text text-anchor="start" x="398.7124" y="-269.7884" font-family="Arial" font-size="14.00" fill="#666666">[int]</text>
</g>
<!-- auth_permission&#45;&gt;django_content_type -->
<g id="edge1" class="edge">
<title>auth_permission:content_type_id&#45;&gt;django_content_type:id</title>
<path fill="none" stroke="#000000" d="M411.6315,-248.0967C421.8747,-169.9716 553.9273,-241.9451 602,-164.8884 615.115,-143.8661 619.5205,-70.9089 602,-53.3884 543.8601,4.7515 417,28.8339 417,-53.3884"/>
<polygon fill="#000000" stroke="#000000" points="411.6125,-248.4071 406.5084,-258.1127 411.3063,-253.3978 411,-258.3884 411,-258.3884 411,-258.3884 411.3063,-253.3978 415.4916,-258.664 411.6125,-248.4071 411.6125,-248.4071"/>
<text text-anchor="start" x="71.8555" y="-268.3884" font-family="Arial" font-size="10.00" fill="#000000">FOREIGN KEY (content_type_id) REFERENCES django_content_type (id)</text>
</g>
<!-- auth_group_permissions -->
<g id="node3" class="node">
<title>auth_group_permissions</title>
<polygon fill="#efefef" stroke="transparent" points="43,-580.3884 43,-615.3884 351,-615.3884 351,-580.3884 43,-580.3884"/>
<polygon fill="none" stroke="#000000" points="43,-580.3884 43,-615.3884 351,-615.3884 351,-580.3884 43,-580.3884"/>
<text text-anchor="start" x="49.8492" y="-593.1884" font-family="Arial Bold" font-size="18.00" fill="#000000">auth_group_permissions</text>
<text text-anchor="start" x="246.897" y="-593.1884" font-family="Arial" font-size="14.00" fill="#000000"> </text>
<text text-anchor="start" x="250.7876" y="-593.1884" font-family="Arial" font-size="14.00" fill="#666666">[BASE TABLE]</text>
<polygon fill="none" stroke="#000000" points="43,-550.3884 43,-580.3884 351,-580.3884 351,-550.3884 43,-550.3884"/>
<text text-anchor="start" x="50" y="-561.7884" font-family="Arial" font-size="14.00" fill="#000000">id </text>
<text text-anchor="start" x="64.7798" y="-561.7884" font-family="Arial" font-size="14.00" fill="#666666">[int]</text>
<polygon fill="none" stroke="#000000" points="43,-520.3884 43,-550.3884 351,-550.3884 351,-520.3884 43,-520.3884"/>
<text text-anchor="start" x="50" y="-531.7884" font-family="Arial" font-size="14.00" fill="#000000">group_id </text>
<text text-anchor="start" x="108.3534" y="-531.7884" font-family="Arial" font-size="14.00" fill="#666666">[int]</text>
<polygon fill="none" stroke="#000000" points="43,-490.3884 43,-520.3884 351,-520.3884 351,-490.3884 43,-490.3884"/>
<text text-anchor="start" x="50" y="-501.7884" font-family="Arial" font-size="14.00" fill="#000000">permission_id </text>
<text text-anchor="start" x="140.2272" y="-501.7884" font-family="Arial" font-size="14.00" fill="#666666">[int]</text>
</g>
<!-- auth_group_permissions&#45;&gt;auth_permission -->
<g id="edge2" class="edge">
<title>auth_group_permissions:permission_id&#45;&gt;auth_permission:id</title>
<path fill="none" stroke="#000000" d="M360.8377,-502.5724C371.6324,-493.8995 360.0376,-467.0248 351,-447.8884 335.763,-415.6251 304.237,-429.1517 289,-396.8884 271.254,-359.3125 247.4444,-303.3884 289,-303.3884"/>
<polygon fill="#000000" stroke="#000000" points="360.6139,-502.6364 349.7616,-501.0621 355.8069,-504.0124 351,-505.3884 351,-505.3884 351,-505.3884 355.8069,-504.0124 352.2384,-509.7146 360.6139,-502.6364 360.6139,-502.6364"/>
<text text-anchor="start" x="358.0525" y="-515.3884" font-family="Arial" font-size="10.00" fill="#000000">FOREIGN KEY (permission_id) REFERENCES auth_permission (id)</text>
</g>
<!-- auth_user_user_permissions -->
<g id="node4" class="node">
<title>auth_user_user_permissions</title>
<polygon fill="#efefef" stroke="transparent" points="455,-580.3884 455,-615.3884 797,-615.3884 797,-580.3884 455,-580.3884"/>
<polygon fill="none" stroke="#000000" points="455,-580.3884 455,-615.3884 797,-615.3884 797,-580.3884 455,-580.3884"/>
<text text-anchor="start" x="461.85" y="-593.1884" font-family="Arial Bold" font-size="18.00" fill="#000000">auth_user_user_permissions</text>
<text text-anchor="start" x="692.8962" y="-593.1884" font-family="Arial" font-size="14.00" fill="#000000"> </text>
<text text-anchor="start" x="696.7868" y="-593.1884" font-family="Arial" font-size="14.00" fill="#666666">[BASE TABLE]</text>
<polygon fill="none" stroke="#000000" points="455,-550.3884 455,-580.3884 797,-580.3884 797,-550.3884 455,-550.3884"/>
<text text-anchor="start" x="462" y="-561.7884" font-family="Arial" font-size="14.00" fill="#000000">id </text>
<text text-anchor="start" x="476.7798" y="-561.7884" font-family="Arial" font-size="14.00" fill="#666666">[int]</text>
<polygon fill="none" stroke="#000000" points="455,-520.3884 455,-550.3884 797,-550.3884 797,-520.3884 455,-520.3884"/>
<text text-anchor="start" x="462" y="-531.7884" font-family="Arial" font-size="14.00" fill="#000000">user_id </text>
<text text-anchor="start" x="511.7882" y="-531.7884" font-family="Arial" font-size="14.00" fill="#666666">[int]</text>
<polygon fill="none" stroke="#000000" points="455,-490.3884 455,-520.3884 797,-520.3884 797,-490.3884 455,-490.3884"/>
<text text-anchor="start" x="462" y="-501.7884" font-family="Arial" font-size="14.00" fill="#000000">permission_id </text>
<text text-anchor="start" x="552.2272" y="-501.7884" font-family="Arial" font-size="14.00" fill="#666666">[int]</text>
</g>
<!-- auth_user_user_permissions&#45;&gt;auth_permission -->
<g id="edge3" class="edge">
<title>auth_user_user_permissions:permission_id&#45;&gt;auth_permission:id</title>
<path fill="none" stroke="#000000" d="M445.0758,-502.5287C434.0319,-493.7302 444.986,-466.5324 455,-447.8884 474.4231,-411.7265 512.5769,-433.0502 532,-396.8884 551.6633,-360.2794 573.5556,-303.3884 532,-303.3884"/>
<polygon fill="#000000" stroke="#000000" points="445.391,-502.6195 453.754,-509.7124 450.1955,-504.0039 455,-505.3884 455,-505.3884 455,-505.3884 450.1955,-504.0039 456.246,-501.0643 445.391,-502.6195 445.391,-502.6195"/>
<text text-anchor="start" x="462.0525" y="-489.3884" font-family="Arial" font-size="10.00" fill="#000000">FOREIGN KEY (permission_id) REFERENCES auth_permission (id)</text>
</g>
<!-- django_admin_log -->
<g id="node5" class="node">
<title>django_admin_log</title>
<polygon fill="#efefef" stroke="transparent" points="636,-333.3884 636,-368.3884 894,-368.3884 894,-333.3884 636,-333.3884"/>
<polygon fill="none" stroke="#000000" points="636,-333.3884 636,-368.3884 894,-368.3884 894,-333.3884 636,-333.3884"/>
<text text-anchor="start" x="642.8485" y="-346.1884" font-family="Arial Bold" font-size="18.00" fill="#000000">django_admin_log</text>
<text text-anchor="start" x="789.8977" y="-346.1884" font-family="Arial" font-size="14.00" fill="#000000"> </text>
<text text-anchor="start" x="793.7883" y="-346.1884" font-family="Arial" font-size="14.00" fill="#666666">[BASE TABLE]</text>
<polygon fill="none" stroke="#000000" points="636,-303.3884 636,-333.3884 894,-333.3884 894,-303.3884 636,-303.3884"/>
<text text-anchor="start" x="643" y="-314.7884" font-family="Arial" font-size="14.00" fill="#000000">id </text>
<text text-anchor="start" x="657.7798" y="-314.7884" font-family="Arial" font-size="14.00" fill="#666666">[int]</text>
<polygon fill="none" stroke="#000000" points="636,-273.3884 636,-303.3884 894,-303.3884 894,-273.3884 636,-273.3884"/>
<text text-anchor="start" x="643" y="-284.7884" font-family="Arial" font-size="14.00" fill="#000000">content_type_id </text>
<text text-anchor="start" x="745.7124" y="-284.7884" font-family="Arial" font-size="14.00" fill="#666666">[int]</text>
<polygon fill="none" stroke="#000000" points="636,-243.3884 636,-273.3884 894,-273.3884 894,-243.3884 636,-243.3884"/>
<text text-anchor="start" x="643" y="-254.7884" font-family="Arial" font-size="14.00" fill="#000000">user_id </text>
<text text-anchor="start" x="692.7882" y="-254.7884" font-family="Arial" font-size="14.00" fill="#666666">[int]</text>
</g>
<!-- django_admin_log&#45;&gt;django_content_type -->
<g id="edge4" class="edge">
<title>django_admin_log:content_type_id&#45;&gt;django_content_type:id</title>
<path fill="none" stroke="#000000" d="M625.8674,-287.5917C540.6772,-273.1915 656.3841,-68.3884 556,-68.3884"/>
<polygon fill="#000000" stroke="#000000" points="626.0308,-287.6045 635.6473,-292.8745 631.0154,-287.9964 636,-288.3884 636,-288.3884 636,-288.3884 631.0154,-287.9964 636.3527,-283.9022 626.0308,-287.6045 626.0308,-287.6045"/>
<text text-anchor="start" x="642.8555" y="-298.3884" font-family="Arial" font-size="10.00" fill="#000000">FOREIGN KEY (content_type_id) REFERENCES django_content_type (id)</text>
</g>
<!-- auth_user -->
<g id="node6" class="node">
<title>auth_user</title>
<polygon fill="#efefef" stroke="transparent" points="669,-83.3884 669,-118.3884 860,-118.3884 860,-83.3884 669,-83.3884"/>
<polygon fill="none" stroke="#000000" points="669,-83.3884 669,-118.3884 860,-118.3884 860,-83.3884 669,-83.3884"/>
<text text-anchor="start" x="675.8573" y="-96.1884" font-family="Arial Bold" font-size="18.00" fill="#000000">auth_user</text>
<text text-anchor="start" x="755.8889" y="-96.1884" font-family="Arial" font-size="14.00" fill="#000000"> </text>
<text text-anchor="start" x="759.7795" y="-96.1884" font-family="Arial" font-size="14.00" fill="#666666">[BASE TABLE]</text>
<polygon fill="none" stroke="#000000" points="669,-53.3884 669,-83.3884 860,-83.3884 860,-53.3884 669,-53.3884"/>
<text text-anchor="start" x="676" y="-64.7884" font-family="Arial" font-size="14.00" fill="#000000">id </text>
<text text-anchor="start" x="690.7798" y="-64.7884" font-family="Arial" font-size="14.00" fill="#666666">[int]</text>
</g>
<!-- django_admin_log&#45;&gt;auth_user -->
<g id="edge5" class="edge">
<title>django_admin_log:user_id&#45;&gt;auth_user:id</title>
<path fill="none" stroke="#000000" d="M765.8289,-233.1355C775.6062,-177.4414 869.1877,-220.3579 902.5,-161.8884 926.3715,-119.9893 936.5983,-87.4866 902.5,-53.3884 859.2879,-10.1763 765,7.7227 765,-53.3884"/>
<polygon fill="#000000" stroke="#000000" points="765.8059,-233.4209 760.5146,-243.0257 765.403,-238.4046 765,-243.3884 765,-243.3884 765,-243.3884 765.403,-238.4046 769.4854,-243.751 765.8059,-233.4209 765.8059,-233.4209"/>
<text text-anchor="start" x="771.9375" y="-253.3884" font-family="Arial" font-size="10.00" fill="#000000">FOREIGN KEY (user_id) REFERENCES auth_user (id)</text>
</g>
</g>
</svg>
