<?xml version="1.0" encoding="UTF-8" standalone="no"?>
<!DOCTYPE svg PUBLIC "-//W3C//DTD SVG 1.1//EN"
 "http://www.w3.org/Graphics/SVG/1.1/DTD/svg11.dtd">
<!-- Generated by graphviz version 2.40.1 (20161225.0304)
 -->
<!-- Title: django_admin_log Pages: 1 -->
<svg width="2003pt" height="412pt"
 viewBox="0.00 0.00 2003.00 412.00" xmlns="http://www.w3.org/2000/svg" xmlns:xlink="http://www.w3.org/1999/xlink">
<g id="graph0" class="graph" transform="scale(1 1) rotate(0) translate(4 408)">
<title>django_admin_log</title>
<polygon fill="#ffffff" stroke="transparent" points="-4,4 -4,-408 1999,-408 1999,4 -4,4"/>
<!-- django_admin_log -->
<g id="node1" class="node">
<title>django_admin_log</title>
<polygon fill="#efefef" stroke="transparent" points="453,-322.5 453,-357.5 711,-357.5 711,-322.5 453,-322.5"/>
<polygon fill="none" stroke="#000000" points="453,-322.5 453,-357.5 711,-357.5 711,-322.5 453,-322.5"/>
<text text-anchor="start" x="459.8485" y="-335.3" font-family="Arial Bold" font-size="18.00" fill="#000000">django_admin_log</text>
<text text-anchor="start" x="606.8977" y="-335.3" font-family="Arial" font-size="14.00" fill="#000000"> </text>
<text text-anchor="start" x="610.7883" y="-335.3" font-family="Arial" font-size="14.00" fill="#666666">[BASE TABLE]</text>
<polygon fill="none" stroke="#000000" points="453,-292.5 453,-322.5 711,-322.5 711,-292.5 453,-292.5"/>
<text text-anchor="start" x="460" y="-303.9" font-family="Arial" font-size="14.00" fill="#000000">id </text>
<text text-anchor="start" x="474.7798" y="-303.9" font-family="Arial" font-size="14.00" fill="#666666">[int]</text>
<polygon fill="none" stroke="#000000" points="453,-262.5 453,-292.5 711,-292.5 711,-262.5 453,-262.5"/>
<text text-anchor="start" x="460" y="-273.9" font-family="Arial" font-size="14.00" fill="#000000">content_type_id </text>
<text text-anchor="start" x="562.7124" y="-273.9" font-family="Arial" font-size="14.00" fill="#666666">[int]</text>
<polygon fill="none" stroke="#000000" points="453,-232.5 453,-262.5 711,-262.5 711,-232.5 453,-232.5"/>
<text text-anchor="start" x="460" y="-243.9" font-family="Arial" font-size="14.00" fill="#000000">user_id </text>
<text text-anchor="start" x="509.7882" y="-243.9" font-family="Arial" font-size="14.00" fill="#666666">[int]</text>
<polygon fill="none" stroke="#000000" stroke-width="3" points="451.5,-231.5 451.5,-359.5 712.5,-359.5 712.5,-231.5 451.5,-231.5"/>
</g>
<!-- django_content_type -->
<g id="node2" class="node">
<title>django_content_type</title>
<polygon fill="#efefef" stroke="transparent" points="265,-72.5 265,-107.5 543,-107.5 543,-72.5 265,-72.5"/>
<polygon fill="none" stroke="#000000" points="265,-72.5 265,-107.5 543,-107.5 543,-72.5 265,-72.5"/>
<text text-anchor="start" x="271.8324" y="-85.3" font-family="Arial Bold" font-size="18.00" fill="#000000">django_content_type</text>
<text text-anchor="start" x="438.9138" y="-85.3" font-family="Arial" font-size="14.00" fill="#000000"> </text>
<text text-anchor="start" x="442.8044" y="-85.3" font-family="Arial" font-size="14.00" fill="#666666">[BASE TABLE]</text>
<polygon fill="none" stroke="#000000" points="265,-42.5 265,-72.5 543,-72.5 543,-42.5 265,-42.5"/>
<text text-anchor="start" x="272" y="-53.9" font-family="Arial" font-size="14.00" fill="#000000">id </text>
<text text-anchor="start" x="286.7798" y="-53.9" font-family="Arial" font-size="14.00" fill="#666666">[int]</text>
</g>
<!-- django_admin_log&#45;&gt;django_content_type -->
<g id="edge1" class="edge">
<title>django_admin_log:content_type_id&#45;&gt;django_content_type:id</title>
<path fill="none" stroke="#000000" d="M442.8232,-275.9392C416.2759,-266.5572 432.6524,-217.0541 453,-187 477.1526,-151.3258 518.8474,-186.6742 543,-151 566.2972,-116.5892 584.5556,-57.5 543,-57.5"/>
<polygon fill="#000000" stroke="#000000" points="443.1156,-275.984 452.3178,-281.948 448.0578,-276.742 453,-277.5 453,-277.5 453,-277.5 448.0578,-276.742 453.6822,-273.052 443.1156,-275.984 443.1156,-275.984"/>
<text text-anchor="start" x="459.8555" y="-287.5" font-family="Arial" font-size="10.00" fill="#000000">FOREIGN KEY (content_type_id) REFERENCES django_content_type (id)</text>
</g>
<!-- auth_user -->
<g id="node4" class="node">
<title>auth_user</title>
<polygon fill="#efefef" stroke="transparent" points="1051,-72.5 1051,-107.5 1242,-107.5 1242,-72.5 1051,-72.5"/>
<polygon fill="none" stroke="#000000" points="1051,-72.5 1051,-107.5 1242,-107.5 1242,-72.5 1051,-72.5"/>
<text text-anchor="start" x="1057.8573" y="-85.3" font-family="Arial Bold" font-size="18.00" fill="#000000">auth_user</text>
<text text-anchor="start" x="1137.8889" y="-85.3" font-family="Arial" font-size="14.00" fill="#000000"> </text>
<text text-anchor="start" x="1141.7795" y="-85.3" font-family="Arial" font-size="14.00" fill="#666666">[BASE TABLE]</text>
<polygon fill="none" stroke="#000000" points="1051,-42.5 1051,-72.5 1242,-72.5 1242,-42.5 1051,-42.5"/>
<text text-anchor="start" x="1058" y="-53.9" font-family="Arial" font-size="14.00" fill="#000000">id </text>
<text text-anchor="start" x="1072.7798" y="-53.9" font-family="Arial" font-size="14.00" fill="#666666">[int]</text>
</g>
<!-- django_admin_log&#45;&gt;auth_user -->
<g id="edge3" class="edge">
<title>django_admin_log:user_id&#45;&gt;auth_user:id</title>
<path fill="none" stroke="#000000" d="M721.0302,-246.2619C745.5264,-239.4495 739.7287,-206.1442 766,-187 878.4421,-105.0619 911.8703,-57.5 1051,-57.5"/>
<polygon fill="#000000" stroke="#000000" points="720.9247,-246.2748 710.4487,-243.0339 715.9623,-246.8874 711,-247.5 711,-247.5 711,-247.5 715.9623,-246.8874 711.5513,-251.9661 720.9247,-246.2748 720.9247,-246.2748"/>
<text text-anchor="start" x="587.9375" y="-231.5" font-family="Arial" font-size="10.00" fill="#000000">FOREIGN KEY (user_id) REFERENCES auth_user (id)</text>
</g>
<!-- auth_permission -->
<g id="node3" class="node">
<title>auth_permission</title>
<polygon fill="#efefef" stroke="transparent" points="103,-307.5 103,-342.5 346,-342.5 346,-307.5 103,-307.5"/>
<polygon fill="none" stroke="#000000" points="103,-307.5 103,-342.5 346,-342.5 346,-307.5 103,-307.5"/>
<text text-anchor="start" x="109.8608" y="-320.3" font-family="Arial Bold" font-size="18.00" fill="#000000">auth_permission</text>
<text text-anchor="start" x="241.8854" y="-320.3" font-family="Arial" font-size="14.00" fill="#000000"> </text>
<text text-anchor="start" x="245.776" y="-320.3" font-family="Arial" font-size="14.00" fill="#666666">[BASE TABLE]</text>
<polygon fill="none" stroke="#000000" points="103,-277.5 103,-307.5 346,-307.5 346,-277.5 103,-277.5"/>
<text text-anchor="start" x="110" y="-288.9" font-family="Arial" font-size="14.00" fill="#000000">id </text>
<text text-anchor="start" x="124.7798" y="-288.9" font-family="Arial" font-size="14.00" fill="#666666">[int]</text>
<polygon fill="none" stroke="#000000" points="103,-247.5 103,-277.5 346,-277.5 346,-247.5 103,-247.5"/>
<text text-anchor="start" x="110" y="-258.9" font-family="Arial" font-size="14.00" fill="#000000">content_type_id </text>
<text text-anchor="start" x="212.7124" y="-258.9" font-family="Arial" font-size="14.00" fill="#666666">[int]</text>
</g>
<!-- auth_permission&#45;&gt;django_content_type -->
<g id="edge2" class="edge">
<title>auth_permission:content_type_id&#45;&gt;django_content_type:id</title>
<path fill="none" stroke="#000000" d="M355.9217,-259.6417C366.9585,-250.847 355.986,-223.6591 346,-205 325.5843,-166.8529 285.4157,-189.1471 265,-151 245.3917,-114.3615 223.4444,-57.5 265,-57.5"/>
<polygon fill="#000000" stroke="#000000" points="355.6092,-259.7317 344.7542,-258.1759 350.8046,-261.1158 346,-262.5 346,-262.5 346,-262.5 350.8046,-261.1158 347.2458,-266.8241 355.6092,-259.7317 355.6092,-259.7317"/>
<text text-anchor="start" x="6.8555" y="-272.5" font-family="Arial" font-size="10.00" fill="#000000">FOREIGN KEY (content_type_id) REFERENCES django_content_type (id)</text>
</g>
<!-- auth_user_groups -->
<g id="node5" class="node">
<title>auth_user_groups</title>
<polygon fill="#efefef" stroke="transparent" points="818,-322.5 818,-357.5 1074,-357.5 1074,-322.5 818,-322.5"/>
<polygon fill="none" stroke="#000000" points="818,-322.5 818,-357.5 1074,-357.5 1074,-322.5 818,-322.5"/>
<text text-anchor="start" x="824.8457" y="-335.3" font-family="Arial Bold" font-size="18.00" fill="#000000">auth_user_groups</text>
<text text-anchor="start" x="969.9005" y="-335.3" font-family="Arial" font-size="14.00" fill="#000000"> </text>
<text text-anchor="start" x="973.7911" y="-335.3" font-family="Arial" font-size="14.00" fill="#666666">[BASE TABLE]</text>
<polygon fill="none" stroke="#000000" points="818,-292.5 818,-322.5 1074,-322.5 1074,-292.5 818,-292.5"/>
<text text-anchor="start" x="825" y="-303.9" font-family="Arial" font-size="14.00" fill="#000000">id </text>
<text text-anchor="start" x="839.7798" y="-303.9" font-family="Arial" font-size="14.00" fill="#666666">[int]</text>
<polygon fill="none" stroke="#000000" points="818,-262.5 818,-292.5 1074,-292.5 1074,-262.5 818,-262.5"/>
<text text-anchor="start" x="825" y="-273.9" font-family="Arial" font-size="14.00" fill="#000000">user_id </text>
<text text-anchor="start" x="874.7882" y="-273.9" font-family="Arial" font-size="14.00" fill="#666666">[int]</text>
<polygon fill="none" stroke="#000000" points="818,-232.5 818,-262.5 1074,-262.5 1074,-232.5 818,-232.5"/>
<text text-anchor="start" x="825" y="-243.9" font-family="Arial" font-size="14.00" fill="#000000">group_id </text>
<text text-anchor="start" x="883.3534" y="-243.9" font-family="Arial" font-size="14.00" fill="#666666">[int]</text>
</g>
<!-- auth_user_groups&#45;&gt;auth_user -->
<g id="edge4" class="edge">
<title>auth_user_groups:user_id&#45;&gt;auth_user:id</title>
<path fill="none" stroke="#000000" d="M1084.1517,-275.9053C1107.0503,-267.0954 1083.1589,-223.56 1074,-190 1068.702,-170.5869 1056.298,-170.4131 1051,-151 1040.0592,-110.9106 1009.4444,-57.5 1051,-57.5"/>
<polygon fill="#000000" stroke="#000000" points="1083.8789,-275.9481 1073.3016,-273.0545 1078.9394,-276.724 1074,-277.5 1074,-277.5 1074,-277.5 1078.9394,-276.724 1074.6984,-281.9455 1083.8789,-275.9481 1083.8789,-275.9481"/>
<text text-anchor="start" x="1080.9375" y="-287.5" font-family="Arial" font-size="10.00" fill="#000000">FOREIGN KEY (user_id) REFERENCES auth_user (id)</text>
</g>
<!-- auth_user_user_permissions -->
<g id="node6" class="node">
<title>auth_user_user_permissions</title>
<polygon fill="#efefef" stroke="transparent" points="1178,-322.5 1178,-357.5 1520,-357.5 1520,-322.5 1178,-322.5"/>
<polygon fill="none" stroke="#000000" points="1178,-322.5 1178,-357.5 1520,-357.5 1520,-322.5 1178,-322.5"/>
<text text-anchor="start" x="1184.85" y="-335.3" font-family="Arial Bold" font-size="18.00" fill="#000000">auth_user_user_permissions</text>
<text text-anchor="start" x="1415.8962" y="-335.3" font-family="Arial" font-size="14.00" fill="#000000"> </text>
<text text-anchor="start" x="1419.7868" y="-335.3" font-family="Arial" font-size="14.00" fill="#666666">[BASE TABLE]</text>
<polygon fill="none" stroke="#000000" points="1178,-292.5 1178,-322.5 1520,-322.5 1520,-292.5 1178,-292.5"/>
<text text-anchor="start" x="1185" y="-303.9" font-family="Arial" font-size="14.00" fill="#000000">id </text>
<text text-anchor="start" x="1199.7798" y="-303.9" font-family="Arial" font-size="14.00" fill="#666666">[int]</text>
<polygon fill="none" stroke="#000000" points="1178,-262.5 1178,-292.5 1520,-292.5 1520,-262.5 1178,-262.5"/>
<text text-anchor="start" x="1185" y="-273.9" font-family="Arial" font-size="14.00" fill="#000000">user_id </text>
<text text-anchor="start" x="1234.7882" y="-273.9" font-family="Arial" font-size="14.00" fill="#666666">[int]</text>
<polygon fill="none" stroke="#000000" points="1178,-232.5 1178,-262.5 1520,-262.5 1520,-232.5 1178,-232.5"/>
<text text-anchor="start" x="1185" y="-243.9" font-family="Arial" font-size="14.00" fill="#000000">permission_id </text>
<text text-anchor="start" x="1275.2272" y="-243.9" font-family="Arial" font-size="14.00" fill="#666666">[int]</text>
</g>
<!-- auth_user_user_permissions&#45;&gt;auth_user -->
<g id="edge5" class="edge">
<title>auth_user_user_permissions:user_id&#45;&gt;auth_user:id</title>
<path fill="none" stroke="#000000" d="M1167.9062,-275.9183C1143.1338,-266.8169 1160.8899,-220.463 1178,-190 1194.312,-160.9578 1225.688,-180.0422 1242,-151 1262.3501,-114.7683 1283.5556,-57.5 1242,-57.5"/>
<polygon fill="#000000" stroke="#000000" points="1168.1206,-275.9518 1177.3033,-281.9458 1173.0603,-276.7259 1178,-277.5 1178,-277.5 1178,-277.5 1173.0603,-276.7259 1178.6967,-273.0542 1168.1206,-275.9518 1168.1206,-275.9518"/>
<text text-anchor="start" x="1184.9375" y="-261.5" font-family="Arial" font-size="10.00" fill="#000000">FOREIGN KEY (user_id) REFERENCES auth_user (id)</text>
</g>
<!-- social_auth_usersocialauth -->
<g id="node7" class="node">
<title>social_auth_usersocialauth</title>
<polygon fill="#efefef" stroke="transparent" points="1624,-307.5 1624,-342.5 1952,-342.5 1952,-307.5 1624,-307.5"/>
<polygon fill="none" stroke="#000000" points="1624,-307.5 1624,-342.5 1952,-342.5 1952,-307.5 1624,-307.5"/>
<text text-anchor="start" x="1630.843" y="-320.3" font-family="Arial Bold" font-size="18.00" fill="#000000">social_auth_usersocialauth</text>
<text text-anchor="start" x="1847.9032" y="-320.3" font-family="Arial" font-size="14.00" fill="#000000"> </text>
<text text-anchor="start" x="1851.7938" y="-320.3" font-family="Arial" font-size="14.00" fill="#666666">[BASE TABLE]</text>
<polygon fill="none" stroke="#000000" points="1624,-277.5 1624,-307.5 1952,-307.5 1952,-277.5 1624,-277.5"/>
<text text-anchor="start" x="1631" y="-288.9" font-family="Arial" font-size="14.00" fill="#000000">id </text>
<text text-anchor="start" x="1645.7798" y="-288.9" font-family="Arial" font-size="14.00" fill="#666666">[int]</text>
<polygon fill="none" stroke="#000000" points="1624,-247.5 1624,-277.5 1952,-277.5 1952,-247.5 1624,-247.5"/>
<text text-anchor="start" x="1631" y="-258.9" font-family="Arial" font-size="14.00" fill="#000000">user_id </text>
<text text-anchor="start" x="1680.7882" y="-258.9" font-family="Arial" font-size="14.00" fill="#666666">[int]</text>
</g>
<!-- social_auth_usersocialauth&#45;&gt;auth_user -->
<g id="edge6" class="edge">
<title>social_auth_usersocialauth:user_id&#45;&gt;auth_user:id</title>
<path fill="none" stroke="#000000" d="M1614.0658,-261.2389C1586.6674,-253.311 1600.9236,-209.9531 1572,-187 1448.5841,-89.0599 1399.5556,-57.5 1242,-57.5"/>
<polygon fill="#000000" stroke="#000000" points="1614.0796,-261.2406 1623.4333,-266.9642 1619.0398,-261.8703 1624,-262.5 1624,-262.5 1624,-262.5 1619.0398,-261.8703 1624.5667,-258.0358 1614.0796,-261.2406 1614.0796,-261.2406"/>
<text text-anchor="start" x="1630.9375" y="-272.5" font-family="Arial" font-size="10.00" fill="#000000">FOREIGN KEY (user_id) REFERENCES auth_user (id)</text>
</g>
</g>
</svg>
