<?xml version="1.0" encoding="UTF-8" standalone="no"?>
<!DOCTYPE svg PUBLIC "-//W3C//DTD SVG 1.1//EN"
 "http://www.w3.org/Graphics/SVG/1.1/DTD/svg11.dtd">
<!-- Generated by graphviz version 2.40.1 (20161225.0304)
 -->
<!-- Title: django_admin_log Pages: 1 -->
<svg width="872pt" height="862pt"
 viewBox="0.00 0.00 872.00 862.00" xmlns="http://www.w3.org/2000/svg" xmlns:xlink="http://www.w3.org/1999/xlink">
<g id="graph0" class="graph" transform="scale(1 1) rotate(0) translate(4 858)">
<title>django_admin_log</title>
<polygon fill="#ffffff" stroke="transparent" points="-4,4 -4,-858 868,-858 868,4 -4,4"/>
<!-- django_admin_log -->
<g id="node1" class="node">
<title>django_admin_log</title>
<polygon fill="#efefef" stroke="transparent" points="346,-772.5 346,-807.5 604,-807.5 604,-772.5 346,-772.5"/>
<polygon fill="none" stroke="#000000" points="346,-772.5 346,-807.5 604,-807.5 604,-772.5 346,-772.5"/>
<text text-anchor="start" x="352.8485" y="-785.3" font-family="Arial Bold" font-size="18.00" fill="#000000">django_admin_log</text>
<text text-anchor="start" x="499.8977" y="-785.3" font-family="Arial" font-size="14.00" fill="#000000"> </text>
<text text-anchor="start" x="503.7883" y="-785.3" font-family="Arial" font-size="14.00" fill="#666666">[BASE TABLE]</text>
<polygon fill="none" stroke="#000000" points="346,-742.5 346,-772.5 604,-772.5 604,-742.5 346,-742.5"/>
<text text-anchor="start" x="353" y="-753.9" font-family="Arial" font-size="14.00" fill="#000000">id </text>
<text text-anchor="start" x="367.7798" y="-753.9" font-family="Arial" font-size="14.00" fill="#666666">[int]</text>
<polygon fill="none" stroke="#000000" points="346,-712.5 346,-742.5 604,-742.5 604,-712.5 346,-712.5"/>
<text text-anchor="start" x="353" y="-723.9" font-family="Arial" font-size="14.00" fill="#000000">action_time </text>
<text text-anchor="start" x="428.4586" y="-723.9" font-family="Arial" font-size="14.00" fill="#666666">[datetime(6)]</text>
<polygon fill="none" stroke="#000000" points="346,-682.5 346,-712.5 604,-712.5 604,-682.5 346,-682.5"/>
<text text-anchor="start" x="353" y="-693.9" font-family="Arial" font-size="14.00" fill="#000000">object_id </text>
<text text-anchor="start" x="412.9074" y="-693.9" font-family="Arial" font-size="14.00" fill="#666666">[longtext]</text>
<polygon fill="none" stroke="#000000" points="346,-652.5 346,-682.5 604,-682.5 604,-652.5 346,-652.5"/>
<text text-anchor="start" x="353" y="-663.9" font-family="Arial" font-size="14.00" fill="#000000">object_repr </text>
<text text-anchor="start" x="426.9046" y="-663.9" font-family="Arial" font-size="14.00" fill="#666666">[varchar(200)]</text>
<polygon fill="none" stroke="#000000" points="346,-622.5 346,-652.5 604,-652.5 604,-622.5 346,-622.5"/>
<text text-anchor="start" x="353" y="-633.9" font-family="Arial" font-size="14.00" fill="#000000">action_flag </text>
<text text-anchor="start" x="424.5806" y="-633.9" font-family="Arial" font-size="14.00" fill="#666666">[smallint unsigned]</text>
<polygon fill="none" stroke="#000000" points="346,-592.5 346,-622.5 604,-622.5 604,-592.5 346,-592.5"/>
<text text-anchor="start" x="353" y="-603.9" font-family="Arial" font-size="14.00" fill="#000000">change_message </text>
<text text-anchor="start" x="467.3772" y="-603.9" font-family="Arial" font-size="14.00" fill="#666666">[longtext]</text>
<polygon fill="none" stroke="#000000" points="346,-562.5 346,-592.5 604,-592.5 604,-562.5 346,-562.5"/>
<text text-anchor="start" x="353" y="-573.9" font-family="Arial" font-size="14.00" fill="#000000">content_type_id </text>
<text text-anchor="start" x="455.7124" y="-573.9" font-family="Arial" font-size="14.00" fill="#666666">[int]</text>
<polygon fill="none" stroke="#000000" points="346,-532.5 346,-562.5 604,-562.5 604,-532.5 346,-532.5"/>
<text text-anchor="start" x="353" y="-543.9" font-family="Arial" font-size="14.00" fill="#000000">user_id </text>
<text text-anchor="start" x="402.7882" y="-543.9" font-family="Arial" font-size="14.00" fill="#666666">[int]</text>
<polygon fill="none" stroke="#000000" stroke-width="3" points="344.5,-531.5 344.5,-809.5 605.5,-809.5 605.5,-531.5 344.5,-531.5"/>
</g>
<!-- django_content_type -->
<g id="node2" class="node">
<title>django_content_type</title>
<polygon fill="#efefef" stroke="transparent" points="166,-252.5 166,-287.5 444,-287.5 444,-252.5 166,-252.5"/>
<polygon fill="none" stroke="#000000" points="166,-252.5 166,-287.5 444,-287.5 444,-252.5 166,-252.5"/>
<text text-anchor="start" x="172.8324" y="-265.3" font-family="Arial Bold" font-size="18.00" fill="#000000">django_content_type</text>
<text text-anchor="start" x="339.9138" y="-265.3" font-family="Arial" font-size="14.00" fill="#000000"> </text>
<text text-anchor="start" x="343.8044" y="-265.3" font-family="Arial" font-size="14.00" fill="#666666">[BASE TABLE]</text>
<polygon fill="none" stroke="#000000" points="166,-222.5 166,-252.5 444,-252.5 444,-222.5 166,-222.5"/>
<text text-anchor="start" x="173" y="-233.9" font-family="Arial" font-size="14.00" fill="#000000">id </text>
<text text-anchor="start" x="187.7798" y="-233.9" font-family="Arial" font-size="14.00" fill="#666666">[int]</text>
<polygon fill="none" stroke="#000000" points="166,-192.5 166,-222.5 444,-222.5 444,-192.5 166,-192.5"/>
<text text-anchor="start" x="173" y="-203.9" font-family="Arial" font-size="14.00" fill="#000000">app_label </text>
<text text-anchor="start" x="237.582" y="-203.9" font-family="Arial" font-size="14.00" fill="#666666">[varchar(100)]</text>
<polygon fill="none" stroke="#000000" points="166,-162.5 166,-192.5 444,-192.5 444,-162.5 166,-162.5"/>
<text text-anchor="start" x="173" y="-173.9" font-family="Arial" font-size="14.00" fill="#000000">model </text>
<text text-anchor="start" x="215.0056" y="-173.9" font-family="Arial" font-size="14.00" fill="#666666">[varchar(100)]</text>
</g>
<!-- django_admin_log&#45;&gt;django_content_type -->
<g id="edge1" class="edge">
<title>django_admin_log:content_type_id&#45;&gt;django_content_type:id</title>
<path fill="none" stroke="#000000" d="M335.8668,-576.9485C207.7612,-561.7493 597.5772,-237.5 444,-237.5"/>
<polygon fill="#000000" stroke="#000000" points="336.0148,-576.9564 345.7554,-581.9933 341.0074,-577.2282 346,-577.5 346,-577.5 346,-577.5 341.0074,-577.2282 346.2446,-573.0067 336.0148,-576.9564 336.0148,-576.9564"/>
<text text-anchor="start" x="6.8555" y="-587.5" font-family="Arial" font-size="10.00" fill="#000000">FOREIGN KEY (content_type_id) REFERENCES django_content_type (id)</text>
</g>
<!-- auth_user -->
<g id="node3" class="node">
<title>auth_user</title>
<polygon fill="#efefef" stroke="transparent" points="549,-372.5 549,-407.5 740,-407.5 740,-372.5 549,-372.5"/>
<polygon fill="none" stroke="#000000" points="549,-372.5 549,-407.5 740,-407.5 740,-372.5 549,-372.5"/>
<text text-anchor="start" x="555.8573" y="-385.3" font-family="Arial Bold" font-size="18.00" fill="#000000">auth_user</text>
<text text-anchor="start" x="635.8889" y="-385.3" font-family="Arial" font-size="14.00" fill="#000000"> </text>
<text text-anchor="start" x="639.7795" y="-385.3" font-family="Arial" font-size="14.00" fill="#666666">[BASE TABLE]</text>
<polygon fill="none" stroke="#000000" points="549,-342.5 549,-372.5 740,-372.5 740,-342.5 549,-342.5"/>
<text text-anchor="start" x="556" y="-353.9" font-family="Arial" font-size="14.00" fill="#000000">id </text>
<text text-anchor="start" x="570.7798" y="-353.9" font-family="Arial" font-size="14.00" fill="#666666">[int]</text>
<polygon fill="none" stroke="#000000" points="549,-312.5 549,-342.5 740,-342.5 740,-312.5 549,-312.5"/>
<text text-anchor="start" x="556" y="-323.9" font-family="Arial" font-size="14.00" fill="#000000">password </text>
<text text-anchor="start" x="619.7882" y="-323.9" font-family="Arial" font-size="14.00" fill="#666666">[varchar(128)]</text>
<polygon fill="none" stroke="#000000" points="549,-282.5 549,-312.5 740,-312.5 740,-282.5 549,-282.5"/>
<text text-anchor="start" x="556" y="-293.9" font-family="Arial" font-size="14.00" fill="#000000">last_login </text>
<text text-anchor="start" x="619.014" y="-293.9" font-family="Arial" font-size="14.00" fill="#666666">[datetime(6)]</text>
<polygon fill="none" stroke="#000000" points="549,-252.5 549,-282.5 740,-282.5 740,-252.5 549,-252.5"/>
<text text-anchor="start" x="556" y="-263.9" font-family="Arial" font-size="14.00" fill="#000000">is_superuser </text>
<text text-anchor="start" x="640.014" y="-263.9" font-family="Arial" font-size="14.00" fill="#666666">[tinyint(1)]</text>
<polygon fill="none" stroke="#000000" points="549,-222.5 549,-252.5 740,-252.5 740,-222.5 549,-222.5"/>
<text text-anchor="start" x="556" y="-233.9" font-family="Arial" font-size="14.00" fill="#000000">username </text>
<text text-anchor="start" x="622.1248" y="-233.9" font-family="Arial" font-size="14.00" fill="#666666">[varchar(150)]</text>
<polygon fill="none" stroke="#000000" points="549,-192.5 549,-222.5 740,-222.5 740,-192.5 549,-192.5"/>
<text text-anchor="start" x="556" y="-203.9" font-family="Arial" font-size="14.00" fill="#000000">first_name </text>
<text text-anchor="start" x="625.23" y="-203.9" font-family="Arial" font-size="14.00" fill="#666666">[varchar(30)]</text>
<polygon fill="none" stroke="#000000" points="549,-162.5 549,-192.5 740,-192.5 740,-162.5 549,-162.5"/>
<text text-anchor="start" x="556" y="-173.9" font-family="Arial" font-size="14.00" fill="#000000">last_name </text>
<text text-anchor="start" x="624.4614" y="-173.9" font-family="Arial" font-size="14.00" fill="#666666">[varchar(150)]</text>
<polygon fill="none" stroke="#000000" points="549,-132.5 549,-162.5 740,-162.5 740,-132.5 549,-132.5"/>
<text text-anchor="start" x="556" y="-143.9" font-family="Arial" font-size="14.00" fill="#000000">email </text>
<text text-anchor="start" x="593.3296" y="-143.9" font-family="Arial" font-size="14.00" fill="#666666">[varchar(254)]</text>
<polygon fill="none" stroke="#000000" points="549,-102.5 549,-132.5 740,-132.5 740,-102.5 549,-102.5"/>
<text text-anchor="start" x="556" y="-113.9" font-family="Arial" font-size="14.00" fill="#000000">is_staff </text>
<text text-anchor="start" x="604.2342" y="-113.9" font-family="Arial" font-size="14.00" fill="#666666">[tinyint(1)]</text>
<polygon fill="none" stroke="#000000" points="549,-72.5 549,-102.5 740,-102.5 740,-72.5 549,-72.5"/>
<text text-anchor="start" x="556" y="-83.9" font-family="Arial" font-size="14.00" fill="#000000">is_active </text>
<text text-anchor="start" x="614.3422" y="-83.9" font-family="Arial" font-size="14.00" fill="#666666">[tinyint(1)]</text>
<polygon fill="none" stroke="#000000" points="549,-42.5 549,-72.5 740,-72.5 740,-42.5 549,-42.5"/>
<text text-anchor="start" x="556" y="-53.9" font-family="Arial" font-size="14.00" fill="#000000">date_joined </text>
<text text-anchor="start" x="632.2552" y="-53.9" font-family="Arial" font-size="14.00" fill="#666666">[datetime(6)]</text>
</g>
<!-- django_admin_log&#45;&gt;auth_user -->
<g id="edge2" class="edge">
<title>django_admin_log:user_id&#45;&gt;auth_user:id</title>
<path fill="none" stroke="#000000" d="M613.7633,-544.9922C626.5143,-536.3076 614.7896,-506.9576 604,-487 590.106,-461.3 562.894,-476.7 549,-451 529.2373,-414.4446 507.4444,-357.5 549,-357.5"/>
<polygon fill="#000000" stroke="#000000" points="613.6856,-545.0121 602.8804,-543.1415 608.8428,-546.256 604,-547.5 604,-547.5 604,-547.5 608.8428,-546.256 605.1196,-551.8585 613.6856,-545.0121 613.6856,-545.0121"/>
<text text-anchor="start" x="610.9375" y="-557.5" font-family="Arial" font-size="10.00" fill="#000000">FOREIGN KEY (user_id) REFERENCES auth_user (id)</text>
</g>
</g>
</svg>
