<?xml version="1.0" encoding="UTF-8" standalone="no"?>
<!DOCTYPE svg PUBLIC "-//W3C//DTD SVG 1.1//EN"
 "http://www.w3.org/Graphics/SVG/1.1/DTD/svg11.dtd">
<!-- Generated by graphviz version 2.40.1 (20161225.0304)
 -->
<!-- Title: django_content_type Pages: 1 -->
<svg width="804pt" height="622pt"
 viewBox="0.00 0.00 804.00 622.00" xmlns="http://www.w3.org/2000/svg" xmlns:xlink="http://www.w3.org/1999/xlink">
<g id="graph0" class="graph" transform="scale(1 1) rotate(0) translate(4 618)">
<title>django_content_type</title>
<polygon fill="#ffffff" stroke="transparent" points="-4,4 -4,-618 800,-618 800,4 -4,4"/>
<!-- django_content_type -->
<g id="node1" class="node">
<title>django_content_type</title>
<polygon fill="#efefef" stroke="transparent" points="263,-135.5 263,-170.5 541,-170.5 541,-135.5 263,-135.5"/>
<polygon fill="none" stroke="#000000" points="263,-135.5 263,-170.5 541,-170.5 541,-135.5 263,-135.5"/>
<text text-anchor="start" x="269.8324" y="-148.3" font-family="Arial Bold" font-size="18.00" fill="#000000">django_content_type</text>
<text text-anchor="start" x="436.9138" y="-148.3" font-family="Arial" font-size="14.00" fill="#000000"> </text>
<text text-anchor="start" x="440.8044" y="-148.3" font-family="Arial" font-size="14.00" fill="#666666">[BASE TABLE]</text>
<polygon fill="none" stroke="#000000" points="263,-105.5 263,-135.5 541,-135.5 541,-105.5 263,-105.5"/>
<text text-anchor="start" x="270" y="-116.9" font-family="Arial" font-size="14.00" fill="#000000">id </text>
<text text-anchor="start" x="284.7798" y="-116.9" font-family="Arial" font-size="14.00" fill="#666666">[int]</text>
<polygon fill="none" stroke="#000000" points="263,-75.5 263,-105.5 541,-105.5 541,-75.5 263,-75.5"/>
<text text-anchor="start" x="270" y="-86.9" font-family="Arial" font-size="14.00" fill="#000000">app_label </text>
<text text-anchor="start" x="334.582" y="-86.9" font-family="Arial" font-size="14.00" fill="#666666">[varchar(100)]</text>
<polygon fill="none" stroke="#000000" points="263,-45.5 263,-75.5 541,-75.5 541,-45.5 263,-45.5"/>
<text text-anchor="start" x="270" y="-56.9" font-family="Arial" font-size="14.00" fill="#000000">model </text>
<text text-anchor="start" x="312.0056" y="-56.9" font-family="Arial" font-size="14.00" fill="#666666">[varchar(100)]</text>
<polygon fill="none" stroke="#000000" stroke-width="3" points="261.5,-44.5 261.5,-172.5 542.5,-172.5 542.5,-44.5 261.5,-44.5"/>
</g>
<!-- auth_permission -->
<g id="node2" class="node">
<title>auth_permission</title>
<polygon fill="#efefef" stroke="transparent" points="103,-475.5 103,-510.5 346,-510.5 346,-475.5 103,-475.5"/>
<polygon fill="none" stroke="#000000" points="103,-475.5 103,-510.5 346,-510.5 346,-475.5 103,-475.5"/>
<text text-anchor="start" x="109.8608" y="-488.3" font-family="Arial Bold" font-size="18.00" fill="#000000">auth_permission</text>
<text text-anchor="start" x="241.8854" y="-488.3" font-family="Arial" font-size="14.00" fill="#000000"> </text>
<text text-anchor="start" x="245.776" y="-488.3" font-family="Arial" font-size="14.00" fill="#666666">[BASE TABLE]</text>
<polygon fill="none" stroke="#000000" points="103,-445.5 103,-475.5 346,-475.5 346,-445.5 103,-445.5"/>
<text text-anchor="start" x="110" y="-456.9" font-family="Arial" font-size="14.00" fill="#000000">id </text>
<text text-anchor="start" x="124.7798" y="-456.9" font-family="Arial" font-size="14.00" fill="#666666">[int]</text>
<polygon fill="none" stroke="#000000" points="103,-415.5 103,-445.5 346,-445.5 346,-415.5 103,-415.5"/>
<text text-anchor="start" x="110" y="-426.9" font-family="Arial" font-size="14.00" fill="#000000">name </text>
<text text-anchor="start" x="148.899" y="-426.9" font-family="Arial" font-size="14.00" fill="#666666">[varchar(255)]</text>
<polygon fill="none" stroke="#000000" points="103,-385.5 103,-415.5 346,-415.5 346,-385.5 103,-385.5"/>
<text text-anchor="start" x="110" y="-396.9" font-family="Arial" font-size="14.00" fill="#000000">content_type_id </text>
<text text-anchor="start" x="212.7124" y="-396.9" font-family="Arial" font-size="14.00" fill="#666666">[int]</text>
<polygon fill="none" stroke="#000000" points="103,-355.5 103,-385.5 346,-385.5 346,-355.5 103,-355.5"/>
<text text-anchor="start" x="110" y="-366.9" font-family="Arial" font-size="14.00" fill="#000000">codename </text>
<text text-anchor="start" x="179.2468" y="-366.9" font-family="Arial" font-size="14.00" fill="#666666">[varchar(100)]</text>
</g>
<!-- auth_permission&#45;&gt;django_content_type -->
<g id="edge1" class="edge">
<title>auth_permission:content_type_id&#45;&gt;django_content_type:id</title>
<path fill="none" stroke="#000000" d="M355.9416,-398.9889C379.8672,-390.28 358.192,-345.743 346,-313 326.3184,-260.1429 282.6816,-269.8571 263,-217 248.0339,-176.807 220.1111,-120.5 263,-120.5"/>
<polygon fill="#000000" stroke="#000000" points="355.8864,-398.9972 345.3237,-396.0511 350.9432,-399.7486 346,-400.5 346,-400.5 346,-400.5 350.9432,-399.7486 346.6763,-404.9489 355.8864,-398.9972 355.8864,-398.9972"/>
<text text-anchor="start" x="6.8555" y="-410.5" font-family="Arial" font-size="10.00" fill="#000000">FOREIGN KEY (content_type_id) REFERENCES django_content_type (id)</text>
</g>
<!-- django_admin_log -->
<g id="node3" class="node">
<title>django_admin_log</title>
<polygon fill="#efefef" stroke="transparent" points="450,-535.5 450,-570.5 708,-570.5 708,-535.5 450,-535.5"/>
<polygon fill="none" stroke="#000000" points="450,-535.5 450,-570.5 708,-570.5 708,-535.5 450,-535.5"/>
<text text-anchor="start" x="456.8485" y="-548.3" font-family="Arial Bold" font-size="18.00" fill="#000000">django_admin_log</text>
<text text-anchor="start" x="603.8977" y="-548.3" font-family="Arial" font-size="14.00" fill="#000000"> </text>
<text text-anchor="start" x="607.7883" y="-548.3" font-family="Arial" font-size="14.00" fill="#666666">[BASE TABLE]</text>
<polygon fill="none" stroke="#000000" points="450,-505.5 450,-535.5 708,-535.5 708,-505.5 450,-505.5"/>
<text text-anchor="start" x="457" y="-516.9" font-family="Arial" font-size="14.00" fill="#000000">id </text>
<text text-anchor="start" x="471.7798" y="-516.9" font-family="Arial" font-size="14.00" fill="#666666">[int]</text>
<polygon fill="none" stroke="#000000" points="450,-475.5 450,-505.5 708,-505.5 708,-475.5 450,-475.5"/>
<text text-anchor="start" x="457" y="-486.9" font-family="Arial" font-size="14.00" fill="#000000">action_time </text>
<text text-anchor="start" x="532.4586" y="-486.9" font-family="Arial" font-size="14.00" fill="#666666">[datetime(6)]</text>
<polygon fill="none" stroke="#000000" points="450,-445.5 450,-475.5 708,-475.5 708,-445.5 450,-445.5"/>
<text text-anchor="start" x="457" y="-456.9" font-family="Arial" font-size="14.00" fill="#000000">object_id </text>
<text text-anchor="start" x="516.9074" y="-456.9" font-family="Arial" font-size="14.00" fill="#666666">[longtext]</text>
<polygon fill="none" stroke="#000000" points="450,-415.5 450,-445.5 708,-445.5 708,-415.5 450,-415.5"/>
<text text-anchor="start" x="457" y="-426.9" font-family="Arial" font-size="14.00" fill="#000000">object_repr </text>
<text text-anchor="start" x="530.9046" y="-426.9" font-family="Arial" font-size="14.00" fill="#666666">[varchar(200)]</text>
<polygon fill="none" stroke="#000000" points="450,-385.5 450,-415.5 708,-415.5 708,-385.5 450,-385.5"/>
<text text-anchor="start" x="457" y="-396.9" font-family="Arial" font-size="14.00" fill="#000000">action_flag </text>
<text text-anchor="start" x="528.5806" y="-396.9" font-family="Arial" font-size="14.00" fill="#666666">[smallint unsigned]</text>
<polygon fill="none" stroke="#000000" points="450,-355.5 450,-385.5 708,-385.5 708,-355.5 450,-355.5"/>
<text text-anchor="start" x="457" y="-366.9" font-family="Arial" font-size="14.00" fill="#000000">change_message </text>
<text text-anchor="start" x="571.3772" y="-366.9" font-family="Arial" font-size="14.00" fill="#666666">[longtext]</text>
<polygon fill="none" stroke="#000000" points="450,-325.5 450,-355.5 708,-355.5 708,-325.5 450,-325.5"/>
<text text-anchor="start" x="457" y="-336.9" font-family="Arial" font-size="14.00" fill="#000000">content_type_id </text>
<text text-anchor="start" x="559.7124" y="-336.9" font-family="Arial" font-size="14.00" fill="#666666">[int]</text>
<polygon fill="none" stroke="#000000" points="450,-295.5 450,-325.5 708,-325.5 708,-295.5 450,-295.5"/>
<text text-anchor="start" x="457" y="-306.9" font-family="Arial" font-size="14.00" fill="#000000">user_id </text>
<text text-anchor="start" x="506.7882" y="-306.9" font-family="Arial" font-size="14.00" fill="#666666">[int]</text>
</g>
<!-- django_admin_log&#45;&gt;django_content_type -->
<g id="edge2" class="edge">
<title>django_admin_log:content_type_id&#45;&gt;django_content_type:id</title>
<path fill="none" stroke="#000000" d="M439.8278,-338.8698C414.6193,-329.4984 430.3572,-281.8948 450,-253 474.4524,-217.0301 516.5476,-252.9699 541,-217 565.1121,-181.5308 583.8889,-120.5 541,-120.5"/>
<polygon fill="#000000" stroke="#000000" points="440.126,-338.9175 449.2879,-344.9433 445.063,-339.7088 450,-340.5 450,-340.5 450,-340.5 445.063,-339.7088 450.7121,-336.0567 440.126,-338.9175 440.126,-338.9175"/>
<text text-anchor="start" x="456.8555" y="-350.5" font-family="Arial" font-size="10.00" fill="#000000">FOREIGN KEY (content_type_id) REFERENCES django_content_type (id)</text>
</g>
</g>
</svg>
