<?xml version="1.0" encoding="UTF-8" standalone="no"?>
<!DOCTYPE svg PUBLIC "-//W3C//DTD SVG 1.1//EN"
 "http://www.w3.org/Graphics/SVG/1.1/DTD/svg11.dtd">
<!-- Generated by graphviz version 2.40.1 (20161225.0304)
 -->
<!-- Title: polls_image Pages: 1 -->
<svg width="307pt" height="225pt"
 viewBox="0.00 0.00 307.00 225.00" xmlns="http://www.w3.org/2000/svg" xmlns:xlink="http://www.w3.org/1999/xlink">
<g id="graph0" class="graph" transform="scale(1 1) rotate(0) translate(4 221)">
<title>polls_image</title>
<polygon fill="#ffffff" stroke="transparent" points="-4,4 -4,-221 303,-221 303,4 -4,4"/>
<!-- polls_image -->
<g id="node1" class="node">
<title>polls_image</title>
<polygon fill="#efefef" stroke="transparent" points="46.5,-135.5 46.5,-170.5 253.5,-170.5 253.5,-135.5 46.5,-135.5"/>
<polygon fill="none" stroke="#000000" points="46.5,-135.5 46.5,-170.5 253.5,-170.5 253.5,-135.5 46.5,-135.5"/>
<text text-anchor="start" x="53.3671" y="-148.3" font-family="Arial Bold" font-size="18.00" fill="#000000">polls_image</text>
<text text-anchor="start" x="149.3791" y="-148.3" font-family="Arial" font-size="14.00" fill="#000000"> </text>
<text text-anchor="start" x="153.2697" y="-148.3" font-family="Arial" font-size="14.00" fill="#666666">[BASE TABLE]</text>
<polygon fill="none" stroke="#000000" points="46.5,-105.5 46.5,-135.5 253.5,-135.5 253.5,-105.5 46.5,-105.5"/>
<text text-anchor="start" x="53.5" y="-116.9" font-family="Arial" font-size="14.00" fill="#000000">id </text>
<text text-anchor="start" x="68.2798" y="-116.9" font-family="Arial" font-size="14.00" fill="#666666">[int]</text>
<polygon fill="none" stroke="#000000" points="46.5,-75.5 46.5,-105.5 253.5,-105.5 253.5,-75.5 46.5,-75.5"/>
<text text-anchor="start" x="53.5" y="-86.9" font-family="Arial" font-size="14.00" fill="#000000">picture </text>
<text text-anchor="start" x="99.3962" y="-86.9" font-family="Arial" font-size="14.00" fill="#666666">[varchar(100)]</text>
<polygon fill="none" stroke="#000000" points="46.5,-45.5 46.5,-75.5 253.5,-75.5 253.5,-45.5 46.5,-45.5"/>
<text text-anchor="start" x="53.5" y="-56.9" font-family="Arial" font-size="14.00" fill="#000000">title </text>
<text text-anchor="start" x="79.1676" y="-56.9" font-family="Arial" font-size="14.00" fill="#666666">[varchar(200)]</text>
<polygon fill="none" stroke="#000000" stroke-width="3" points="44.5,-44.5 44.5,-172.5 254.5,-172.5 254.5,-44.5 44.5,-44.5"/>
</g>
</g>
</svg>
