<?xml version="1.0" encoding="UTF-8" standalone="no"?>
<!DOCTYPE svg PUBLIC "-//W3C//DTD SVG 1.1//EN"
 "http://www.w3.org/Graphics/SVG/1.1/DTD/svg11.dtd">
<!-- Generated by graphviz version 2.40.1 (20161225.0304)
 -->
<!-- Title: polls_member Pages: 1 -->
<svg width="324pt" height="225pt"
 viewBox="0.00 0.00 324.00 225.00" xmlns="http://www.w3.org/2000/svg" xmlns:xlink="http://www.w3.org/1999/xlink">
<g id="graph0" class="graph" transform="scale(1 1) rotate(0) translate(4 221)">
<title>polls_member</title>
<polygon fill="#ffffff" stroke="transparent" points="-4,4 -4,-221 320,-221 320,4 -4,4"/>
<!-- polls_member -->
<g id="node1" class="node">
<title>polls_member</title>
<polygon fill="#efefef" stroke="transparent" points="46,-135.5 46,-170.5 270,-170.5 270,-135.5 46,-135.5"/>
<polygon fill="none" stroke="#000000" points="46,-135.5 46,-170.5 270,-170.5 270,-135.5 46,-135.5"/>
<text text-anchor="start" x="52.872" y="-148.3" font-family="Arial Bold" font-size="18.00" fill="#000000">polls_member</text>
<text text-anchor="start" x="165.8742" y="-148.3" font-family="Arial" font-size="14.00" fill="#000000"> </text>
<text text-anchor="start" x="169.7648" y="-148.3" font-family="Arial" font-size="14.00" fill="#666666">[BASE TABLE]</text>
<polygon fill="none" stroke="#000000" points="46,-105.5 46,-135.5 270,-135.5 270,-105.5 46,-105.5"/>
<text text-anchor="start" x="53" y="-116.9" font-family="Arial" font-size="14.00" fill="#000000">id </text>
<text text-anchor="start" x="67.7798" y="-116.9" font-family="Arial" font-size="14.00" fill="#666666">[int]</text>
<polygon fill="none" stroke="#000000" points="46,-75.5 46,-105.5 270,-105.5 270,-75.5 46,-75.5"/>
<text text-anchor="start" x="53" y="-86.9" font-family="Arial" font-size="14.00" fill="#000000">name </text>
<text text-anchor="start" x="91.899" y="-86.9" font-family="Arial" font-size="14.00" fill="#666666">[varchar(100)]</text>
<polygon fill="none" stroke="#000000" points="46,-45.5 46,-75.5 270,-75.5 270,-45.5 46,-45.5"/>
<text text-anchor="start" x="53" y="-56.9" font-family="Arial" font-size="14.00" fill="#000000">number </text>
<text text-anchor="start" x="104.3422" y="-56.9" font-family="Arial" font-size="14.00" fill="#666666">[varchar(100)]</text>
<polygon fill="none" stroke="#000000" stroke-width="3" points="44.5,-44.5 44.5,-172.5 271.5,-172.5 271.5,-44.5 44.5,-44.5"/>
</g>
</g>
</svg>
