<?xml version="1.0" encoding="UTF-8" standalone="no"?>
<!DOCTYPE svg PUBLIC "-//W3C//DTD SVG 1.1//EN"
 "http://www.w3.org/Graphics/SVG/1.1/DTD/svg11.dtd">
<!-- Generated by graphviz version 2.40.1 (20161225.0304)
 -->
<!-- Title: polls_judge_history_detail Pages: 1 -->
<svg width="418pt" height="165pt"
 viewBox="0.00 0.00 418.00 165.00" xmlns="http://www.w3.org/2000/svg" xmlns:xlink="http://www.w3.org/1999/xlink">
<g id="graph0" class="graph" transform="scale(1 1) rotate(0) translate(4 161)">
<title>polls_judge_history_detail</title>
<polygon fill="#ffffff" stroke="transparent" points="-4,4 -4,-161 414,-161 414,4 -4,4"/>
<!-- polls_judge_history_detail -->
<g id="node1" class="node">
<title>polls_judge_history_detail</title>
<polygon fill="#efefef" stroke="transparent" points="46,-75.5 46,-110.5 364,-110.5 364,-75.5 46,-75.5"/>
<polygon fill="none" stroke="#000000" points="46,-75.5 46,-110.5 364,-110.5 364,-75.5 46,-75.5"/>
<text text-anchor="start" x="52.8488" y="-88.3" font-family="Arial Bold" font-size="18.00" fill="#000000">polls_judge_history_detail</text>
<text text-anchor="start" x="259.8974" y="-88.3" font-family="Arial" font-size="14.00" fill="#000000"> </text>
<text text-anchor="start" x="263.788" y="-88.3" font-family="Arial" font-size="14.00" fill="#666666">[BASE TABLE]</text>
<polygon fill="none" stroke="#000000" points="46,-45.5 46,-75.5 364,-75.5 364,-45.5 46,-45.5"/>
<text text-anchor="start" x="53" y="-56.9" font-family="Arial" font-size="14.00" fill="#000000">id </text>
<text text-anchor="start" x="67.7798" y="-56.9" font-family="Arial" font-size="14.00" fill="#666666">[int]</text>
<polygon fill="none" stroke="#000000" stroke-width="3" points="44.5,-44.5 44.5,-112.5 365.5,-112.5 365.5,-44.5 44.5,-44.5"/>
</g>
</g>
</svg>
