<?xml version="1.0" encoding="UTF-8" standalone="no"?>
<!DOCTYPE svg PUBLIC "-//W3C//DTD SVG 1.1//EN"
 "http://www.w3.org/Graphics/SVG/1.1/DTD/svg11.dtd">
<!-- Generated by graphviz version 2.40.1 (20161225.0304)
 -->
<!-- Title: hogehoge_dev Pages: 1 -->
<svg width="8079pt" height="623pt"
 viewBox="0.00 0.00 8078.50 623.00" xmlns="http://www.w3.org/2000/svg" xmlns:xlink="http://www.w3.org/1999/xlink">
<g id="graph0" class="graph" transform="scale(1 1) rotate(0) translate(4 619)">
<title>hogehoge_dev</title>
<polygon fill="#ffffff" stroke="transparent" points="-4,4 -4,-619 8074.5,-619 8074.5,4 -4,4"/>
<!-- auth_group -->
<g id="node1" class="node">
<title>auth_group</title>
<polygon fill="#efefef" stroke="transparent" points="289,-274.5 289,-309.5 491,-309.5 491,-274.5 289,-274.5"/>
<polygon fill="none" stroke="#000000" points="289,-274.5 289,-309.5 491,-309.5 491,-274.5 289,-274.5"/>
<text text-anchor="start" x="295.8511" y="-287.3" font-family="Arial Bold" font-size="18.00" fill="#000000">auth_group</text>
<text text-anchor="start" x="386.8951" y="-287.3" font-family="Arial" font-size="14.00" fill="#000000"> </text>
<text text-anchor="start" x="390.7857" y="-287.3" font-family="Arial" font-size="14.00" fill="#666666">[BASE TABLE]</text>
<polygon fill="none" stroke="#000000" points="289,-244.5 289,-274.5 491,-274.5 491,-244.5 289,-244.5"/>
<text text-anchor="start" x="296" y="-255.9" font-family="Arial" font-size="14.00" fill="#000000">id </text>
<text text-anchor="start" x="310.7798" y="-255.9" font-family="Arial" font-size="14.00" fill="#666666">[int]</text>
</g>
<!-- auth_group_permissions -->
<g id="node2" class="node">
<title>auth_group_permissions</title>
<polygon fill="#efefef" stroke="transparent" points="43,-536.5 43,-571.5 351,-571.5 351,-536.5 43,-536.5"/>
<polygon fill="none" stroke="#000000" points="43,-536.5 43,-571.5 351,-571.5 351,-536.5 43,-536.5"/>
<text text-anchor="start" x="49.8492" y="-549.3" font-family="Arial Bold" font-size="18.00" fill="#000000">auth_group_permissions</text>
<text text-anchor="start" x="246.897" y="-549.3" font-family="Arial" font-size="14.00" fill="#000000"> </text>
<text text-anchor="start" x="250.7876" y="-549.3" font-family="Arial" font-size="14.00" fill="#666666">[BASE TABLE]</text>
<polygon fill="none" stroke="#000000" points="43,-506.5 43,-536.5 351,-536.5 351,-506.5 43,-506.5"/>
<text text-anchor="start" x="50" y="-517.9" font-family="Arial" font-size="14.00" fill="#000000">id </text>
<text text-anchor="start" x="64.7798" y="-517.9" font-family="Arial" font-size="14.00" fill="#666666">[int]</text>
<polygon fill="none" stroke="#000000" points="43,-476.5 43,-506.5 351,-506.5 351,-476.5 43,-476.5"/>
<text text-anchor="start" x="50" y="-487.9" font-family="Arial" font-size="14.00" fill="#000000">group_id </text>
<text text-anchor="start" x="108.3534" y="-487.9" font-family="Arial" font-size="14.00" fill="#666666">[int]</text>
<polygon fill="none" stroke="#000000" points="43,-446.5 43,-476.5 351,-476.5 351,-446.5 43,-446.5"/>
<text text-anchor="start" x="50" y="-457.9" font-family="Arial" font-size="14.00" fill="#000000">permission_id </text>
<text text-anchor="start" x="140.2272" y="-457.9" font-family="Arial" font-size="14.00" fill="#666666">[int]</text>
</g>
<!-- auth_group_permissions&#45;&gt;auth_group -->
<g id="edge2" class="edge">
<title>auth_group_permissions:group_id&#45;&gt;auth_group:id</title>
<path fill="none" stroke="#000000" d="M361.0261,-489.9533C385.4214,-481.0465 365.9205,-435.5932 351,-404 335.763,-371.7367 304.237,-385.2633 289,-353 271.254,-315.4241 247.4444,-259.5 289,-259.5"/>
<polygon fill="#000000" stroke="#000000" points="360.8831,-489.9753 350.3139,-487.0526 355.9415,-490.7376 351,-491.5 351,-491.5 351,-491.5 355.9415,-490.7376 351.6861,-495.9474 360.8831,-489.9753 360.8831,-489.9753"/>
<text text-anchor="start" x="221.8195" y="-475.5" font-family="Arial" font-size="10.00" fill="#000000">FOREIGN KEY (group_id) REFERENCES auth_group (id)</text>
</g>
<!-- auth_permission -->
<g id="node3" class="node">
<title>auth_permission</title>
<polygon fill="#efefef" stroke="transparent" points="864,-289.5 864,-324.5 1107,-324.5 1107,-289.5 864,-289.5"/>
<polygon fill="none" stroke="#000000" points="864,-289.5 864,-324.5 1107,-324.5 1107,-289.5 864,-289.5"/>
<text text-anchor="start" x="870.8608" y="-302.3" font-family="Arial Bold" font-size="18.00" fill="#000000">auth_permission</text>
<text text-anchor="start" x="1002.8854" y="-302.3" font-family="Arial" font-size="14.00" fill="#000000"> </text>
<text text-anchor="start" x="1006.776" y="-302.3" font-family="Arial" font-size="14.00" fill="#666666">[BASE TABLE]</text>
<polygon fill="none" stroke="#000000" points="864,-259.5 864,-289.5 1107,-289.5 1107,-259.5 864,-259.5"/>
<text text-anchor="start" x="871" y="-270.9" font-family="Arial" font-size="14.00" fill="#000000">id </text>
<text text-anchor="start" x="885.7798" y="-270.9" font-family="Arial" font-size="14.00" fill="#666666">[int]</text>
<polygon fill="none" stroke="#000000" points="864,-229.5 864,-259.5 1107,-259.5 1107,-229.5 864,-229.5"/>
<text text-anchor="start" x="871" y="-240.9" font-family="Arial" font-size="14.00" fill="#000000">content_type_id </text>
<text text-anchor="start" x="973.7124" y="-240.9" font-family="Arial" font-size="14.00" fill="#666666">[int]</text>
</g>
<!-- auth_group_permissions&#45;&gt;auth_permission -->
<g id="edge1" class="edge">
<title>auth_group_permissions:permission_id&#45;&gt;auth_permission:id</title>
<path fill="none" stroke="#000000" d="M361.051,-460.0619C383.2814,-452.791 376.852,-419.8035 403,-404 457.9842,-370.7684 481.0396,-384.9856 543,-368 686.3083,-328.7141 715.4044,-274.5 864,-274.5"/>
<polygon fill="#000000" stroke="#000000" points="360.8992,-460.0836 350.3626,-457.0454 355.9496,-460.7918 351,-461.5 351,-461.5 351,-461.5 355.9496,-460.7918 351.6374,-465.9546 360.8992,-460.0836 360.8992,-460.0836"/>
<text text-anchor="start" x="199.5525" y="-445.5" font-family="Arial" font-size="10.00" fill="#000000">FOREIGN KEY (permission_id) REFERENCES auth_permission (id)</text>
</g>
<!-- django_content_type -->
<g id="node8" class="node">
<title>django_content_type</title>
<polygon fill="#efefef" stroke="transparent" points="1192,-72.5 1192,-107.5 1470,-107.5 1470,-72.5 1192,-72.5"/>
<polygon fill="none" stroke="#000000" points="1192,-72.5 1192,-107.5 1470,-107.5 1470,-72.5 1192,-72.5"/>
<text text-anchor="start" x="1198.8324" y="-85.3" font-family="Arial Bold" font-size="18.00" fill="#000000">django_content_type</text>
<text text-anchor="start" x="1365.9138" y="-85.3" font-family="Arial" font-size="14.00" fill="#000000"> </text>
<text text-anchor="start" x="1369.8044" y="-85.3" font-family="Arial" font-size="14.00" fill="#666666">[BASE TABLE]</text>
<polygon fill="none" stroke="#000000" points="1192,-42.5 1192,-72.5 1470,-72.5 1470,-42.5 1192,-42.5"/>
<text text-anchor="start" x="1199" y="-53.9" font-family="Arial" font-size="14.00" fill="#000000">id </text>
<text text-anchor="start" x="1213.7798" y="-53.9" font-family="Arial" font-size="14.00" fill="#666666">[int]</text>
</g>
<!-- auth_permission&#45;&gt;django_content_type -->
<g id="edge3" class="edge">
<title>auth_permission:content_type_id&#45;&gt;django_content_type:id</title>
<path fill="none" stroke="#000000" d="M1117.3063,-243.582C1190.6066,-229.4747 1104.4504,-57.5 1192,-57.5"/>
<polygon fill="#000000" stroke="#000000" points="1116.9606,-243.6127 1106.6007,-240.0177 1111.9803,-244.0564 1107,-244.5 1107,-244.5 1107,-244.5 1111.9803,-244.0564 1107.3993,-248.9823 1116.9606,-243.6127 1116.9606,-243.6127"/>
<text text-anchor="start" x="1113.8555" y="-254.5" font-family="Arial" font-size="10.00" fill="#000000">FOREIGN KEY (content_type_id) REFERENCES django_content_type (id)</text>
</g>
<!-- auth_user -->
<g id="node4" class="node">
<title>auth_user</title>
<polygon fill="#efefef" stroke="transparent" points="1270,-274.5 1270,-309.5 1461,-309.5 1461,-274.5 1270,-274.5"/>
<polygon fill="none" stroke="#000000" points="1270,-274.5 1270,-309.5 1461,-309.5 1461,-274.5 1270,-274.5"/>
<text text-anchor="start" x="1276.8573" y="-287.3" font-family="Arial Bold" font-size="18.00" fill="#000000">auth_user</text>
<text text-anchor="start" x="1356.8889" y="-287.3" font-family="Arial" font-size="14.00" fill="#000000"> </text>
<text text-anchor="start" x="1360.7795" y="-287.3" font-family="Arial" font-size="14.00" fill="#666666">[BASE TABLE]</text>
<polygon fill="none" stroke="#000000" points="1270,-244.5 1270,-274.5 1461,-274.5 1461,-244.5 1270,-244.5"/>
<text text-anchor="start" x="1277" y="-255.9" font-family="Arial" font-size="14.00" fill="#000000">id </text>
<text text-anchor="start" x="1291.7798" y="-255.9" font-family="Arial" font-size="14.00" fill="#666666">[int]</text>
</g>
<!-- auth_user_groups -->
<g id="node5" class="node">
<title>auth_user_groups</title>
<polygon fill="#efefef" stroke="transparent" points="455,-536.5 455,-571.5 711,-571.5 711,-536.5 455,-536.5"/>
<polygon fill="none" stroke="#000000" points="455,-536.5 455,-571.5 711,-571.5 711,-536.5 455,-536.5"/>
<text text-anchor="start" x="461.8457" y="-549.3" font-family="Arial Bold" font-size="18.00" fill="#000000">auth_user_groups</text>
<text text-anchor="start" x="606.9005" y="-549.3" font-family="Arial" font-size="14.00" fill="#000000"> </text>
<text text-anchor="start" x="610.7911" y="-549.3" font-family="Arial" font-size="14.00" fill="#666666">[BASE TABLE]</text>
<polygon fill="none" stroke="#000000" points="455,-506.5 455,-536.5 711,-536.5 711,-506.5 455,-506.5"/>
<text text-anchor="start" x="462" y="-517.9" font-family="Arial" font-size="14.00" fill="#000000">id </text>
<text text-anchor="start" x="476.7798" y="-517.9" font-family="Arial" font-size="14.00" fill="#666666">[int]</text>
<polygon fill="none" stroke="#000000" points="455,-476.5 455,-506.5 711,-506.5 711,-476.5 455,-476.5"/>
<text text-anchor="start" x="462" y="-487.9" font-family="Arial" font-size="14.00" fill="#000000">user_id </text>
<text text-anchor="start" x="511.7882" y="-487.9" font-family="Arial" font-size="14.00" fill="#666666">[int]</text>
<polygon fill="none" stroke="#000000" points="455,-446.5 455,-476.5 711,-476.5 711,-446.5 455,-446.5"/>
<text text-anchor="start" x="462" y="-457.9" font-family="Arial" font-size="14.00" fill="#000000">group_id </text>
<text text-anchor="start" x="520.3534" y="-457.9" font-family="Arial" font-size="14.00" fill="#666666">[int]</text>
</g>
<!-- auth_user_groups&#45;&gt;auth_group -->
<g id="edge4" class="edge">
<title>auth_user_groups:group_id&#45;&gt;auth_group:id</title>
<path fill="none" stroke="#000000" d="M445.1156,-458.533C435.5243,-449.8732 448.6582,-423.9813 455,-404 463.3933,-377.5551 482.6067,-379.4449 491,-353 503.5712,-313.3916 532.5556,-259.5 491,-259.5"/>
<polygon fill="#000000" stroke="#000000" points="445.4222,-458.625 453.7062,-465.81 450.2111,-460.0625 455,-461.5 455,-461.5 455,-461.5 450.2111,-460.0625 456.2938,-457.19 445.4222,-458.625 445.4222,-458.625"/>
<text text-anchor="start" x="461.8195" y="-471.5" font-family="Arial" font-size="10.00" fill="#000000">FOREIGN KEY (group_id) REFERENCES auth_group (id)</text>
</g>
<!-- auth_user_groups&#45;&gt;auth_user -->
<g id="edge5" class="edge">
<title>auth_user_groups:user_id&#45;&gt;auth_user:id</title>
<path fill="none" stroke="#000000" d="M721.0557,-490.1612C751.3391,-480.8988 728.026,-426.0606 763,-404 912.0998,-309.9521 997.7799,-441.5205 1158,-368 1220.9901,-339.0956 1200.6948,-259.5 1270,-259.5"/>
<polygon fill="#000000" stroke="#000000" points="720.9125,-490.1802 710.4061,-487.0394 715.9563,-490.8401 711,-491.5 711,-491.5 711,-491.5 715.9563,-490.8401 711.5939,-495.9606 720.9125,-490.1802 720.9125,-490.1802"/>
<text text-anchor="start" x="457.9375" y="-501.5" font-family="Arial" font-size="10.00" fill="#000000">FOREIGN KEY (user_id) REFERENCES auth_user (id)</text>
</g>
<!-- auth_user_user_permissions -->
<g id="node6" class="node">
<title>auth_user_user_permissions</title>
<polygon fill="#efefef" stroke="transparent" points="815,-536.5 815,-571.5 1157,-571.5 1157,-536.5 815,-536.5"/>
<polygon fill="none" stroke="#000000" points="815,-536.5 815,-571.5 1157,-571.5 1157,-536.5 815,-536.5"/>
<text text-anchor="start" x="821.85" y="-549.3" font-family="Arial Bold" font-size="18.00" fill="#000000">auth_user_user_permissions</text>
<text text-anchor="start" x="1052.8962" y="-549.3" font-family="Arial" font-size="14.00" fill="#000000"> </text>
<text text-anchor="start" x="1056.7868" y="-549.3" font-family="Arial" font-size="14.00" fill="#666666">[BASE TABLE]</text>
<polygon fill="none" stroke="#000000" points="815,-506.5 815,-536.5 1157,-536.5 1157,-506.5 815,-506.5"/>
<text text-anchor="start" x="822" y="-517.9" font-family="Arial" font-size="14.00" fill="#000000">id </text>
<text text-anchor="start" x="836.7798" y="-517.9" font-family="Arial" font-size="14.00" fill="#666666">[int]</text>
<polygon fill="none" stroke="#000000" points="815,-476.5 815,-506.5 1157,-506.5 1157,-476.5 815,-476.5"/>
<text text-anchor="start" x="822" y="-487.9" font-family="Arial" font-size="14.00" fill="#000000">user_id </text>
<text text-anchor="start" x="871.7882" y="-487.9" font-family="Arial" font-size="14.00" fill="#666666">[int]</text>
<polygon fill="none" stroke="#000000" points="815,-446.5 815,-476.5 1157,-476.5 1157,-446.5 815,-446.5"/>
<text text-anchor="start" x="822" y="-457.9" font-family="Arial" font-size="14.00" fill="#000000">permission_id </text>
<text text-anchor="start" x="912.2272" y="-457.9" font-family="Arial" font-size="14.00" fill="#666666">[int]</text>
</g>
<!-- auth_user_user_permissions&#45;&gt;auth_permission -->
<g id="edge6" class="edge">
<title>auth_user_user_permissions:permission_id&#45;&gt;auth_permission:id</title>
<path fill="none" stroke="#000000" d="M986.9009,-436.2828C996.3884,-386.9729 1078.1925,-421.028 1107,-368 1126.8369,-331.4848 1148.5556,-274.5 1107,-274.5"/>
<polygon fill="#000000" stroke="#000000" points="986.8784,-436.5386 981.5174,-446.1047 986.4392,-441.5193 986,-446.5 986,-446.5 986,-446.5 986.4392,-441.5193 990.4826,-446.8953 986.8784,-436.5386 986.8784,-436.5386"/>
<text text-anchor="start" x="834.5525" y="-430.5" font-family="Arial" font-size="10.00" fill="#000000">FOREIGN KEY (permission_id) REFERENCES auth_permission (id)</text>
</g>
<!-- auth_user_user_permissions&#45;&gt;auth_user -->
<g id="edge7" class="edge">
<title>auth_user_user_permissions:user_id&#45;&gt;auth_user:id</title>
<path fill="none" stroke="#000000" d="M1166.7933,-489.0515C1214.3574,-464.2567 1216.1263,-259.5 1270,-259.5"/>
<polygon fill="#000000" stroke="#000000" points="1166.7014,-489.0744 1155.9085,-487.1344 1161.8507,-490.2872 1157,-491.5 1157,-491.5 1157,-491.5 1161.8507,-490.2872 1158.0915,-495.8656 1166.7014,-489.0744 1166.7014,-489.0744"/>
<text text-anchor="start" x="1163.9375" y="-501.5" font-family="Arial" font-size="10.00" fill="#000000">FOREIGN KEY (user_id) REFERENCES auth_user (id)</text>
</g>
<!-- django_admin_log -->
<g id="node7" class="node">
<title>django_admin_log</title>
<polygon fill="#efefef" stroke="transparent" points="1693,-536.5 1693,-571.5 1951,-571.5 1951,-536.5 1693,-536.5"/>
<polygon fill="none" stroke="#000000" points="1693,-536.5 1693,-571.5 1951,-571.5 1951,-536.5 1693,-536.5"/>
<text text-anchor="start" x="1699.8485" y="-549.3" font-family="Arial Bold" font-size="18.00" fill="#000000">django_admin_log</text>
<text text-anchor="start" x="1846.8977" y="-549.3" font-family="Arial" font-size="14.00" fill="#000000"> </text>
<text text-anchor="start" x="1850.7883" y="-549.3" font-family="Arial" font-size="14.00" fill="#666666">[BASE TABLE]</text>
<polygon fill="none" stroke="#000000" points="1693,-506.5 1693,-536.5 1951,-536.5 1951,-506.5 1693,-506.5"/>
<text text-anchor="start" x="1700" y="-517.9" font-family="Arial" font-size="14.00" fill="#000000">id </text>
<text text-anchor="start" x="1714.7798" y="-517.9" font-family="Arial" font-size="14.00" fill="#666666">[int]</text>
<polygon fill="none" stroke="#000000" points="1693,-476.5 1693,-506.5 1951,-506.5 1951,-476.5 1693,-476.5"/>
<text text-anchor="start" x="1700" y="-487.9" font-family="Arial" font-size="14.00" fill="#000000">content_type_id </text>
<text text-anchor="start" x="1802.7124" y="-487.9" font-family="Arial" font-size="14.00" fill="#666666">[int]</text>
<polygon fill="none" stroke="#000000" points="1693,-446.5 1693,-476.5 1951,-476.5 1951,-446.5 1693,-446.5"/>
<text text-anchor="start" x="1700" y="-457.9" font-family="Arial" font-size="14.00" fill="#000000">user_id </text>
<text text-anchor="start" x="1749.7882" y="-457.9" font-family="Arial" font-size="14.00" fill="#666666">[int]</text>
</g>
<!-- django_admin_log&#45;&gt;auth_user -->
<g id="edge9" class="edge">
<title>django_admin_log:user_id&#45;&gt;auth_user:id</title>
<path fill="none" stroke="#000000" d="M1682.7982,-460.2605C1659.8308,-453.9592 1663.2295,-424.9598 1641,-404 1566.3583,-333.6216 1563.589,-259.5 1461,-259.5"/>
<polygon fill="#000000" stroke="#000000" points="1683.073,-460.2938 1692.4572,-465.9671 1688.0365,-460.8969 1693,-461.5 1693,-461.5 1693,-461.5 1688.0365,-460.8969 1693.5428,-457.0329 1683.073,-460.2938 1683.073,-460.2938"/>
<text text-anchor="start" x="1439.9375" y="-471.5" font-family="Arial" font-size="10.00" fill="#000000">FOREIGN KEY (user_id) REFERENCES auth_user (id)</text>
</g>
<!-- django_admin_log&#45;&gt;django_content_type -->
<g id="edge8" class="edge">
<title>django_admin_log:content_type_id&#45;&gt;django_content_type:id</title>
<path fill="none" stroke="#000000" d="M1686.4234,-483.5966C1649.242,-424.7752 1482.4685,-57.5 1470,-57.5"/>
<polygon fill="#000000" stroke="#000000" points="1686.6036,-483.8132 1689.5409,-494.3784 1689.8018,-487.6566 1693,-491.5 1693,-491.5 1693,-491.5 1689.8018,-487.6566 1696.4591,-488.6216 1686.6036,-483.8132 1686.6036,-483.8132"/>
<text text-anchor="start" x="1699.8555" y="-501.5" font-family="Arial" font-size="10.00" fill="#000000">FOREIGN KEY (content_type_id) REFERENCES django_content_type (id)</text>
</g>
<!-- django_migrations -->
<g id="node9" class="node">
<title>django_migrations</title>
<polygon fill="#efefef" stroke="transparent" points="2055,-506.5 2055,-541.5 2313,-541.5 2313,-506.5 2055,-506.5"/>
<polygon fill="none" stroke="#000000" points="2055,-506.5 2055,-541.5 2313,-541.5 2313,-506.5 2055,-506.5"/>
<text text-anchor="start" x="2061.8575" y="-519.3" font-family="Arial Bold" font-size="18.00" fill="#000000">django_migrations</text>
<text text-anchor="start" x="2208.8887" y="-519.3" font-family="Arial" font-size="14.00" fill="#000000"> </text>
<text text-anchor="start" x="2212.7793" y="-519.3" font-family="Arial" font-size="14.00" fill="#666666">[BASE TABLE]</text>
<polygon fill="none" stroke="#000000" points="2055,-476.5 2055,-506.5 2313,-506.5 2313,-476.5 2055,-476.5"/>
<text text-anchor="start" x="2062" y="-487.9" font-family="Arial" font-size="14.00" fill="#000000">id </text>
<text text-anchor="start" x="2076.7798" y="-487.9" font-family="Arial" font-size="14.00" fill="#666666">[int]</text>
</g>
<!-- django_session -->
<g id="node10" class="node">
<title>django_session</title>
<polygon fill="#efefef" stroke="transparent" points="2417,-506.5 2417,-541.5 2653,-541.5 2653,-506.5 2417,-506.5"/>
<polygon fill="none" stroke="#000000" points="2417,-506.5 2417,-541.5 2653,-541.5 2653,-506.5 2417,-506.5"/>
<text text-anchor="start" x="2423.851" y="-519.3" font-family="Arial Bold" font-size="18.00" fill="#000000">django_session</text>
<text text-anchor="start" x="2548.8952" y="-519.3" font-family="Arial" font-size="14.00" fill="#000000"> </text>
<text text-anchor="start" x="2552.7858" y="-519.3" font-family="Arial" font-size="14.00" fill="#666666">[BASE TABLE]</text>
<polygon fill="none" stroke="#000000" points="2417,-476.5 2417,-506.5 2653,-506.5 2653,-476.5 2417,-476.5"/>
<text text-anchor="start" x="2424" y="-487.9" font-family="Arial" font-size="14.00" fill="#000000">session_key </text>
<text text-anchor="start" x="2504.9102" y="-487.9" font-family="Arial" font-size="14.00" fill="#666666">[varchar(40)]</text>
</g>
<!-- polls_file -->
<g id="node11" class="node">
<title>polls_file</title>
<polygon fill="#efefef" stroke="transparent" points="2758,-506.5 2758,-541.5 2939,-541.5 2939,-506.5 2758,-506.5"/>
<polygon fill="none" stroke="#000000" points="2758,-506.5 2758,-541.5 2939,-541.5 2939,-506.5 2758,-506.5"/>
<text text-anchor="start" x="2764.8712" y="-519.3" font-family="Arial Bold" font-size="18.00" fill="#000000">polls_file</text>
<text text-anchor="start" x="2834.875" y="-519.3" font-family="Arial" font-size="14.00" fill="#000000"> </text>
<text text-anchor="start" x="2838.7656" y="-519.3" font-family="Arial" font-size="14.00" fill="#666666">[BASE TABLE]</text>
<polygon fill="none" stroke="#000000" points="2758,-476.5 2758,-506.5 2939,-506.5 2939,-476.5 2758,-476.5"/>
<text text-anchor="start" x="2765" y="-487.9" font-family="Arial" font-size="14.00" fill="#000000">id </text>
<text text-anchor="start" x="2779.7798" y="-487.9" font-family="Arial" font-size="14.00" fill="#666666">[int]</text>
</g>
<!-- polls_image -->
<g id="node12" class="node">
<title>polls_image</title>
<polygon fill="#efefef" stroke="transparent" points="3043,-506.5 3043,-541.5 3250,-541.5 3250,-506.5 3043,-506.5"/>
<polygon fill="none" stroke="#000000" points="3043,-506.5 3043,-541.5 3250,-541.5 3250,-506.5 3043,-506.5"/>
<text text-anchor="start" x="3049.8671" y="-519.3" font-family="Arial Bold" font-size="18.00" fill="#000000">polls_image</text>
<text text-anchor="start" x="3145.8791" y="-519.3" font-family="Arial" font-size="14.00" fill="#000000"> </text>
<text text-anchor="start" x="3149.7697" y="-519.3" font-family="Arial" font-size="14.00" fill="#666666">[BASE TABLE]</text>
<polygon fill="none" stroke="#000000" points="3043,-476.5 3043,-506.5 3250,-506.5 3250,-476.5 3043,-476.5"/>
<text text-anchor="start" x="3050" y="-487.9" font-family="Arial" font-size="14.00" fill="#000000">id </text>
<text text-anchor="start" x="3064.7798" y="-487.9" font-family="Arial" font-size="14.00" fill="#666666">[int]</text>
</g>
<!-- polls_item_category_master -->
<g id="node13" class="node">
<title>polls_item_category_master</title>
<polygon fill="#efefef" stroke="transparent" points="3354,-506.5 3354,-541.5 3690,-541.5 3690,-506.5 3354,-506.5"/>
<polygon fill="none" stroke="#000000" points="3354,-506.5 3354,-541.5 3690,-541.5 3690,-506.5 3354,-506.5"/>
<text text-anchor="start" x="3360.8569" y="-519.3" font-family="Arial Bold" font-size="18.00" fill="#000000">polls_item_category_master</text>
<text text-anchor="start" x="3585.8893" y="-519.3" font-family="Arial" font-size="14.00" fill="#000000"> </text>
<text text-anchor="start" x="3589.7799" y="-519.3" font-family="Arial" font-size="14.00" fill="#666666">[BASE TABLE]</text>
<polygon fill="none" stroke="#000000" points="3354,-476.5 3354,-506.5 3690,-506.5 3690,-476.5 3354,-476.5"/>
<text text-anchor="start" x="3361" y="-487.9" font-family="Arial" font-size="14.00" fill="#000000">id </text>
<text text-anchor="start" x="3375.7798" y="-487.9" font-family="Arial" font-size="14.00" fill="#666666">[int]</text>
</g>
<!-- polls_judge_history -->
<g id="node14" class="node">
<title>polls_judge_history</title>
<polygon fill="#efefef" stroke="transparent" points="3795,-506.5 3795,-541.5 4060,-541.5 4060,-506.5 3795,-506.5"/>
<polygon fill="none" stroke="#000000" points="3795,-506.5 3795,-541.5 4060,-541.5 4060,-506.5 3795,-506.5"/>
<text text-anchor="start" x="3801.8565" y="-519.3" font-family="Arial Bold" font-size="18.00" fill="#000000">polls_judge_history</text>
<text text-anchor="start" x="3955.8897" y="-519.3" font-family="Arial" font-size="14.00" fill="#000000"> </text>
<text text-anchor="start" x="3959.7803" y="-519.3" font-family="Arial" font-size="14.00" fill="#666666">[BASE TABLE]</text>
<polygon fill="none" stroke="#000000" points="3795,-476.5 3795,-506.5 4060,-506.5 4060,-476.5 3795,-476.5"/>
<text text-anchor="start" x="3802" y="-487.9" font-family="Arial" font-size="14.00" fill="#000000">id </text>
<text text-anchor="start" x="3816.7798" y="-487.9" font-family="Arial" font-size="14.00" fill="#666666">[int]</text>
</g>
<!-- polls_judge_history_detail -->
<g id="node15" class="node">
<title>polls_judge_history_detail</title>
<polygon fill="#efefef" stroke="transparent" points="4164,-506.5 4164,-541.5 4482,-541.5 4482,-506.5 4164,-506.5"/>
<polygon fill="none" stroke="#000000" points="4164,-506.5 4164,-541.5 4482,-541.5 4482,-506.5 4164,-506.5"/>
<text text-anchor="start" x="4170.8488" y="-519.3" font-family="Arial Bold" font-size="18.00" fill="#000000">polls_judge_history_detail</text>
<text text-anchor="start" x="4377.8974" y="-519.3" font-family="Arial" font-size="14.00" fill="#000000"> </text>
<text text-anchor="start" x="4381.788" y="-519.3" font-family="Arial" font-size="14.00" fill="#666666">[BASE TABLE]</text>
<polygon fill="none" stroke="#000000" points="4164,-476.5 4164,-506.5 4482,-506.5 4482,-476.5 4164,-476.5"/>
<text text-anchor="start" x="4171" y="-487.9" font-family="Arial" font-size="14.00" fill="#000000">id </text>
<text text-anchor="start" x="4185.7798" y="-487.9" font-family="Arial" font-size="14.00" fill="#666666">[int]</text>
</g>
<!-- polls_member -->
<g id="node16" class="node">
<title>polls_member</title>
<polygon fill="#efefef" stroke="transparent" points="4586,-506.5 4586,-541.5 4810,-541.5 4810,-506.5 4586,-506.5"/>
<polygon fill="none" stroke="#000000" points="4586,-506.5 4586,-541.5 4810,-541.5 4810,-506.5 4586,-506.5"/>
<text text-anchor="start" x="4592.872" y="-519.3" font-family="Arial Bold" font-size="18.00" fill="#000000">polls_member</text>
<text text-anchor="start" x="4705.8742" y="-519.3" font-family="Arial" font-size="14.00" fill="#000000"> </text>
<text text-anchor="start" x="4709.7648" y="-519.3" font-family="Arial" font-size="14.00" fill="#666666">[BASE TABLE]</text>
<polygon fill="none" stroke="#000000" points="4586,-476.5 4586,-506.5 4810,-506.5 4810,-476.5 4586,-476.5"/>
<text text-anchor="start" x="4593" y="-487.9" font-family="Arial" font-size="14.00" fill="#000000">id </text>
<text text-anchor="start" x="4607.7798" y="-487.9" font-family="Arial" font-size="14.00" fill="#666666">[int]</text>
</g>
<!-- polls_ngword_master -->
<g id="node17" class="node">
<title>polls_ngword_master</title>
<polygon fill="#efefef" stroke="transparent" points="4914,-506.5 4914,-541.5 5196,-541.5 5196,-506.5 4914,-506.5"/>
<polygon fill="none" stroke="#000000" points="4914,-506.5 4914,-541.5 5196,-541.5 5196,-506.5 4914,-506.5"/>
<text text-anchor="start" x="4920.8614" y="-519.3" font-family="Arial Bold" font-size="18.00" fill="#000000">polls_ngword_master</text>
<text text-anchor="start" x="5091.8848" y="-519.3" font-family="Arial" font-size="14.00" fill="#000000"> </text>
<text text-anchor="start" x="5095.7754" y="-519.3" font-family="Arial" font-size="14.00" fill="#666666">[BASE TABLE]</text>
<polygon fill="none" stroke="#000000" points="4914,-476.5 4914,-506.5 5196,-506.5 5196,-476.5 4914,-476.5"/>
<text text-anchor="start" x="4921" y="-487.9" font-family="Arial" font-size="14.00" fill="#000000">id </text>
<text text-anchor="start" x="4935.7798" y="-487.9" font-family="Arial" font-size="14.00" fill="#666666">[int]</text>
</g>
<!-- polls_ngword_master_old -->
<g id="node18" class="node">
<title>polls_ngword_master_old</title>
<polygon fill="#efefef" stroke="transparent" points="5300,-506.5 5300,-541.5 5616,-541.5 5616,-506.5 5300,-506.5"/>
<polygon fill="none" stroke="#000000" points="5300,-506.5 5300,-541.5 5616,-541.5 5616,-506.5 5300,-506.5"/>
<text text-anchor="start" x="5306.855" y="-519.3" font-family="Arial Bold" font-size="18.00" fill="#000000">polls_ngword_master_old</text>
<text text-anchor="start" x="5511.8912" y="-519.3" font-family="Arial" font-size="14.00" fill="#000000"> </text>
<text text-anchor="start" x="5515.7818" y="-519.3" font-family="Arial" font-size="14.00" fill="#666666">[BASE TABLE]</text>
<polygon fill="none" stroke="#000000" points="5300,-476.5 5300,-506.5 5616,-506.5 5616,-476.5 5300,-476.5"/>
<text text-anchor="start" x="5307" y="-487.9" font-family="Arial" font-size="14.00" fill="#000000">id </text>
<text text-anchor="start" x="5321.7798" y="-487.9" font-family="Arial" font-size="14.00" fill="#666666">[int]</text>
</g>
<!-- polls_ngword_master_old1109 -->
<g id="node19" class="node">
<title>polls_ngword_master_old1109</title>
<polygon fill="#efefef" stroke="transparent" points="5720,-506.5 5720,-541.5 6076,-541.5 6076,-506.5 5720,-506.5"/>
<polygon fill="none" stroke="#000000" points="5720,-506.5 5720,-541.5 6076,-541.5 6076,-506.5 5720,-506.5"/>
<text text-anchor="start" x="5726.8426" y="-519.3" font-family="Arial Bold" font-size="18.00" fill="#000000">polls_ngword_master_old1109</text>
<text text-anchor="start" x="5971.9036" y="-519.3" font-family="Arial" font-size="14.00" fill="#000000"> </text>
<text text-anchor="start" x="5975.7942" y="-519.3" font-family="Arial" font-size="14.00" fill="#666666">[BASE TABLE]</text>
<polygon fill="none" stroke="#000000" points="5720,-476.5 5720,-506.5 6076,-506.5 6076,-476.5 5720,-476.5"/>
<text text-anchor="start" x="5727" y="-487.9" font-family="Arial" font-size="14.00" fill="#000000">id </text>
<text text-anchor="start" x="5741.7798" y="-487.9" font-family="Arial" font-size="14.00" fill="#666666">[int]</text>
</g>
<!-- polls_ngword_master_old1130 -->
<g id="node20" class="node">
<title>polls_ngword_master_old1130</title>
<polygon fill="#efefef" stroke="transparent" points="6180,-506.5 6180,-541.5 6536,-541.5 6536,-506.5 6180,-506.5"/>
<polygon fill="none" stroke="#000000" points="6180,-506.5 6180,-541.5 6536,-541.5 6536,-506.5 6180,-506.5"/>
<text text-anchor="start" x="6186.8426" y="-519.3" font-family="Arial Bold" font-size="18.00" fill="#000000">polls_ngword_master_old1130</text>
<text text-anchor="start" x="6431.9036" y="-519.3" font-family="Arial" font-size="14.00" fill="#000000"> </text>
<text text-anchor="start" x="6435.7942" y="-519.3" font-family="Arial" font-size="14.00" fill="#666666">[BASE TABLE]</text>
<polygon fill="none" stroke="#000000" points="6180,-476.5 6180,-506.5 6536,-506.5 6536,-476.5 6180,-476.5"/>
<text text-anchor="start" x="6187" y="-487.9" font-family="Arial" font-size="14.00" fill="#000000">id </text>
<text text-anchor="start" x="6201.7798" y="-487.9" font-family="Arial" font-size="14.00" fill="#666666">[int]</text>
</g>
<!-- social_auth_association -->
<g id="node21" class="node">
<title>social_auth_association</title>
<polygon fill="#efefef" stroke="transparent" points="6640,-506.5 6640,-541.5 6942,-541.5 6942,-506.5 6640,-506.5"/>
<polygon fill="none" stroke="#000000" points="6640,-506.5 6640,-541.5 6942,-541.5 6942,-506.5 6640,-506.5"/>
<text text-anchor="start" x="6646.8453" y="-519.3" font-family="Arial Bold" font-size="18.00" fill="#000000">social_auth_association</text>
<text text-anchor="start" x="6837.9009" y="-519.3" font-family="Arial" font-size="14.00" fill="#000000"> </text>
<text text-anchor="start" x="6841.7915" y="-519.3" font-family="Arial" font-size="14.00" fill="#666666">[BASE TABLE]</text>
<polygon fill="none" stroke="#000000" points="6640,-476.5 6640,-506.5 6942,-506.5 6942,-476.5 6640,-476.5"/>
<text text-anchor="start" x="6647" y="-487.9" font-family="Arial" font-size="14.00" fill="#000000">id </text>
<text text-anchor="start" x="6661.7798" y="-487.9" font-family="Arial" font-size="14.00" fill="#666666">[int]</text>
</g>
<!-- social_auth_code -->
<g id="node22" class="node">
<title>social_auth_code</title>
<polygon fill="#efefef" stroke="transparent" points="7047,-506.5 7047,-541.5 7298,-541.5 7298,-506.5 7047,-506.5"/>
<polygon fill="none" stroke="#000000" points="7047,-506.5 7047,-541.5 7298,-541.5 7298,-506.5 7047,-506.5"/>
<text text-anchor="start" x="7053.8468" y="-519.3" font-family="Arial Bold" font-size="18.00" fill="#000000">social_auth_code</text>
<text text-anchor="start" x="7193.8994" y="-519.3" font-family="Arial" font-size="14.00" fill="#000000"> </text>
<text text-anchor="start" x="7197.79" y="-519.3" font-family="Arial" font-size="14.00" fill="#666666">[BASE TABLE]</text>
<polygon fill="none" stroke="#000000" points="7047,-476.5 7047,-506.5 7298,-506.5 7298,-476.5 7047,-476.5"/>
<text text-anchor="start" x="7054" y="-487.9" font-family="Arial" font-size="14.00" fill="#000000">id </text>
<text text-anchor="start" x="7068.7798" y="-487.9" font-family="Arial" font-size="14.00" fill="#666666">[int]</text>
</g>
<!-- social_auth_nonce -->
<g id="node23" class="node">
<title>social_auth_nonce</title>
<polygon fill="#efefef" stroke="transparent" points="7402,-506.5 7402,-541.5 7663,-541.5 7663,-506.5 7402,-506.5"/>
<polygon fill="none" stroke="#000000" points="7402,-506.5 7402,-541.5 7663,-541.5 7663,-506.5 7402,-506.5"/>
<text text-anchor="start" x="7408.8437" y="-519.3" font-family="Arial Bold" font-size="18.00" fill="#000000">social_auth_nonce</text>
<text text-anchor="start" x="7558.9025" y="-519.3" font-family="Arial" font-size="14.00" fill="#000000"> </text>
<text text-anchor="start" x="7562.7931" y="-519.3" font-family="Arial" font-size="14.00" fill="#666666">[BASE TABLE]</text>
<polygon fill="none" stroke="#000000" points="7402,-476.5 7402,-506.5 7663,-506.5 7663,-476.5 7402,-476.5"/>
<text text-anchor="start" x="7409" y="-487.9" font-family="Arial" font-size="14.00" fill="#000000">id </text>
<text text-anchor="start" x="7423.7798" y="-487.9" font-family="Arial" font-size="14.00" fill="#666666">[int]</text>
</g>
<!-- social_auth_partial -->
<g id="node24" class="node">
<title>social_auth_partial</title>
<polygon fill="#efefef" stroke="transparent" points="7767,-506.5 7767,-541.5 8028,-541.5 8028,-506.5 7767,-506.5"/>
<polygon fill="none" stroke="#000000" points="7767,-506.5 7767,-541.5 8028,-541.5 8028,-506.5 7767,-506.5"/>
<text text-anchor="start" x="7773.8554" y="-519.3" font-family="Arial Bold" font-size="18.00" fill="#000000">social_auth_partial</text>
<text text-anchor="start" x="7923.8908" y="-519.3" font-family="Arial" font-size="14.00" fill="#000000"> </text>
<text text-anchor="start" x="7927.7814" y="-519.3" font-family="Arial" font-size="14.00" fill="#666666">[BASE TABLE]</text>
<polygon fill="none" stroke="#000000" points="7767,-476.5 7767,-506.5 8028,-506.5 8028,-476.5 7767,-476.5"/>
<text text-anchor="start" x="7774" y="-487.9" font-family="Arial" font-size="14.00" fill="#000000">id </text>
<text text-anchor="start" x="7788.7798" y="-487.9" font-family="Arial" font-size="14.00" fill="#666666">[int]</text>
</g>
<!-- social_auth_usersocialauth -->
<g id="node25" class="node">
<title>social_auth_usersocialauth</title>
<polygon fill="#efefef" stroke="transparent" points="1261,-521.5 1261,-556.5 1589,-556.5 1589,-521.5 1261,-521.5"/>
<polygon fill="none" stroke="#000000" points="1261,-521.5 1261,-556.5 1589,-556.5 1589,-521.5 1261,-521.5"/>
<text text-anchor="start" x="1267.843" y="-534.3" font-family="Arial Bold" font-size="18.00" fill="#000000">social_auth_usersocialauth</text>
<text text-anchor="start" x="1484.9032" y="-534.3" font-family="Arial" font-size="14.00" fill="#000000"> </text>
<text text-anchor="start" x="1488.7938" y="-534.3" font-family="Arial" font-size="14.00" fill="#666666">[BASE TABLE]</text>
<polygon fill="none" stroke="#000000" points="1261,-491.5 1261,-521.5 1589,-521.5 1589,-491.5 1261,-491.5"/>
<text text-anchor="start" x="1268" y="-502.9" font-family="Arial" font-size="14.00" fill="#000000">id </text>
<text text-anchor="start" x="1282.7798" y="-502.9" font-family="Arial" font-size="14.00" fill="#666666">[int]</text>
<polygon fill="none" stroke="#000000" points="1261,-461.5 1261,-491.5 1589,-491.5 1589,-461.5 1261,-461.5"/>
<text text-anchor="start" x="1268" y="-472.9" font-family="Arial" font-size="14.00" fill="#000000">user_id </text>
<text text-anchor="start" x="1317.7882" y="-472.9" font-family="Arial" font-size="14.00" fill="#666666">[int]</text>
</g>
<!-- social_auth_usersocialauth&#45;&gt;auth_user -->
<g id="edge10" class="edge">
<title>social_auth_usersocialauth:user_id&#45;&gt;auth_user:id</title>
<path fill="none" stroke="#000000" d="M1425.5078,-451.2734C1434.1393,-362.2362 1548.8083,-259.5 1461,-259.5"/>
<polygon fill="#000000" stroke="#000000" points="1425.496,-451.5123 1420.5055,-461.2768 1425.248,-456.5062 1425,-461.5 1425,-461.5 1425,-461.5 1425.248,-456.5062 1429.4945,-461.7232 1425.496,-451.5123 1425.496,-451.5123"/>
<text text-anchor="start" x="1171.9375" y="-471.5" font-family="Arial" font-size="10.00" fill="#000000">FOREIGN KEY (user_id) REFERENCES auth_user (id)</text>
</g>
</g>
</svg>
