<?xml version="1.0" encoding="UTF-8" standalone="no"?>
<!DOCTYPE svg PUBLIC "-//W3C//DTD SVG 1.1//EN"
 "http://www.w3.org/Graphics/SVG/1.1/DTD/svg11.dtd">
<!-- Generated by graphviz version 2.40.1 (20161225.0304)
 -->
<!-- Title: social_auth_usersocialauth Pages: 1 -->
<svg width="1596pt" height="406pt"
 viewBox="0.00 0.00 1596.00 406.00" xmlns="http://www.w3.org/2000/svg" xmlns:xlink="http://www.w3.org/1999/xlink">
<g id="graph0" class="graph" transform="scale(1 1) rotate(0) translate(4 402)">
<title>social_auth_usersocialauth</title>
<polygon fill="#ffffff" stroke="transparent" points="-4,4 -4,-402 1592,-402 1592,4 -4,4"/>
<!-- social_auth_usersocialauth -->
<g id="node1" class="node">
<title>social_auth_usersocialauth</title>
<polygon fill="#efefef" stroke="transparent" points="46,-304.5 46,-339.5 374,-339.5 374,-304.5 46,-304.5"/>
<polygon fill="none" stroke="#000000" points="46,-304.5 46,-339.5 374,-339.5 374,-304.5 46,-304.5"/>
<text text-anchor="start" x="52.843" y="-317.3" font-family="Arial Bold" font-size="18.00" fill="#000000">social_auth_usersocialauth</text>
<text text-anchor="start" x="269.9032" y="-317.3" font-family="Arial" font-size="14.00" fill="#000000"> </text>
<text text-anchor="start" x="273.7938" y="-317.3" font-family="Arial" font-size="14.00" fill="#666666">[BASE TABLE]</text>
<polygon fill="none" stroke="#000000" points="46,-274.5 46,-304.5 374,-304.5 374,-274.5 46,-274.5"/>
<text text-anchor="start" x="53" y="-285.9" font-family="Arial" font-size="14.00" fill="#000000">id </text>
<text text-anchor="start" x="67.7798" y="-285.9" font-family="Arial" font-size="14.00" fill="#666666">[int]</text>
<polygon fill="none" stroke="#000000" points="46,-244.5 46,-274.5 374,-274.5 374,-244.5 46,-244.5"/>
<text text-anchor="start" x="53" y="-255.9" font-family="Arial" font-size="14.00" fill="#000000">user_id </text>
<text text-anchor="start" x="102.7882" y="-255.9" font-family="Arial" font-size="14.00" fill="#666666">[int]</text>
<polygon fill="none" stroke="#000000" stroke-width="3" points="44.5,-243.5 44.5,-341.5 375.5,-341.5 375.5,-243.5 44.5,-243.5"/>
</g>
<!-- auth_user -->
<g id="node2" class="node">
<title>auth_user</title>
<polygon fill="#efefef" stroke="transparent" points="714,-72.5 714,-107.5 905,-107.5 905,-72.5 714,-72.5"/>
<polygon fill="none" stroke="#000000" points="714,-72.5 714,-107.5 905,-107.5 905,-72.5 714,-72.5"/>
<text text-anchor="start" x="720.8573" y="-85.3" font-family="Arial Bold" font-size="18.00" fill="#000000">auth_user</text>
<text text-anchor="start" x="800.8889" y="-85.3" font-family="Arial" font-size="14.00" fill="#000000"> </text>
<text text-anchor="start" x="804.7795" y="-85.3" font-family="Arial" font-size="14.00" fill="#666666">[BASE TABLE]</text>
<polygon fill="none" stroke="#000000" points="714,-42.5 714,-72.5 905,-72.5 905,-42.5 714,-42.5"/>
<text text-anchor="start" x="721" y="-53.9" font-family="Arial" font-size="14.00" fill="#000000">id </text>
<text text-anchor="start" x="735.7798" y="-53.9" font-family="Arial" font-size="14.00" fill="#666666">[int]</text>
</g>
<!-- social_auth_usersocialauth&#45;&gt;auth_user -->
<g id="edge1" class="edge">
<title>social_auth_usersocialauth:user_id&#45;&gt;auth_user:id</title>
<path fill="none" stroke="#000000" d="M383.9468,-258.3111C411.6771,-250.8335 400.365,-209.8802 429,-187 537.6936,-100.1508 574.8703,-57.5 714,-57.5"/>
<polygon fill="#000000" stroke="#000000" points="383.9293,-258.3131 373.4659,-255.0318 378.9647,-258.9066 374,-259.5 374,-259.5 374,-259.5 378.9647,-258.9066 374.5341,-263.9682 383.9293,-258.3131 383.9293,-258.3131"/>
<text text-anchor="start" x="250.9375" y="-243.5" font-family="Arial" font-size="10.00" fill="#000000">FOREIGN KEY (user_id) REFERENCES auth_user (id)</text>
</g>
<!-- auth_user_groups -->
<g id="node3" class="node">
<title>auth_user_groups</title>
<polygon fill="#efefef" stroke="transparent" points="481,-319.5 481,-354.5 737,-354.5 737,-319.5 481,-319.5"/>
<polygon fill="none" stroke="#000000" points="481,-319.5 481,-354.5 737,-354.5 737,-319.5 481,-319.5"/>
<text text-anchor="start" x="487.8457" y="-332.3" font-family="Arial Bold" font-size="18.00" fill="#000000">auth_user_groups</text>
<text text-anchor="start" x="632.9005" y="-332.3" font-family="Arial" font-size="14.00" fill="#000000"> </text>
<text text-anchor="start" x="636.7911" y="-332.3" font-family="Arial" font-size="14.00" fill="#666666">[BASE TABLE]</text>
<polygon fill="none" stroke="#000000" points="481,-289.5 481,-319.5 737,-319.5 737,-289.5 481,-289.5"/>
<text text-anchor="start" x="488" y="-300.9" font-family="Arial" font-size="14.00" fill="#000000">id </text>
<text text-anchor="start" x="502.7798" y="-300.9" font-family="Arial" font-size="14.00" fill="#666666">[int]</text>
<polygon fill="none" stroke="#000000" points="481,-259.5 481,-289.5 737,-289.5 737,-259.5 481,-259.5"/>
<text text-anchor="start" x="488" y="-270.9" font-family="Arial" font-size="14.00" fill="#000000">user_id </text>
<text text-anchor="start" x="537.7882" y="-270.9" font-family="Arial" font-size="14.00" fill="#666666">[int]</text>
<polygon fill="none" stroke="#000000" points="481,-229.5 481,-259.5 737,-259.5 737,-229.5 481,-229.5"/>
<text text-anchor="start" x="488" y="-240.9" font-family="Arial" font-size="14.00" fill="#000000">group_id </text>
<text text-anchor="start" x="546.3534" y="-240.9" font-family="Arial" font-size="14.00" fill="#666666">[int]</text>
</g>
<!-- auth_user_groups&#45;&gt;auth_user -->
<g id="edge2" class="edge">
<title>auth_user_groups:user_id&#45;&gt;auth_user:id</title>
<path fill="none" stroke="#000000" d="M747.1716,-272.8996C770.1763,-264.0598 746.7561,-220.3913 737,-187 731.6752,-168.7753 719.3248,-169.2247 714,-151 702.3458,-111.1121 672.4444,-57.5 714,-57.5"/>
<polygon fill="#000000" stroke="#000000" points="746.8785,-272.9457 736.3006,-270.0547 741.9392,-273.7228 737,-274.5 737,-274.5 737,-274.5 741.9392,-273.7228 737.6994,-278.9453 746.8785,-272.9457 746.8785,-272.9457"/>
<text text-anchor="start" x="743.9375" y="-284.5" font-family="Arial" font-size="10.00" fill="#000000">FOREIGN KEY (user_id) REFERENCES auth_user (id)</text>
</g>
<!-- auth_user_user_permissions -->
<g id="node4" class="node">
<title>auth_user_user_permissions</title>
<polygon fill="#efefef" stroke="transparent" points="841,-319.5 841,-354.5 1183,-354.5 1183,-319.5 841,-319.5"/>
<polygon fill="none" stroke="#000000" points="841,-319.5 841,-354.5 1183,-354.5 1183,-319.5 841,-319.5"/>
<text text-anchor="start" x="847.85" y="-332.3" font-family="Arial Bold" font-size="18.00" fill="#000000">auth_user_user_permissions</text>
<text text-anchor="start" x="1078.8962" y="-332.3" font-family="Arial" font-size="14.00" fill="#000000"> </text>
<text text-anchor="start" x="1082.7868" y="-332.3" font-family="Arial" font-size="14.00" fill="#666666">[BASE TABLE]</text>
<polygon fill="none" stroke="#000000" points="841,-289.5 841,-319.5 1183,-319.5 1183,-289.5 841,-289.5"/>
<text text-anchor="start" x="848" y="-300.9" font-family="Arial" font-size="14.00" fill="#000000">id </text>
<text text-anchor="start" x="862.7798" y="-300.9" font-family="Arial" font-size="14.00" fill="#666666">[int]</text>
<polygon fill="none" stroke="#000000" points="841,-259.5 841,-289.5 1183,-289.5 1183,-259.5 841,-259.5"/>
<text text-anchor="start" x="848" y="-270.9" font-family="Arial" font-size="14.00" fill="#000000">user_id </text>
<text text-anchor="start" x="897.7882" y="-270.9" font-family="Arial" font-size="14.00" fill="#666666">[int]</text>
<polygon fill="none" stroke="#000000" points="841,-229.5 841,-259.5 1183,-259.5 1183,-229.5 841,-229.5"/>
<text text-anchor="start" x="848" y="-240.9" font-family="Arial" font-size="14.00" fill="#000000">permission_id </text>
<text text-anchor="start" x="938.2272" y="-240.9" font-family="Arial" font-size="14.00" fill="#666666">[int]</text>
</g>
<!-- auth_user_user_permissions&#45;&gt;auth_user -->
<g id="edge3" class="edge">
<title>auth_user_user_permissions:user_id&#45;&gt;auth_user:id</title>
<path fill="none" stroke="#000000" d="M830.8898,-272.909C806.0264,-263.7553 823.3611,-217.1599 841,-187 857.476,-158.8286 888.524,-179.1714 905,-151 925.9792,-115.1289 946.5556,-57.5 905,-57.5"/>
<polygon fill="#000000" stroke="#000000" points="831.1216,-272.9453 840.3004,-278.9453 836.0608,-273.7227 841,-274.5 841,-274.5 841,-274.5 836.0608,-273.7227 841.6996,-270.0547 831.1216,-272.9453 831.1216,-272.9453"/>
<text text-anchor="start" x="847.9375" y="-258.5" font-family="Arial" font-size="10.00" fill="#000000">FOREIGN KEY (user_id) REFERENCES auth_user (id)</text>
</g>
<!-- django_admin_log -->
<g id="node5" class="node">
<title>django_admin_log</title>
<polygon fill="#efefef" stroke="transparent" points="1287,-319.5 1287,-354.5 1545,-354.5 1545,-319.5 1287,-319.5"/>
<polygon fill="none" stroke="#000000" points="1287,-319.5 1287,-354.5 1545,-354.5 1545,-319.5 1287,-319.5"/>
<text text-anchor="start" x="1293.8485" y="-332.3" font-family="Arial Bold" font-size="18.00" fill="#000000">django_admin_log</text>
<text text-anchor="start" x="1440.8977" y="-332.3" font-family="Arial" font-size="14.00" fill="#000000"> </text>
<text text-anchor="start" x="1444.7883" y="-332.3" font-family="Arial" font-size="14.00" fill="#666666">[BASE TABLE]</text>
<polygon fill="none" stroke="#000000" points="1287,-289.5 1287,-319.5 1545,-319.5 1545,-289.5 1287,-289.5"/>
<text text-anchor="start" x="1294" y="-300.9" font-family="Arial" font-size="14.00" fill="#000000">id </text>
<text text-anchor="start" x="1308.7798" y="-300.9" font-family="Arial" font-size="14.00" fill="#666666">[int]</text>
<polygon fill="none" stroke="#000000" points="1287,-259.5 1287,-289.5 1545,-289.5 1545,-259.5 1287,-259.5"/>
<text text-anchor="start" x="1294" y="-270.9" font-family="Arial" font-size="14.00" fill="#000000">content_type_id </text>
<text text-anchor="start" x="1396.7124" y="-270.9" font-family="Arial" font-size="14.00" fill="#666666">[int]</text>
<polygon fill="none" stroke="#000000" points="1287,-229.5 1287,-259.5 1545,-259.5 1545,-229.5 1287,-229.5"/>
<text text-anchor="start" x="1294" y="-240.9" font-family="Arial" font-size="14.00" fill="#000000">user_id </text>
<text text-anchor="start" x="1343.7882" y="-240.9" font-family="Arial" font-size="14.00" fill="#666666">[int]</text>
</g>
<!-- django_admin_log&#45;&gt;auth_user -->
<g id="edge4" class="edge">
<title>django_admin_log:user_id&#45;&gt;auth_user:id</title>
<path fill="none" stroke="#000000" d="M1276.91,-243.1223C1254.4887,-236.1463 1260.1336,-204.3715 1235,-187 1105.3897,-97.418 1062.5556,-57.5 905,-57.5"/>
<polygon fill="#000000" stroke="#000000" points="1277.0919,-243.1471 1286.3912,-248.9586 1282.046,-243.8235 1287,-244.5 1287,-244.5 1287,-244.5 1282.046,-243.8235 1287.6088,-240.0414 1277.0919,-243.1471 1277.0919,-243.1471"/>
<text text-anchor="start" x="1098.9375" y="-228.5" font-family="Arial" font-size="10.00" fill="#000000">FOREIGN KEY (user_id) REFERENCES auth_user (id)</text>
</g>
</g>
</svg>
