<?xml version="1.0" encoding="UTF-8" standalone="no"?>
<!DOCTYPE svg PUBLIC "-//W3C//DTD SVG 1.1//EN"
 "http://www.w3.org/Graphics/SVG/1.1/DTD/svg11.dtd">
<!-- Generated by graphviz version 2.40.1 (20161225.0304)
 -->
<!-- Title: social_auth_association Pages: 1 -->
<svg width="402pt" height="345pt"
 viewBox="0.00 0.00 402.00 345.00" xmlns="http://www.w3.org/2000/svg" xmlns:xlink="http://www.w3.org/1999/xlink">
<g id="graph0" class="graph" transform="scale(1 1) rotate(0) translate(4 341)">
<title>social_auth_association</title>
<polygon fill="#ffffff" stroke="transparent" points="-4,4 -4,-341 398,-341 398,4 -4,4"/>
<!-- social_auth_association -->
<g id="node1" class="node">
<title>social_auth_association</title>
<polygon fill="#efefef" stroke="transparent" points="46,-255.5 46,-290.5 348,-290.5 348,-255.5 46,-255.5"/>
<polygon fill="none" stroke="#000000" points="46,-255.5 46,-290.5 348,-290.5 348,-255.5 46,-255.5"/>
<text text-anchor="start" x="52.8453" y="-268.3" font-family="Arial Bold" font-size="18.00" fill="#000000">social_auth_association</text>
<text text-anchor="start" x="243.9009" y="-268.3" font-family="Arial" font-size="14.00" fill="#000000"> </text>
<text text-anchor="start" x="247.7915" y="-268.3" font-family="Arial" font-size="14.00" fill="#666666">[BASE TABLE]</text>
<polygon fill="none" stroke="#000000" points="46,-225.5 46,-255.5 348,-255.5 348,-225.5 46,-225.5"/>
<text text-anchor="start" x="53" y="-236.9" font-family="Arial" font-size="14.00" fill="#000000">id </text>
<text text-anchor="start" x="67.7798" y="-236.9" font-family="Arial" font-size="14.00" fill="#666666">[int]</text>
<polygon fill="none" stroke="#000000" points="46,-195.5 46,-225.5 348,-225.5 348,-195.5 46,-195.5"/>
<text text-anchor="start" x="53" y="-206.9" font-family="Arial" font-size="14.00" fill="#000000">server_url </text>
<text text-anchor="start" x="119.1094" y="-206.9" font-family="Arial" font-size="14.00" fill="#666666">[varchar(255)]</text>
<polygon fill="none" stroke="#000000" points="46,-165.5 46,-195.5 348,-195.5 348,-165.5 46,-165.5"/>
<text text-anchor="start" x="53" y="-176.9" font-family="Arial" font-size="14.00" fill="#000000">handle </text>
<text text-anchor="start" x="98.9102" y="-176.9" font-family="Arial" font-size="14.00" fill="#666666">[varchar(255)]</text>
<polygon fill="none" stroke="#000000" points="46,-135.5 46,-165.5 348,-165.5 348,-135.5 46,-135.5"/>
<text text-anchor="start" x="53" y="-146.9" font-family="Arial" font-size="14.00" fill="#000000">secret </text>
<text text-anchor="start" x="95.007" y="-146.9" font-family="Arial" font-size="14.00" fill="#666666">[varchar(255)]</text>
<polygon fill="none" stroke="#000000" points="46,-105.5 46,-135.5 348,-135.5 348,-105.5 46,-105.5"/>
<text text-anchor="start" x="53" y="-116.9" font-family="Arial" font-size="14.00" fill="#000000">issued </text>
<text text-anchor="start" x="97.345" y="-116.9" font-family="Arial" font-size="14.00" fill="#666666">[int]</text>
<polygon fill="none" stroke="#000000" points="46,-75.5 46,-105.5 348,-105.5 348,-75.5 46,-75.5"/>
<text text-anchor="start" x="53" y="-86.9" font-family="Arial" font-size="14.00" fill="#000000">lifetime </text>
<text text-anchor="start" x="101.2174" y="-86.9" font-family="Arial" font-size="14.00" fill="#666666">[int]</text>
<polygon fill="none" stroke="#000000" points="46,-45.5 46,-75.5 348,-75.5 348,-45.5 46,-45.5"/>
<text text-anchor="start" x="53" y="-56.9" font-family="Arial" font-size="14.00" fill="#000000">assoc_type </text>
<text text-anchor="start" x="127.6942" y="-56.9" font-family="Arial" font-size="14.00" fill="#666666">[varchar(64)]</text>
<polygon fill="none" stroke="#000000" stroke-width="3" points="44.5,-44.5 44.5,-292.5 349.5,-292.5 349.5,-44.5 44.5,-44.5"/>
</g>
</g>
</svg>
