<?xml version="1.0" encoding="UTF-8" standalone="no"?>
<!DOCTYPE svg PUBLIC "-//W3C//DTD SVG 1.1//EN"
 "http://www.w3.org/Graphics/SVG/1.1/DTD/svg11.dtd">
<!-- Generated by graphviz version 2.40.1 (20161225.0304)
 -->
<!-- Title: social_auth_usersocialauth Pages: 1 -->
<svg width="478pt" height="772pt"
 viewBox="0.00 0.00 478.00 772.00" xmlns="http://www.w3.org/2000/svg" xmlns:xlink="http://www.w3.org/1999/xlink">
<g id="graph0" class="graph" transform="scale(1 1) rotate(0) translate(4 768)">
<title>social_auth_usersocialauth</title>
<polygon fill="#ffffff" stroke="transparent" points="-4,4 -4,-768 474,-768 474,4 -4,4"/>
<!-- social_auth_usersocialauth -->
<g id="node1" class="node">
<title>social_auth_usersocialauth</title>
<polygon fill="#efefef" stroke="transparent" points="96,-682.5 96,-717.5 424,-717.5 424,-682.5 96,-682.5"/>
<polygon fill="none" stroke="#000000" points="96,-682.5 96,-717.5 424,-717.5 424,-682.5 96,-682.5"/>
<text text-anchor="start" x="102.843" y="-695.3" font-family="Arial Bold" font-size="18.00" fill="#000000">social_auth_usersocialauth</text>
<text text-anchor="start" x="319.9032" y="-695.3" font-family="Arial" font-size="14.00" fill="#000000"> </text>
<text text-anchor="start" x="323.7938" y="-695.3" font-family="Arial" font-size="14.00" fill="#666666">[BASE TABLE]</text>
<polygon fill="none" stroke="#000000" points="96,-652.5 96,-682.5 424,-682.5 424,-652.5 96,-652.5"/>
<text text-anchor="start" x="103" y="-663.9" font-family="Arial" font-size="14.00" fill="#000000">id </text>
<text text-anchor="start" x="117.7798" y="-663.9" font-family="Arial" font-size="14.00" fill="#666666">[int]</text>
<polygon fill="none" stroke="#000000" points="96,-622.5 96,-652.5 424,-652.5 424,-622.5 96,-622.5"/>
<text text-anchor="start" x="103" y="-633.9" font-family="Arial" font-size="14.00" fill="#000000">provider </text>
<text text-anchor="start" x="157.4488" y="-633.9" font-family="Arial" font-size="14.00" fill="#666666">[varchar(32)]</text>
<polygon fill="none" stroke="#000000" points="96,-592.5 96,-622.5 424,-622.5 424,-592.5 96,-592.5"/>
<text text-anchor="start" x="103" y="-603.9" font-family="Arial" font-size="14.00" fill="#000000">uid </text>
<text text-anchor="start" x="125.5624" y="-603.9" font-family="Arial" font-size="14.00" fill="#666666">[varchar(255)]</text>
<polygon fill="none" stroke="#000000" points="96,-562.5 96,-592.5 424,-592.5 424,-562.5 96,-562.5"/>
<text text-anchor="start" x="103" y="-573.9" font-family="Arial" font-size="14.00" fill="#000000">extra_data </text>
<text text-anchor="start" x="173.028" y="-573.9" font-family="Arial" font-size="14.00" fill="#666666">[longtext]</text>
<polygon fill="none" stroke="#000000" points="96,-532.5 96,-562.5 424,-562.5 424,-532.5 96,-532.5"/>
<text text-anchor="start" x="103" y="-543.9" font-family="Arial" font-size="14.00" fill="#000000">user_id </text>
<text text-anchor="start" x="152.7882" y="-543.9" font-family="Arial" font-size="14.00" fill="#666666">[int]</text>
<polygon fill="none" stroke="#000000" stroke-width="3" points="94.5,-531.5 94.5,-719.5 425.5,-719.5 425.5,-531.5 94.5,-531.5"/>
</g>
<!-- auth_user -->
<g id="node2" class="node">
<title>auth_user</title>
<polygon fill="#efefef" stroke="transparent" points="164,-372.5 164,-407.5 355,-407.5 355,-372.5 164,-372.5"/>
<polygon fill="none" stroke="#000000" points="164,-372.5 164,-407.5 355,-407.5 355,-372.5 164,-372.5"/>
<text text-anchor="start" x="170.8573" y="-385.3" font-family="Arial Bold" font-size="18.00" fill="#000000">auth_user</text>
<text text-anchor="start" x="250.8889" y="-385.3" font-family="Arial" font-size="14.00" fill="#000000"> </text>
<text text-anchor="start" x="254.7795" y="-385.3" font-family="Arial" font-size="14.00" fill="#666666">[BASE TABLE]</text>
<polygon fill="none" stroke="#000000" points="164,-342.5 164,-372.5 355,-372.5 355,-342.5 164,-342.5"/>
<text text-anchor="start" x="171" y="-353.9" font-family="Arial" font-size="14.00" fill="#000000">id </text>
<text text-anchor="start" x="185.7798" y="-353.9" font-family="Arial" font-size="14.00" fill="#666666">[int]</text>
<polygon fill="none" stroke="#000000" points="164,-312.5 164,-342.5 355,-342.5 355,-312.5 164,-312.5"/>
<text text-anchor="start" x="171" y="-323.9" font-family="Arial" font-size="14.00" fill="#000000">password </text>
<text text-anchor="start" x="234.7882" y="-323.9" font-family="Arial" font-size="14.00" fill="#666666">[varchar(128)]</text>
<polygon fill="none" stroke="#000000" points="164,-282.5 164,-312.5 355,-312.5 355,-282.5 164,-282.5"/>
<text text-anchor="start" x="171" y="-293.9" font-family="Arial" font-size="14.00" fill="#000000">last_login </text>
<text text-anchor="start" x="234.014" y="-293.9" font-family="Arial" font-size="14.00" fill="#666666">[datetime(6)]</text>
<polygon fill="none" stroke="#000000" points="164,-252.5 164,-282.5 355,-282.5 355,-252.5 164,-252.5"/>
<text text-anchor="start" x="171" y="-263.9" font-family="Arial" font-size="14.00" fill="#000000">is_superuser </text>
<text text-anchor="start" x="255.014" y="-263.9" font-family="Arial" font-size="14.00" fill="#666666">[tinyint(1)]</text>
<polygon fill="none" stroke="#000000" points="164,-222.5 164,-252.5 355,-252.5 355,-222.5 164,-222.5"/>
<text text-anchor="start" x="171" y="-233.9" font-family="Arial" font-size="14.00" fill="#000000">username </text>
<text text-anchor="start" x="237.1248" y="-233.9" font-family="Arial" font-size="14.00" fill="#666666">[varchar(150)]</text>
<polygon fill="none" stroke="#000000" points="164,-192.5 164,-222.5 355,-222.5 355,-192.5 164,-192.5"/>
<text text-anchor="start" x="171" y="-203.9" font-family="Arial" font-size="14.00" fill="#000000">first_name </text>
<text text-anchor="start" x="240.23" y="-203.9" font-family="Arial" font-size="14.00" fill="#666666">[varchar(30)]</text>
<polygon fill="none" stroke="#000000" points="164,-162.5 164,-192.5 355,-192.5 355,-162.5 164,-162.5"/>
<text text-anchor="start" x="171" y="-173.9" font-family="Arial" font-size="14.00" fill="#000000">last_name </text>
<text text-anchor="start" x="239.4614" y="-173.9" font-family="Arial" font-size="14.00" fill="#666666">[varchar(150)]</text>
<polygon fill="none" stroke="#000000" points="164,-132.5 164,-162.5 355,-162.5 355,-132.5 164,-132.5"/>
<text text-anchor="start" x="171" y="-143.9" font-family="Arial" font-size="14.00" fill="#000000">email </text>
<text text-anchor="start" x="208.3296" y="-143.9" font-family="Arial" font-size="14.00" fill="#666666">[varchar(254)]</text>
<polygon fill="none" stroke="#000000" points="164,-102.5 164,-132.5 355,-132.5 355,-102.5 164,-102.5"/>
<text text-anchor="start" x="171" y="-113.9" font-family="Arial" font-size="14.00" fill="#000000">is_staff </text>
<text text-anchor="start" x="219.2342" y="-113.9" font-family="Arial" font-size="14.00" fill="#666666">[tinyint(1)]</text>
<polygon fill="none" stroke="#000000" points="164,-72.5 164,-102.5 355,-102.5 355,-72.5 164,-72.5"/>
<text text-anchor="start" x="171" y="-83.9" font-family="Arial" font-size="14.00" fill="#000000">is_active </text>
<text text-anchor="start" x="229.3422" y="-83.9" font-family="Arial" font-size="14.00" fill="#666666">[tinyint(1)]</text>
<polygon fill="none" stroke="#000000" points="164,-42.5 164,-72.5 355,-72.5 355,-42.5 164,-42.5"/>
<text text-anchor="start" x="171" y="-53.9" font-family="Arial" font-size="14.00" fill="#000000">date_joined </text>
<text text-anchor="start" x="247.2552" y="-53.9" font-family="Arial" font-size="14.00" fill="#666666">[datetime(6)]</text>
</g>
<!-- social_auth_usersocialauth&#45;&gt;auth_user -->
<g id="edge1" class="edge">
<title>social_auth_usersocialauth:user_id&#45;&gt;auth_user:id</title>
<path fill="none" stroke="#000000" d="M260.9142,-522.4342C269.3173,-479.8151 333.3082,-498.1896 355,-451 372.3561,-413.2425 396.5556,-357.5 355,-357.5"/>
<polygon fill="#000000" stroke="#000000" points="260.9046,-522.541 255.5184,-532.0929 260.4523,-527.5205 260,-532.5 260,-532.5 260,-532.5 260.4523,-527.5205 264.4816,-532.9071 260.9046,-522.541 260.9046,-522.541"/>
<text text-anchor="start" x="6.9375" y="-542.5" font-family="Arial" font-size="10.00" fill="#000000">FOREIGN KEY (user_id) REFERENCES auth_user (id)</text>
</g>
</g>
</svg>
