<?xml version="1.0" encoding="UTF-8" standalone="no"?>
<!DOCTYPE svg PUBLIC "-//W3C//DTD SVG 1.1//EN"
 "http://www.w3.org/Graphics/SVG/1.1/DTD/svg11.dtd">
<!-- Generated by graphviz version 2.40.1 (20161225.0304)
 -->
<!-- Title: social_auth_nonce Pages: 1 -->
<svg width="361pt" height="165pt"
 viewBox="0.00 0.00 361.00 165.00" xmlns="http://www.w3.org/2000/svg" xmlns:xlink="http://www.w3.org/1999/xlink">
<g id="graph0" class="graph" transform="scale(1 1) rotate(0) translate(4 161)">
<title>social_auth_nonce</title>
<polygon fill="#ffffff" stroke="transparent" points="-4,4 -4,-161 357,-161 357,4 -4,4"/>
<!-- social_auth_nonce -->
<g id="node1" class="node">
<title>social_auth_nonce</title>
<polygon fill="#efefef" stroke="transparent" points="46.5,-75.5 46.5,-110.5 307.5,-110.5 307.5,-75.5 46.5,-75.5"/>
<polygon fill="none" stroke="#000000" points="46.5,-75.5 46.5,-110.5 307.5,-110.5 307.5,-75.5 46.5,-75.5"/>
<text text-anchor="start" x="53.3437" y="-88.3" font-family="Arial Bold" font-size="18.00" fill="#000000">social_auth_nonce</text>
<text text-anchor="start" x="203.4025" y="-88.3" font-family="Arial" font-size="14.00" fill="#000000"> </text>
<text text-anchor="start" x="207.2931" y="-88.3" font-family="Arial" font-size="14.00" fill="#666666">[BASE TABLE]</text>
<polygon fill="none" stroke="#000000" points="46.5,-45.5 46.5,-75.5 307.5,-75.5 307.5,-45.5 46.5,-45.5"/>
<text text-anchor="start" x="53.5" y="-56.9" font-family="Arial" font-size="14.00" fill="#000000">id </text>
<text text-anchor="start" x="68.2798" y="-56.9" font-family="Arial" font-size="14.00" fill="#666666">[int]</text>
<polygon fill="none" stroke="#000000" stroke-width="3" points="44.5,-44.5 44.5,-112.5 308.5,-112.5 308.5,-44.5 44.5,-44.5"/>
</g>
</g>
</svg>
